<svg width="492" height="264" viewBox="0 0 492 264" fill="none" xmlns="http://www.w3.org/2000/svg">
<path d="M0.220749 217.152C0.220749 217.152 -6.22211 182.987 50.5065 174.837C105.506 167.001 120.435 177.972 154.221 178.755C188.006 179.539 185.649 166.218 231.221 167.001C276.792 167.785 309.792 181.89 351.435 171.703C393.078 161.516 475.578 165.434 488.149 197.562C500.721 229.689 476.364 262.601 410.364 251.63C344.364 240.66 319.221 263.384 250.864 257.115C182.506 250.847 180.149 250.847 155.792 256.332C131.435 261.817 -2.13639 282.191 0.220749 217.152Z" fill="url(#paint0_linear_36_166)"/>
<path d="M20.0208 229.533C21.5922 244.264 54.4351 256.332 96.8636 256.332C139.292 256.332 171.507 244.264 173.706 229.533C177.635 203.204 171.978 202.733 96.8636 202.733C45.1636 202.733 16.5636 197.405 20.0208 229.533Z" fill="url(#paint1_linear_36_166)"/>
<path d="M96.8636 243.951C139.303 243.951 173.706 231.953 173.706 217.152C173.706 202.351 139.303 190.353 96.8636 190.353C54.4245 190.353 20.0208 202.351 20.0208 217.152C20.0208 231.953 54.4245 243.951 96.8636 243.951Z" fill="url(#paint2_linear_36_166)"/>
<path d="M96.8636 242.384C56.7922 242.384 25.5208 231.257 25.5208 216.995C25.5208 202.733 56.9493 191.606 96.8636 191.606C136.778 191.606 168.206 202.733 168.206 216.995C168.206 231.257 136.935 242.384 96.8636 242.384ZM96.8636 193.174C58.2065 193.174 26.935 203.987 26.935 217.152C26.935 230.316 58.3636 241.13 96.8636 241.13C135.521 241.13 166.792 230.316 166.792 217.152C166.792 203.987 135.521 193.174 96.8636 193.174Z" fill="#D09C6C"/>
<path d="M114.306 224.361L95.2922 218.719C86.335 221.07 78.3207 222.48 71.5636 222.794C64.8065 223.107 58.835 222.48 53.9636 221.07C49.0922 219.503 46.735 217.622 47.3636 214.958C47.835 212.45 51.135 209.786 56.9493 206.965L52.5493 205.554L60.7207 202.263L65.1207 203.674C71.5636 201.48 78.0065 200.069 84.135 199.442C90.4207 198.815 96.235 198.972 101.735 200.069L89.0065 206.181C84.6065 205.398 79.8922 205.554 75.0207 206.651L92.7779 211.98C103.778 209.002 112.421 207.278 118.706 206.965C125.149 206.651 130.649 207.122 135.521 208.689C141.021 210.256 143.535 212.607 143.221 215.271C142.906 218.092 139.449 221.07 133.006 224.204L141.492 226.712L133.321 230.003L125.149 227.495C118.078 229.846 110.849 231.413 103.621 232.04C96.3922 232.667 89.1636 232.354 82.0922 230.943L95.4493 224.674C98.435 225.145 101.735 225.301 105.035 225.145C108.335 225.301 111.478 224.988 114.306 224.361ZM66.8493 210.099C65.2779 211.196 64.4922 212.137 64.6493 213.077C64.8065 214.017 65.7493 214.801 67.4779 215.271C69.0493 215.741 71.0922 215.898 73.7636 215.898C76.2779 215.898 79.2636 215.428 82.5636 214.801L66.8493 210.099ZM122.949 221.383C125.306 220.129 126.564 218.876 126.564 217.779C126.721 216.525 125.621 215.585 123.264 214.958C121.221 214.331 118.706 214.174 115.878 214.331C112.892 214.488 109.435 215.114 105.192 216.211L122.949 221.383Z" fill="#A97C50"/>
<path opacity="0.55" d="M164.435 206.181C164.435 206.181 119.649 213.547 124.364 220.6C129.078 227.652 165.221 228.906 165.221 228.906L160.978 243.011L188.164 240.346C188.164 240.346 202.778 246.145 216.135 244.578C229.492 243.011 232.635 241.443 232.635 241.443C232.635 241.443 282.921 232.04 350.492 225.771C418.064 219.503 458.135 208.532 458.135 208.532L447.135 201.48C447.135 201.48 389.778 212.45 382.706 205.398C375.635 198.345 416.492 191.293 416.492 191.293L409.421 184.24C409.421 184.24 360.706 189.726 277.421 198.345C202.935 206.025 207.492 202.263 207.492 202.263C207.492 202.263 172.921 205.398 174.492 214.017C176.064 222.637 179.206 224.988 179.206 224.988C179.206 224.988 173.078 205.398 164.435 206.181Z" fill="black"/>
<path d="M229.649 154.307C229.649 154.307 231.692 157.441 237.978 154.307C244.264 151.172 279.935 131.426 279.935 131.426L274.749 126.097" fill="#A7A9AC"/>
<path d="M452.007 116.067C453.421 110.895 455.149 106.821 456.878 103.216C445.878 117.791 427.649 120.455 441.949 150.859L457.507 168.255L455.621 192.547C455.621 192.547 441.792 189.412 441.164 201.636C440.535 213.861 458.764 212.293 465.049 206.652L469.449 158.068C469.292 158.068 443.049 148.665 452.007 116.067Z" fill="black"/>
<path d="M410.835 147.254L418.378 156.501L413.349 178.128C413.349 178.128 402.035 173.583 399.678 184.397C397.321 195.211 413.192 196.151 419.321 192.076L431.107 145.844C431.107 145.844 420.578 140.986 422.621 124.53C420.106 105.88 403.764 125.157 410.835 147.254Z" fill="black"/>
<path d="M422.621 124.687C423.092 120.612 424.349 115.91 426.864 110.268C438.964 82.0587 447.921 88.014 437.078 51.9683C437.078 51.9683 432.678 42.2516 430.635 40.5277C430.635 40.5277 414.292 46.7965 405.178 72.4987C396.064 98.2009 389.621 112.149 385.535 116.224L410.678 147.411C412.249 138.635 416.492 130.642 422.621 124.687Z" fill="black"/>
<path d="M413.192 182.517C411.621 182.673 410.206 183.143 409.106 183.927C408.006 184.711 407.378 186.121 406.906 187.375C406.592 188.785 406.278 190.196 406.592 191.606C406.906 192.86 408.006 193.957 409.578 194.271C408.792 194.427 408.006 194.271 407.221 193.8C406.435 193.33 405.806 192.703 405.492 191.92C404.864 190.196 405.021 188.472 405.492 186.905C405.964 185.338 406.906 183.77 408.478 182.83C409.892 182.046 411.778 181.89 413.192 182.517Z" fill="#4D4D4F"/>
<path d="M407.535 181.42C405.964 181.576 404.549 182.046 403.449 182.83C402.349 183.614 401.721 185.024 401.249 186.278C400.935 187.688 400.621 189.099 400.935 190.509C401.249 191.763 402.349 192.86 403.921 193.174C403.135 193.33 402.349 193.174 401.564 192.703C400.778 192.233 400.149 191.606 399.835 190.823C399.206 189.099 399.364 187.375 399.835 185.808C400.306 184.24 401.249 182.673 402.821 181.733C404.235 180.949 405.964 180.949 407.535 181.42Z" fill="#4D4D4F"/>
<path d="M231.849 187.218L204.507 196.778C204.507 196.778 186.435 187.845 178.107 199.913C178.107 199.913 176.849 204.301 179.364 206.965C179.364 206.965 176.221 214.488 187.221 216.055C187.221 216.055 193.192 219.503 199.007 216.838C207.964 212.764 208.749 207.749 208.749 207.749C208.749 207.749 228.392 200.539 247.721 194.898C247.721 184.711 237.978 187.218 231.849 187.218Z" fill="black"/>
<path d="M311.678 150.546L311.364 139.889C311.364 139.889 297.535 132.836 279.935 131.269C279.935 131.269 280.249 157.911 267.049 174.837L232.006 187.218C238.135 187.218 243.949 189.256 247.878 194.897C264.064 190.196 280.092 186.435 284.335 188.942C284.335 188.942 296.278 189.726 301.306 177.188C308.378 159.165 324.878 161.516 324.878 161.516L311.678 150.546Z" fill="url(#paint3_linear_36_166)"/>
<path d="M187.221 216.055C186.592 214.644 186.435 213.077 186.435 211.51C186.592 209.943 187.064 208.375 188.164 206.965C189.264 205.711 190.835 204.771 192.406 204.614C193.192 204.457 193.978 204.457 194.764 204.457C195.549 204.614 196.335 204.771 196.964 204.928C196.178 205.084 195.392 205.084 194.764 205.241C194.135 205.398 193.349 205.554 192.721 205.711C192.406 205.868 192.092 206.025 191.778 206.025C191.464 206.181 191.149 206.338 190.835 206.495C190.521 206.651 190.364 206.808 190.049 207.122C189.735 207.278 189.578 207.592 189.421 207.749C188.635 208.689 188.006 209.943 187.692 211.353C187.378 213.077 187.221 214.488 187.221 216.055Z" fill="#6D6E71"/>
<path d="M179.364 206.965C179.207 205.554 179.521 203.987 180.149 202.577C180.778 201.166 181.878 199.913 183.292 199.129C184.707 198.345 186.435 198.189 187.849 198.502C188.635 198.659 189.264 198.972 190.049 199.129C190.678 199.442 191.307 199.756 191.935 200.226C191.149 200.226 190.521 200.069 189.735 199.913C189.107 199.913 188.321 199.756 187.692 199.756C186.278 199.756 185.021 200.069 183.921 200.539C182.821 201.166 181.878 202.107 181.092 203.204C180.464 204.457 179.835 205.711 179.364 206.965Z" fill="#6D6E71"/>
<path d="M349.864 4.48199C349.078 4.16854 348.292 4.01182 347.349 3.8551C320.321 13.4151 322.521 37.3933 322.521 37.3933C322.521 37.3933 331.949 22.3481 353.006 16.236C354.264 12.1613 353.792 7.92984 349.864 4.48199Z" fill="url(#paint4_linear_36_166)"/>
<path d="M359.764 0.72066C355.049 1.34754 350.964 2.44459 347.349 3.69835C348.292 3.85507 349.078 4.01179 349.864 4.32523C353.792 7.77309 354.264 12.0045 353.007 16.0793C359.764 14.0419 367.778 13.1016 377.049 13.7285C414.921 16.7062 419.478 33.7887 419.478 33.7887L423.092 35.1992C427.649 24.072 399.992 -4.92128 359.764 0.72066Z" fill="url(#paint5_linear_36_166)"/>
<path d="M421.049 62.782C424.349 47.2667 435.664 37.7067 443.364 35.5126C437.864 33.3185 429.849 31.9081 419.164 33.7887C419.164 33.7887 408.478 46.0129 382.235 72.1853C360.235 94.1261 347.664 92.5589 347.664 92.5589C347.664 92.5589 287.164 70.1479 245.206 89.4245C245.206 89.4245 238.607 93.3425 241.749 95.6933C243.949 97.4173 253.692 112.619 259.349 121.396C267.992 119.358 281.349 116.224 282.135 116.851C283.392 117.634 279.307 121.866 287.164 128.134C295.021 134.403 306.335 120.298 313.878 122.179C321.421 124.06 322.992 130.329 322.049 134.717C321.107 139.105 329.592 145.687 330.692 145.687C331.792 145.687 340.121 144.12 340.121 144.12C340.121 144.12 353.478 163.71 374.692 153.837C395.907 143.963 400.149 135.03 408.949 117.791C409.578 116.537 410.364 115.283 410.992 114.03C417.278 94.1261 416.806 82.3721 421.049 62.782Z" fill="url(#paint6_linear_36_166)"/>
<path d="M443.207 35.6693C435.507 37.8634 419.007 44.2889 415.864 59.8043C411.778 79.3944 417.278 94.2828 410.835 114.5C410.992 114.186 411.149 114.03 411.307 113.716C417.278 97.5739 425.292 90.0513 434.407 79.3944C434.407 79.3944 438.335 49.9309 453.578 42.565C453.578 42.4083 450.435 38.3336 443.207 35.6693Z" fill="url(#paint7_linear_36_166)"/>
<path d="M374.535 154.15C353.321 163.867 339.964 144.433 339.964 144.433C339.964 144.433 331.792 146.001 330.535 146.001C329.278 146.001 321.106 139.418 321.892 135.03C322.678 130.642 321.106 124.373 313.721 122.493C306.335 120.612 299.892 126.881 292.035 120.612C284.178 114.343 282.921 117.791 281.821 117.164C281.035 116.694 267.521 119.672 259.035 121.709C261.392 125.47 262.964 128.134 262.964 128.134L264.692 135.187C264.692 135.187 278.678 128.605 291.564 144.59C306.021 162.613 338.706 175.934 372.964 166.844C393.392 161.516 402.506 137.694 411.149 113.716C410.364 115.127 409.421 116.694 408.635 118.261C400.149 135.344 395.906 144.277 374.535 154.15Z" fill="url(#paint8_linear_36_166)"/>
<path d="M456.878 103.216C465.992 84.2528 476.521 83.1557 460.649 51.8116C460.649 51.8116 454.049 42.0949 451.221 40.5277C451.221 40.5277 433.621 49.931 427.649 79.3944C421.678 108.858 419.792 120.925 420.578 127.194L441.949 151.016C437.235 133.776 445.721 117.791 456.878 103.216Z" fill="url(#paint9_linear_36_166)"/>
<path d="M228.078 224.204C228.078 224.204 213.935 216.055 206.864 222.324C199.792 228.592 203.721 233.607 203.721 233.607C203.721 233.607 200.892 239.093 209.221 240.19C209.221 240.19 214.721 244.578 223.049 242.07C231.378 239.563 232.164 234.548 232.164 234.548L269.249 221.227C279.935 215.741 277.892 210.726 274.907 206.808L228.078 224.204Z" fill="black"/>
<path d="M345.935 150.232C345.935 150.232 349.864 143.963 346.721 137.381C346.721 137.381 337.292 92.7156 308.221 110.738C288.421 123.119 298.007 165.591 298.007 165.591C298.007 165.591 308.692 182.046 300.835 197.718L274.907 207.278C271.921 211.667 269.878 216.995 269.249 221.697L324.092 202.107C324.092 202.107 329.121 197.718 327.549 188.472C325.821 178.755 336.821 149.762 345.935 150.232Z" fill="url(#paint10_linear_36_166)"/>
<path d="M219.907 228.906C218.492 229.063 217.078 229.533 215.664 230.003C214.407 230.63 213.149 231.413 212.207 232.354C211.264 233.451 210.635 234.548 210.164 235.958C209.849 236.585 209.849 237.369 209.535 237.996C209.378 238.779 209.378 239.406 209.221 240.19C209.064 239.406 209.064 238.779 209.064 237.996C209.064 237.212 209.064 236.428 209.378 235.645C209.692 234.078 210.478 232.667 211.421 231.413C212.521 230.316 213.935 229.376 215.349 228.906C216.764 228.749 218.335 228.749 219.907 228.906Z" fill="#6D6E71"/>
<path d="M204.192 234.861C204.035 233.294 204.349 231.57 204.821 230.16C205.292 228.592 206.235 227.182 207.649 226.085C209.064 224.988 210.949 224.518 212.521 224.831C213.307 224.831 214.092 225.301 214.878 225.458C215.664 225.771 216.292 226.242 216.921 226.712C216.135 226.555 215.349 226.398 214.564 226.242L213.464 226.085H212.835H212.207C210.792 226.085 209.378 226.555 208.278 227.339C207.178 228.122 206.235 229.376 205.607 230.63C205.135 231.883 204.664 233.294 204.192 234.861Z" fill="#6D6E71"/>
<path d="M456.249 197.562C454.521 197.718 452.949 198.189 451.692 199.129C450.435 200.069 449.806 201.48 449.335 202.89C448.864 204.457 448.706 206.025 449.021 207.435C449.335 208.846 450.592 209.943 452.321 210.413C451.535 210.57 450.592 210.413 449.649 209.943C448.864 209.472 448.078 208.689 447.764 207.905C446.978 206.025 447.292 204.144 447.764 202.42C448.235 200.696 449.335 198.972 450.906 198.032C452.792 197.248 454.678 197.092 456.249 197.562Z" fill="#4D4D4F"/>
<path d="M449.964 196.465C448.235 196.621 446.664 197.092 445.406 198.032C444.149 198.972 443.521 200.383 443.049 201.793C442.578 203.36 442.421 204.928 442.735 206.338C443.049 207.748 444.306 208.846 446.035 209.316C445.249 209.472 444.306 209.316 443.364 208.846C442.578 208.375 441.792 207.592 441.478 206.808C440.692 204.928 441.006 203.047 441.478 201.323C441.949 199.599 443.049 197.875 444.621 196.935C446.506 195.994 448.392 195.838 449.964 196.465Z" fill="#4D4D4F"/>
<path d="M246.149 90.0514C240.492 83.7826 227.607 76.7302 222.578 73.5958C219.907 72.0286 218.649 72.4987 218.178 73.2823L235.778 94.2829C235.778 94.2829 243.792 95.8501 248.821 96.477C248.821 94.5963 248.192 92.4022 246.149 90.0514Z" fill="url(#paint11_linear_36_166)"/>
<path d="M249.135 83.7826C243.006 76.5735 227.921 71.245 221.792 70.9315C215.664 70.6181 218.021 73.2823 218.021 73.2823L218.178 73.439C218.806 72.6554 219.906 72.0286 222.578 73.7525C227.606 76.8869 240.492 83.9393 246.149 90.2082C248.192 92.4022 248.821 94.753 248.664 96.7904C249.606 96.9471 250.392 96.9471 251.021 97.1039C255.106 97.2606 255.106 90.9918 249.135 83.7826Z" fill="black"/>
<path d="M262.964 82.3721C257.935 75.7898 251.649 70.1479 244.421 64.8194C239.864 61.2148 237.664 61.5282 236.878 62.782C236.878 64.9761 238.292 68.2672 239.864 72.0285C243.321 80.0213 251.178 92.2455 251.178 92.2455L264.849 97.7307C265.949 93.656 266.421 86.917 262.964 82.3721Z" fill="url(#paint12_linear_36_166)"/>
<path d="M274.906 87.5438C274.278 80.4914 251.178 64.6626 242.849 61.2147C238.449 59.4908 237.035 60.2744 237.035 62.782C237.821 61.5282 240.021 61.2147 244.578 64.8193C251.649 70.3045 257.935 75.7898 263.121 82.372C266.578 86.7602 265.949 93.4992 265.164 97.7306L274.592 101.649C274.592 101.649 275.378 94.5962 274.906 87.5438Z" fill="black"/>
<path d="M237.821 121.552C240.807 124.06 254.321 127.821 261.707 123.119C269.092 118.418 267.049 116.851 276.164 111.365C284.021 106.664 281.664 98.8278 283.392 100.865C282.292 99.4547 281.035 98.2009 279.778 96.9471C266.892 85.5065 243.321 89.8947 243.321 89.8947C243.321 89.8947 225.564 96.7904 221.164 104.626C216.764 112.462 227.135 115.44 227.135 115.44L232.478 119.358C232.478 119.201 234.992 119.045 237.821 121.552Z" fill="url(#paint13_linear_36_166)"/>
<path d="M226.978 115.283C229.807 115.283 232.164 112.933 232.164 110.112C232.164 107.291 229.807 104.94 226.978 104.94C224.149 104.94 221.792 107.291 221.792 110.112C221.792 112.933 224.149 115.283 226.978 115.283Z" fill="black"/>
<path d="M226.192 115.283C228.549 115.283 230.435 113.403 230.435 111.052C230.435 108.701 228.549 106.82 226.192 106.82C223.835 106.82 221.949 108.701 221.949 111.052C221.949 113.403 223.835 115.283 226.192 115.283Z" fill="white"/>
<path d="M283.549 100.865C281.821 98.9845 275.535 92.8724 267.678 97.574C258.407 103.059 264.849 109.485 257.464 114.186C250.078 118.888 240.964 116.067 237.978 113.56C234.992 111.052 231.378 112.933 231.378 112.933L226.978 115.283C226.978 115.283 204.192 130.172 198.535 134.09C192.878 138.008 196.021 140.672 196.021 140.672C207.649 155.404 223.364 149.919 223.364 149.919C222.107 151.643 226.349 151.643 225.249 152.74C223.364 154.62 226.664 156.344 226.664 156.344C231.221 157.285 232.321 153.993 232.321 153.993L233.892 153.053L264.692 134.874C290.464 131.739 292.664 112.933 283.549 100.865Z" fill="url(#paint14_linear_36_166)"/>
<path d="M246.778 112.149C250.597 112.149 253.692 109.062 253.692 105.253C253.692 101.445 250.597 98.3575 246.778 98.3575C242.959 98.3575 239.864 101.445 239.864 105.253C239.864 109.062 242.959 112.149 246.778 112.149Z" fill="black"/>
<path d="M245.678 111.679C248.976 111.679 251.649 109.013 251.649 105.723C251.649 102.434 248.976 99.7681 245.678 99.7681C242.38 99.7681 239.707 102.434 239.707 105.723C239.707 109.013 242.38 111.679 245.678 111.679Z" fill="white"/>
<path d="M244.107 111.365C245.929 111.365 247.407 109.892 247.407 108.074C247.407 106.257 245.929 104.783 244.107 104.783C242.284 104.783 240.807 106.257 240.807 108.074C240.807 109.892 242.284 111.365 244.107 111.365Z" fill="black"/>
<path d="M225.721 115.283C227.283 115.283 228.549 114.02 228.549 112.462C228.549 110.904 227.283 109.641 225.721 109.641C224.159 109.641 222.892 110.904 222.892 112.462C222.892 114.02 224.159 115.283 225.721 115.283Z" fill="black"/>
<path d="M219.435 103.843C220.849 102.746 222.578 101.962 224.464 101.962C225.406 101.962 226.349 102.276 227.135 102.746C227.921 103.216 228.549 104 228.864 104.783C228.078 104.313 227.449 103.843 226.664 103.529C225.878 103.216 225.092 103.216 224.306 103.216C223.521 103.216 222.735 103.216 221.949 103.373C221.164 103.529 220.378 103.529 219.435 103.843Z" fill="black"/>
<path d="M239.235 95.5366C240.178 93.8126 241.907 92.5589 243.792 92.0887C244.735 91.932 245.835 91.932 246.778 92.4022C247.721 92.7156 248.507 93.4992 248.978 94.2828C248.192 93.8127 247.407 93.4992 246.464 93.3425C245.678 93.1858 244.735 93.1858 243.949 93.3425C243.164 93.4992 242.378 93.8127 241.435 94.2828C240.807 94.5963 240.021 95.0664 239.235 95.5366Z" fill="black"/>
<path d="M260.764 130.955C260.764 130.955 263.592 131.739 262.964 134.247C262.335 136.754 258.092 137.224 258.092 137.224C258.092 137.224 261.235 138.948 263.435 136.284C265.635 133.62 262.021 130.955 260.764 130.955Z" fill="#808285"/>
<path d="M224.464 152.896C224.307 153.053 224.149 153.053 224.149 153.053C224.149 153.053 224.307 153.21 224.464 152.896Z" fill="black"/>
<path d="M255.421 135.03C255.421 134.873 255.421 134.56 255.264 134.403C254.478 133.15 252.121 134.717 252.121 134.717L220.849 150.545C221.007 151.956 225.721 152.426 225.564 152.583C228.392 150.859 248.978 138.635 251.807 137.224C252.278 137.068 252.592 136.754 252.907 136.597C253.221 136.911 253.692 137.224 254.164 137.224C255.107 137.224 255.735 136.597 255.735 135.657C255.578 135.5 255.421 135.187 255.421 135.03Z" fill="black"/>
<path d="M216.764 139.418C217.111 139.418 217.392 139.138 217.392 138.791C217.392 138.445 217.111 138.165 216.764 138.165C216.417 138.165 216.135 138.445 216.135 138.791C216.135 139.138 216.417 139.418 216.764 139.418Z" fill="black"/>
<path d="M222.107 140.515C222.454 140.515 222.735 140.235 222.735 139.888C222.735 139.542 222.454 139.262 222.107 139.262C221.759 139.262 221.478 139.542 221.478 139.888C221.478 140.235 221.759 140.515 222.107 140.515Z" fill="black"/>
<path d="M227.135 137.381C227.482 137.381 227.764 137.1 227.764 136.754C227.764 136.408 227.482 136.127 227.135 136.127C226.788 136.127 226.507 136.408 226.507 136.754C226.507 137.1 226.788 137.381 227.135 137.381Z" fill="black"/>
<path d="M222.264 135.5C222.611 135.5 222.892 135.22 222.892 134.873C222.892 134.527 222.611 134.247 222.264 134.247C221.917 134.247 221.635 134.527 221.635 134.873C221.635 135.22 221.917 135.5 222.264 135.5Z" fill="black"/>
<path d="M226.978 132.209C227.325 132.209 227.607 131.929 227.607 131.582C227.607 131.236 227.325 130.955 226.978 130.955C226.631 130.955 226.349 131.236 226.349 131.582C226.349 131.929 226.631 132.209 226.978 132.209Z" fill="black"/>
<path d="M204.349 134.09C204.349 134.09 202.778 131.269 196.335 135.344C187.849 140.515 194.135 144.433 199.635 143.023C205.135 141.612 205.764 135.5 204.349 134.09Z" fill="black"/>
<path d="M194.764 138.635C194.764 138.635 201.364 134.09 202.307 135.5C203.249 136.911 194.764 138.635 194.764 138.635Z" fill="white"/>
<path d="M231.849 99.6114L231.692 99.298L233.264 98.2009L233.421 98.5144L231.849 99.6114Z" fill="#414042"/>
<path d="M234.049 101.492H233.735C233.892 100.708 234.521 99.9248 235.307 99.6113L235.464 99.9248C234.678 100.238 234.207 100.865 234.049 101.492Z" fill="#414042"/>
<path d="M259.978 95.0664H256.835V95.3798H259.978V95.0664Z" fill="#414042"/>
<path d="M258.407 93.1858C257.149 92.7157 255.578 92.5589 254.321 92.8724L254.164 92.5589C255.578 92.2455 257.149 92.4022 258.564 92.8724L258.407 93.1858Z" fill="#414042"/>
<path d="M285.592 93.3425L281.035 92.7156V92.2455L285.749 93.0291L285.592 93.3425Z" fill="#414042"/>
<path d="M284.178 89.2678H279.935V89.5813H284.178V89.2678Z" fill="#414042"/>
<path d="M284.806 86.1334C283.392 85.0363 281.349 84.8796 279.621 85.6632L279.464 85.3498C281.192 84.4094 283.392 84.7229 284.964 85.8199L284.806 86.1334Z" fill="#414042"/>
<path d="M292.349 100.708C292.192 100.708 292.192 100.708 292.035 100.708L288.264 99.6113L288.421 99.2979L292.192 100.395C292.192 100.238 292.192 100.238 292.349 100.238C292.507 100.081 292.664 100.238 292.821 100.238C292.978 100.395 292.978 100.552 292.821 100.552C292.664 100.552 292.507 100.708 292.349 100.708ZM292.349 100.238C292.349 100.238 292.349 100.395 292.349 100.238C292.349 100.395 292.349 100.395 292.349 100.238C292.507 100.238 292.507 100.238 292.349 100.238Z" fill="#414042"/>
<path d="M293.449 96.4769L290.307 95.5366L290.464 95.2231L293.607 96.0067L293.449 96.4769Z" fill="#414042"/>
<path d="M295.021 90.6782C294.078 90.2081 292.978 90.0514 292.035 90.0514V89.7379C293.135 89.7379 294.235 89.8946 295.178 90.3648L295.021 90.6782Z" fill="#414042"/>
<path d="M299.892 87.3871C298.635 86.917 297.378 86.4468 296.121 85.9766L296.278 85.6632C297.535 86.1334 298.792 86.6035 300.049 87.0737L299.892 87.3871Z" fill="#414042"/>
<path d="M298.792 105.567C297.692 105.567 296.592 105.253 295.649 104.783L295.807 104.47C296.749 104.94 297.692 105.253 298.792 105.253V105.567Z" fill="#414042"/>
<path d="M303.978 97.8874L300.364 96.7904L300.521 96.4769L304.135 97.574L303.978 97.8874Z" fill="#414042"/>
<path d="M311.049 93.3426C309.635 93.3426 308.064 92.7157 307.121 91.7754L307.435 91.4619C308.378 92.4022 309.792 93.0291 311.207 93.0291C311.364 93.0291 311.364 93.0291 311.521 93.0291V93.3426C311.207 93.3426 311.049 93.3426 311.049 93.3426Z" fill="#414042"/>
<path d="M316.078 90.9917C314.349 89.738 312.307 88.6409 310.264 88.1707L310.421 87.8573C312.621 88.4842 314.664 89.4245 316.392 90.835L316.078 90.9917Z" fill="#414042"/>
<path d="M333.835 104.626C332.106 104.47 330.378 103.686 328.964 102.589L329.278 102.276C330.535 103.373 332.264 104 333.835 104.156V104.626Z" fill="#414042"/>
<path d="M335.406 100.238C333.049 99.9247 330.849 98.9844 328.964 97.5739L329.278 97.2605C331.006 98.671 333.206 99.6113 335.406 99.9247V100.238Z" fill="#414042"/>
<path d="M343.735 109.485C341.849 109.171 339.964 108.388 338.392 107.291L338.549 106.977C340.121 108.074 341.849 108.701 343.735 109.015V109.485Z" fill="#414042"/>
<path d="M343.264 101.805C340.592 101.805 337.921 100.708 335.878 99.1412L336.192 98.8278C338.235 100.395 340.749 101.335 343.421 101.492L343.264 101.805Z" fill="#414042"/>
<path d="M349.392 106.977C347.978 105.88 346.249 105.41 344.521 105.41C344.364 105.41 344.364 105.41 344.207 105.41V105.097C344.364 105.097 344.364 105.097 344.521 105.097C346.407 105.097 348.135 105.723 349.549 106.82L349.392 106.977Z" fill="#414042"/>
<path d="M353.478 99.9248C351.906 99.9248 350.335 99.6113 349.078 98.8277L349.235 98.5143C351.121 99.4546 353.321 99.768 355.364 99.4546L355.521 99.7681C354.892 99.9248 354.264 99.9248 353.478 99.9248Z" fill="#414042"/>
<path d="M361.649 109.641H356.464V109.955H361.649V109.641Z" fill="#414042"/>
<path d="M358.035 118.575C356.307 118.575 354.421 118.418 352.692 117.948L352.849 117.634C355.364 118.104 358.035 118.261 360.707 118.104V118.418C359.764 118.418 358.821 118.575 358.035 118.575Z" fill="#414042"/>
<path d="M359.607 131.426C358.349 131.426 357.092 131.269 355.835 130.799L355.992 130.485C357.721 131.112 359.764 131.269 361.649 130.956L361.807 131.269C361.021 131.426 360.235 131.426 359.607 131.426Z" fill="#414042"/>
<path d="M362.278 140.515H356.464V140.829H362.278V140.515Z" fill="#414042"/>
<path d="M358.192 127.194C356.464 127.194 354.735 126.881 353.321 126.097L353.478 125.784C355.049 126.411 356.935 126.881 358.664 126.724V127.037C358.349 127.194 358.349 127.194 358.192 127.194Z" fill="#414042"/>
<path d="M375.949 134.717L375.792 134.403C377.992 133.306 379.878 131.896 381.607 130.329L381.921 130.642C380.035 132.209 378.149 133.62 375.949 134.717Z" fill="#414042"/>
<path d="M371.706 123.746L371.549 123.433L375.164 121.239L375.321 121.552L371.706 123.746Z" fill="#414042"/>
<path d="M379.505 100.319L374.137 103.872L374.398 104.264L379.766 100.711L379.505 100.319Z" fill="#414042"/>
<path d="M382.235 113.716L381.921 113.403L385.692 109.798L386.007 110.112L382.235 113.716Z" fill="#414042"/>
<path d="M388.049 97.1038L387.892 96.7904C389.778 96.0068 391.192 94.1261 391.349 92.0887H391.664C391.507 94.2828 389.935 96.1635 388.049 97.1038Z" fill="#414042"/>
<path d="M388.193 82.9861L383.613 86.8076L383.815 87.048L388.395 83.2264L388.193 82.9861Z" fill="#414042"/>
<path d="M398.892 105.253L398.578 105.097C399.678 103.216 400.778 101.179 401.406 98.9845L401.721 99.1412C401.092 101.179 400.149 103.216 398.892 105.253Z" fill="#414042"/>
<path d="M399.992 86.4468L399.835 86.1334C401.407 85.1931 402.349 83.4691 402.507 81.5885H402.821C402.664 83.6259 401.564 85.5065 399.992 86.4468Z" fill="#414042"/>
<path d="M399.678 72.4986L399.364 72.1852L402.821 66.8567L403.135 67.0134L399.678 72.4986Z" fill="#414042"/>
<path d="M407.378 73.439L407.064 73.1256C408.321 72.0285 408.792 70.1479 408.478 68.5807H408.792C409.264 70.3046 408.635 72.1853 407.378 73.439Z" fill="#414042"/>
<path d="M412.564 49.9309L412.249 49.6175C413.821 48.3637 415.235 46.6398 416.335 44.9159L416.649 45.0726C415.707 46.9533 414.292 48.6772 412.564 49.9309Z" fill="#414042"/>
<path d="M360.864 98.3576C360.706 98.3576 360.706 98.3576 360.549 98.3576V98.0442C362.278 98.2009 364.164 97.2606 365.106 95.6934L365.421 95.8501C364.478 97.4173 362.749 98.3576 360.864 98.3576Z" fill="#414042"/>
<path d="M370.607 8.87012L370.449 8.55667C370.449 8.55667 370.449 8.55668 370.292 8.39995C370.135 8.24323 369.821 8.08651 369.507 8.08651L363.692 8.39995V8.08651L369.507 7.77307C369.978 7.77307 370.607 8.24323 370.607 8.55667C370.921 8.55667 370.764 8.71339 370.607 8.87012Z" fill="#414042"/>
<path d="M390.407 11.8479L385.221 10.7508V10.4374L390.564 11.5344L390.407 11.8479Z" fill="#414042"/>
<path d="M408.321 17.8032L402.978 14.3553L403.135 14.0419L408.635 17.4897L408.321 17.8032Z" fill="#414042"/>
<path d="M416.214 22.3987L415.993 22.6215L419.12 25.709L419.341 25.4863L416.214 22.3987Z" fill="#414042"/>
<path d="M308.535 164.807C306.964 161.829 305.706 158.695 304.921 155.247L305.235 155.09C306.021 158.382 307.121 161.516 308.849 164.494L308.535 164.807Z" fill="#414042"/>
<path d="M307.435 148.038C306.492 145.531 306.178 142.71 306.492 140.045H306.807C306.492 142.71 306.807 145.374 307.749 147.725L307.435 148.038Z" fill="#414042"/>
<path d="M315.135 153.21L314.506 146.941H314.978L315.449 153.21H315.135Z" fill="#414042"/>
<path d="M314.339 127.5L312.748 133.24L313.051 133.324L314.642 127.584L314.339 127.5Z" fill="#414042"/>
<path d="M314.409 118.196L311.28 121.282L311.501 121.505L314.63 118.419L314.409 118.196Z" fill="#414042"/>
<path d="M327.706 122.022L327.392 121.866C328.178 120.612 329.749 119.985 331.321 120.142V120.455C329.906 120.298 328.492 120.925 327.706 122.022Z" fill="#414042"/>
<path d="M322.364 141.769C321.735 139.418 322.835 136.911 324.878 135.657L325.035 135.971C323.149 137.068 322.206 139.575 322.678 141.612L322.364 141.769Z" fill="#414042"/>
<path d="M329.574 147.329L326.569 152.656L326.98 152.887L329.985 147.559L329.574 147.329Z" fill="#414042"/>
<path d="M335.878 135.657C335.564 135.5 335.564 135.187 335.564 134.873C335.721 134.403 336.035 134.09 336.506 133.933C336.821 133.933 336.978 133.933 337.292 134.247L336.978 134.403C336.978 134.247 336.821 134.247 336.664 134.247C336.349 134.247 336.192 134.56 336.035 134.873C336.035 135.03 336.035 135.187 336.192 135.187L335.878 135.657Z" fill="#414042"/>
<path d="M322.207 175.778C321.892 173.897 322.521 171.86 323.778 170.449L324.092 170.763C322.835 172.173 322.364 174.054 322.678 175.778H322.207Z" fill="#414042"/>
<path d="M281.313 169.743L279.758 171.294L280.091 171.627L281.647 170.075L281.313 169.743Z" fill="#414042"/>
<path d="M284.178 159.479C284.178 159.009 284.178 158.538 284.492 158.225C284.807 157.911 285.278 157.598 285.592 157.598V157.911C285.278 157.911 284.964 158.068 284.649 158.382C284.335 158.695 284.335 159.009 284.335 159.322L284.178 159.479Z" fill="#414042"/>
<path d="M289.992 174.21L289.678 173.897C290.621 172.8 291.407 171.859 292.349 170.762L292.664 171.076C291.721 172.173 290.935 173.113 289.992 174.21Z" fill="#414042"/>
<path d="M287.949 165.434L287.792 165.277L287.635 165.121L290.149 162.613L289.678 163.553C289.364 164.337 288.735 165.121 287.949 165.434Z" fill="#414042"/>
<path d="M257.464 97.4173L257.307 97.1038L260.449 95.3799L260.607 95.85L257.464 97.4173Z" fill="#414042"/>
<path d="M284.335 90.835C283.549 90.835 282.764 90.6783 281.978 90.2081L282.135 89.8947C283.078 90.3648 284.178 90.5215 285.121 90.3648V90.6783C284.964 90.6783 284.649 90.835 284.335 90.835Z" fill="black"/>
<path d="M291.878 85.0364H288.264V85.3498H291.878V85.0364Z" fill="black"/>
<path d="M290.778 98.5143C289.678 98.0441 288.421 97.8874 287.164 98.0442V97.7307C288.421 97.574 289.678 97.8874 290.935 98.3576L290.778 98.5143Z" fill="black"/>
<path d="M298.792 92.8724L295.649 91.7754V91.4619L298.792 92.4022V92.8724Z" fill="black"/>
<path d="M306.14 86.7404L306.074 87.0469L308.685 87.6074L308.752 87.301L306.14 86.7404Z" fill="black"/>
<path d="M298.635 108.231L296.121 107.447L296.278 106.977L298.792 107.761L298.635 108.231Z" fill="black"/>
<path d="M309.321 98.3575C308.221 98.0441 307.121 97.8874 306.178 97.5739L306.335 97.2605C307.435 97.5739 308.535 97.7307 309.478 98.0441L309.321 98.3575Z" fill="black"/>
<path d="M324.407 94.753C324.092 93.9694 323.307 93.4992 322.364 93.3425V93.0291C323.307 93.0291 324.249 93.6559 324.721 94.5963L324.407 94.753Z" fill="black"/>
<path d="M323.391 99.7289L323.274 100.184L325.404 100.731L325.522 100.276L323.391 99.7289Z" fill="black"/>
<path d="M340.252 96.3705L340.146 96.8286L345.351 98.0297L345.457 97.5716L340.252 96.3705Z" fill="black"/>
<path d="M349.549 117.007L345.778 115.91L345.935 115.44L349.549 116.537V117.007Z" fill="black"/>
<path d="M345.935 105.41L342.321 104.783V104.313L345.935 105.097V105.41Z" fill="black"/>
<path d="M358.035 150.075C357.878 150.075 357.721 150.075 357.564 150.075C356.935 149.919 356.464 149.605 356.307 149.135L356.621 148.978C356.778 149.292 357.249 149.605 357.721 149.762C358.192 149.919 358.664 149.762 358.978 149.605L359.135 149.919C358.821 150.075 358.507 150.075 358.035 150.075Z" fill="black"/>
<path d="M284.178 209.316L284.021 209.002L285.121 208.375L285.278 208.689L284.178 209.316Z" fill="black"/>
<path d="M298.007 204.928H297.692C297.849 203.987 298.478 203.047 299.421 202.577L299.578 202.89C298.635 203.36 298.007 204.144 298.007 204.928Z" fill="black"/>
<path d="M311.049 197.092C310.892 196.308 311.521 195.524 312.464 195.368V195.681C311.835 195.838 311.364 196.465 311.364 196.935L311.049 197.092Z" fill="black"/>
<path d="M309.321 182.517H309.006V184.554H309.321V182.517Z" fill="black"/>
<path d="M321.421 181.419H321.106V182.516H321.421V181.419Z" fill="black"/>
<path d="M314.664 174.681H314.349V176.248H314.664V174.681Z" fill="black"/>
<path d="M233.578 102.119L233.264 101.962L234.364 99.9248L234.678 100.082L233.578 102.119Z" fill="black"/>
<path d="M252.435 92.4023C251.964 92.4023 251.649 92.2455 251.335 91.9321L251.649 91.6187C251.964 91.9321 252.749 92.0888 253.064 91.7754L253.221 92.0888C252.907 92.2455 252.592 92.4023 252.435 92.4023Z" fill="black"/>
<path d="M430.949 106.35C430.164 104.94 430.635 103.059 431.735 101.962L432.049 102.276C430.949 103.216 430.792 104.94 431.421 106.194L430.949 106.35Z" fill="black"/>
<path d="M433.778 120.769C433.778 119.358 434.092 117.791 434.878 116.537L435.192 116.694C434.407 117.948 434.092 119.358 434.092 120.769H433.778Z" fill="black"/>
<path d="M440.378 106.82L440.064 106.664C440.535 106.037 440.692 105.097 440.535 104.156L440.849 104C441.164 104.94 440.849 106.037 440.378 106.82Z" fill="black"/>
<path d="M439.278 95.8501L438.964 95.5366C439.435 95.0665 439.592 94.2829 439.435 93.656H439.749C440.064 94.4396 439.749 95.2232 439.278 95.8501Z" fill="black"/>
<path d="M443.049 78.6108L442.578 78.454L444.778 74.6927L445.092 75.0062L443.049 78.6108Z" fill="black"/>
<path d="M451.849 81.7452L451.692 81.4318C452.635 80.8049 453.264 79.7079 453.264 78.4541H453.578C453.578 79.7079 452.949 81.1184 451.849 81.7452Z" fill="black"/>
<path d="M449.964 66.0732L449.649 65.9164L450.121 64.3492L450.435 64.506L449.964 66.0732Z" fill="black"/>
<path d="M422.464 77.9839H422.149V81.5885H422.464V77.9839Z" fill="black"/>
<path d="M422.149 64.9761C422.149 63.7224 422.464 62.3119 423.249 61.2148L423.564 61.3716C422.935 62.4686 422.464 63.7224 422.464 64.9761H422.149Z" fill="black"/>
<path d="M427.753 61.7934L426.178 65.8906L426.619 66.0589L428.193 61.9616L427.753 61.7934Z" fill="black"/>
<path d="M430.478 50.4011L430.321 50.2444H430.164C430.478 49.3041 430.949 48.5205 431.735 47.8936L432.678 47.11L430.478 50.4011Z" fill="black"/>
<path d="M435.507 47.4234V47.1099C435.821 47.1099 436.135 46.9532 436.292 46.6398C436.449 46.3263 436.449 46.0129 436.449 45.8562L436.764 45.6995C436.921 46.0129 436.921 46.4831 436.607 46.9532C436.292 47.1099 435.978 47.4234 435.507 47.4234Z" fill="black"/>
<defs>
<linearGradient id="paint0_linear_36_166" x1="-0.00443671" y1="215.257" x2="491.336" y2="215.257" gradientUnits="userSpaceOnUse">
<stop stop-color="#26623C"/>
<stop offset="0.3381" stop-color="#4BB750"/>
<stop offset="0.9959" stop-color="#654EA0"/>
</linearGradient>
<linearGradient id="paint1_linear_36_166" x1="19.7513" y1="229.386" x2="174.649" y2="229.386" gradientUnits="userSpaceOnUse">
<stop offset="0.031851" stop-color="#603913"/>
<stop offset="0.1711" stop-color="#A97C50"/>
<stop offset="0.6011" stop-color="#A97C50"/>
<stop offset="1" stop-color="#603913"/>
</linearGradient>
<linearGradient id="paint2_linear_36_166" x1="74.4202" y1="255.921" x2="119.156" y2="178.227" gradientUnits="userSpaceOnUse">
<stop offset="0.2992" stop-color="#FDBB33"/>
<stop offset="0.9955" stop-color="#F9E932"/>
</linearGradient>
<linearGradient id="paint3_linear_36_166" x1="231.85" y1="163.161" x2="324.721" y2="163.161" gradientUnits="userSpaceOnUse">
<stop stop-color="#58595B"/>
<stop offset="0.0281486" stop-color="#4C4C4E"/>
<stop offset="0.0631611" stop-color="#414042"/>
<stop offset="0.7757"/>
</linearGradient>
<linearGradient id="paint4_linear_36_166" x1="322.476" y1="20.5941" x2="353.599" y2="20.5941" gradientUnits="userSpaceOnUse">
<stop stop-color="#A7A9AC"/>
<stop offset="0.1353" stop-color="#A7A9AC"/>
<stop offset="0.9266" stop-color="#D1D3D4"/>
</linearGradient>
<linearGradient id="paint5_linear_36_166" x1="347.349" y1="17.7111" x2="423.612" y2="17.7111" gradientUnits="userSpaceOnUse">
<stop offset="0.0714143" stop-color="#58595B"/>
<stop offset="0.2165" stop-color="#4C4C4E"/>
<stop offset="0.397" stop-color="#414042"/>
<stop offset="1"/>
</linearGradient>
<linearGradient id="paint6_linear_36_166" x1="240.594" y1="94.9141" x2="443.278" y2="94.9141" gradientUnits="userSpaceOnUse">
<stop offset="0.0714143" stop-color="#58595B"/>
<stop offset="0.2165" stop-color="#4C4C4E"/>
<stop offset="0.397" stop-color="#414042"/>
<stop offset="1"/>
</linearGradient>
<linearGradient id="paint7_linear_36_166" x1="410.814" y1="74.9758" x2="453.578" y2="74.9758" gradientUnits="userSpaceOnUse">
<stop offset="0.0714143" stop-color="#58595B"/>
<stop offset="0.2165" stop-color="#4C4C4E"/>
<stop offset="0.397" stop-color="#414042"/>
<stop offset="1"/>
</linearGradient>
<linearGradient id="paint8_linear_36_166" x1="259.038" y1="141.557" x2="411.267" y2="141.557" gradientUnits="userSpaceOnUse">
<stop offset="0.1788" stop-color="#808285"/>
<stop offset="0.2993" stop-color="#999B9E"/>
<stop offset="1" stop-color="white"/>
</linearGradient>
<linearGradient id="paint9_linear_36_166" x1="444.617" y1="150.879" x2="444.617" y2="40.5015" gradientUnits="userSpaceOnUse">
<stop offset="0.0714143" stop-color="#58595B"/>
<stop offset="0.2165" stop-color="#4C4C4E"/>
<stop offset="0.397" stop-color="#414042"/>
<stop offset="1"/>
</linearGradient>
<linearGradient id="paint10_linear_36_166" x1="308.53" y1="221.548" x2="308.53" y2="106.349" gradientUnits="userSpaceOnUse">
<stop offset="0.0714143" stop-color="#58595B"/>
<stop offset="0.2165" stop-color="#4C4C4E"/>
<stop offset="0.397" stop-color="#414042"/>
<stop offset="1"/>
</linearGradient>
<linearGradient id="paint11_linear_36_166" x1="225.027" y1="69.1335" x2="242.814" y2="100.025" gradientUnits="userSpaceOnUse">
<stop stop-color="#9A807F"/>
<stop offset="0.2276" stop-color="#997F7E"/>
<stop offset="0.3095" stop-color="#96797A"/>
<stop offset="0.3677" stop-color="#906F74"/>
<stop offset="0.3952" stop-color="#8C686F"/>
<stop offset="0.5948" stop-color="#87606A"/>
<stop offset="0.6367" stop-color="#875966"/>
<stop offset="0.7205" stop-color="#874D60"/>
<stop offset="0.8074" stop-color="#87445C"/>
<stop offset="0.8984" stop-color="#863D5A"/>
<stop offset="1" stop-color="#863B59"/>
</linearGradient>
<linearGradient id="paint12_linear_36_166" x1="241.362" y1="60.0464" x2="263.59" y2="98.6495" gradientUnits="userSpaceOnUse">
<stop stop-color="#9A807F"/>
<stop offset="0.2276" stop-color="#997F7E"/>
<stop offset="0.3095" stop-color="#96797A"/>
<stop offset="0.3677" stop-color="#906F74"/>
<stop offset="0.3952" stop-color="#8C686F"/>
<stop offset="0.5948" stop-color="#87606A"/>
<stop offset="0.6367" stop-color="#875966"/>
<stop offset="0.7205" stop-color="#874D60"/>
<stop offset="0.8074" stop-color="#87445C"/>
<stop offset="0.8984" stop-color="#863D5A"/>
<stop offset="1" stop-color="#863B59"/>
</linearGradient>
<linearGradient id="paint13_linear_36_166" x1="220.137" y1="107.245" x2="283.574" y2="107.245" gradientUnits="userSpaceOnUse">
<stop offset="0.0714143" stop-color="#58595B"/>
<stop offset="0.2165" stop-color="#4C4C4E"/>
<stop offset="0.397" stop-color="#414042"/>
<stop offset="1"/>
</linearGradient>
<linearGradient id="paint14_linear_36_166" x1="195.195" y1="126.221" x2="288.469" y2="126.221" gradientUnits="userSpaceOnUse">
<stop stop-color="#A7A9AC"/>
<stop offset="0.1353" stop-color="#A7A9AC"/>
<stop offset="0.7039" stop-color="white"/>
<stop offset="1" stop-color="#A7A9AC"/>
</linearGradient>
</defs>
</svg>
