<svg width="472" height="263" viewBox="0 0 472 263" fill="none" xmlns="http://www.w3.org/2000/svg">
<path d="M463.263 222.867H352.311C347.695 222.867 344.068 219.235 344.068 214.612V65.5394C344.068 60.9169 347.695 57.285 352.311 57.285H463.263C467.88 57.285 471.507 60.9169 471.507 65.5394V214.612C471.507 219.235 467.715 222.867 463.263 222.867Z" fill="url(#paint0_linear_88_835)"/>
<path d="M368.468 82.5432H365.995V85.8449H368.468V82.5432Z" fill="black"/>
<path d="M449.085 85.8449H443.974V82.5432H449.085V85.8449ZM439.029 85.8449H433.918V82.5432H439.029V85.8449ZM428.972 85.8449H423.861V82.5432H428.972V85.8449ZM418.915 85.8449H413.805V82.5432H418.915V85.8449ZM408.694 85.8449H403.583V82.5432H408.694V85.8449ZM398.637 85.8449H393.691V82.5432H398.802V85.8449H398.637ZM388.581 85.8449H383.47V82.5432H388.581V85.8449ZM378.524 85.8449H373.413V82.5432H378.524V85.8449Z" fill="black"/>
<path d="M456.669 82.5432H454.196V85.8449H456.669V82.5432Z" fill="black"/>
<path d="M368.468 95.2549H365.995V98.5566H368.468V95.2549Z" fill="black"/>
<path d="M449.085 98.5566H443.974V95.2549H449.085V98.5566ZM439.029 98.5566H433.918V95.2549H439.029V98.5566ZM428.972 98.5566H423.861V95.2549H428.972V98.5566ZM418.915 98.5566H413.805V95.2549H418.915V98.5566ZM408.694 98.5566H403.583V95.2549H408.694V98.5566ZM398.637 98.5566H393.691V95.2549H398.802V98.5566H398.637ZM388.581 98.5566H383.47V95.2549H388.581V98.5566ZM378.524 98.5566H373.413V95.2549H378.524V98.5566Z" fill="black"/>
<path d="M456.669 95.2549H454.196V98.5566H456.669V95.2549Z" fill="black"/>
<path d="M368.468 121.173H365.995V124.475H368.468V121.173Z" fill="black"/>
<path d="M449.085 124.475H443.974V121.173H449.085V124.475ZM439.029 124.475H433.918V121.173H439.029V124.475ZM428.972 124.475H423.861V121.173H428.972V124.475ZM418.915 124.475H413.805V121.173H418.915V124.475ZM408.694 124.475H403.583V121.173H408.694V124.475ZM398.637 124.475H393.691V121.173H398.802V124.475H398.637ZM388.581 124.475H383.47V121.173H388.581V124.475ZM378.524 124.475H373.413V121.173H378.524V124.475Z" fill="black"/>
<path d="M456.669 121.173H454.196V124.475H456.669V121.173Z" fill="black"/>
<path d="M368.468 129.923H365.995V133.225H368.468V129.923Z" fill="black"/>
<path d="M449.085 133.225H443.974V129.923H449.085V133.225ZM439.029 133.225H433.918V129.923H439.029V133.225ZM428.972 133.225H423.861V129.923H428.972V133.225ZM418.915 133.225H413.805V129.923H418.915V133.225ZM408.694 133.225H403.583V129.923H408.694V133.225ZM398.637 133.225H393.691V129.923H398.802V133.225H398.637ZM388.581 133.225H383.47V129.923H388.581V133.225ZM378.524 133.225H373.413V129.923H378.524V133.225Z" fill="black"/>
<path d="M456.669 129.923H454.196V133.225H456.669V129.923Z" fill="black"/>
<path d="M368.468 105.655H365.995V108.957H368.468V105.655Z" fill="black"/>
<path d="M449.085 108.957H443.974V105.655H449.085V108.957ZM439.029 108.957H433.918V105.655H439.029V108.957ZM428.972 108.957H423.861V105.655H428.972V108.957ZM418.915 108.957H413.805V105.655H418.915V108.957ZM408.694 108.957H403.583V105.655H408.694V108.957ZM398.637 108.957H393.691V105.655H398.802V108.957H398.637ZM388.581 108.957H383.47V105.655H388.581V108.957ZM378.524 108.957H373.413V105.655H378.524V108.957Z" fill="black"/>
<path d="M456.669 105.655H454.196V108.957H456.669V105.655Z" fill="black"/>
<path d="M368.468 165.086H365.995V168.388H368.468V165.086Z" fill="black"/>
<path d="M449.085 168.388H443.974V165.086H449.085V168.388ZM439.029 168.388H433.918V165.086H439.029V168.388ZM428.972 168.388H423.861V165.086H428.972V168.388ZM418.915 168.388H413.805V165.086H418.915V168.388ZM408.694 168.388H403.583V165.086H408.694V168.388ZM398.637 168.388H393.691V165.086H398.802V168.388H398.637ZM388.581 168.388H383.47V165.086H388.581V168.388ZM378.524 168.388H373.413V165.086H378.524V168.388Z" fill="black"/>
<path d="M456.669 165.086H454.196V168.388H456.669V165.086Z" fill="black"/>
<path d="M368.468 138.177H365.995V141.479H368.468V138.177Z" fill="black"/>
<path d="M449.085 141.479H443.974V138.177H449.085V141.479ZM439.029 141.479H433.918V138.177H439.029V141.479ZM428.972 141.479H423.861V138.177H428.972V141.479ZM418.915 141.479H413.805V138.177H418.915V141.479ZM408.694 141.479H403.583V138.177H408.694V141.479ZM398.637 141.479H393.691V138.177H398.802V141.479H398.637ZM388.581 141.479H383.47V138.177H388.581V141.479ZM378.524 141.479H373.413V138.177H378.524V141.479Z" fill="black"/>
<path d="M456.669 138.177H454.196V141.479H456.669V138.177Z" fill="black"/>
<path d="M368.468 150.889H365.995V154.191H368.468V150.889Z" fill="black"/>
<path d="M449.085 154.191H443.974V150.889H449.085V154.191ZM439.029 154.191H433.918V150.889H439.029V154.191ZM428.972 154.191H423.861V150.889H428.972V154.191ZM418.915 154.191H413.805V150.889H418.915V154.191ZM408.694 154.191H403.583V150.889H408.694V154.191ZM398.637 154.191H393.691V150.889H398.802V154.191H398.637ZM388.581 154.191H383.47V150.889H388.581V154.191ZM378.524 154.191H373.413V150.889H378.524V154.191Z" fill="black"/>
<path d="M456.669 150.889H454.196V154.191H456.669V150.889Z" fill="black"/>
<path d="M368.468 176.642H365.995V179.944H368.468V176.642Z" fill="black"/>
<path d="M449.085 179.944H443.974V176.642H449.085V179.944ZM439.029 179.944H433.918V176.642H439.029V179.944ZM428.972 179.944H423.861V176.642H428.972V179.944ZM418.915 179.944H413.805V176.642H418.915V179.944ZM408.694 179.944H403.583V176.642H408.694V179.944ZM398.637 179.944H393.691V176.642H398.802V179.944H398.637ZM388.581 179.944H383.47V176.642H388.581V179.944ZM378.524 179.944H373.413V176.642H378.524V179.944Z" fill="black"/>
<path d="M456.669 176.642H454.196V179.944H456.669V176.642Z" fill="black"/>
<path d="M368.468 189.849H365.995V193.151H368.468V189.849Z" fill="black"/>
<path d="M449.085 193.151H443.974V189.849H449.085V193.151ZM439.029 193.151H433.918V189.849H439.029V193.151ZM428.972 193.151H423.861V189.849H428.972V193.151ZM418.915 193.151H413.805V189.849H418.915V193.151ZM408.694 193.151H403.583V189.849H408.694V193.151ZM398.637 193.151H393.691V189.849H398.802V193.151H398.637ZM388.581 193.151H383.47V189.849H388.581V193.151ZM378.524 193.151H373.413V189.849H378.524V193.151Z" fill="black"/>
<path d="M456.669 189.849H454.196V193.151H456.669V189.849Z" fill="black"/>
<path d="M361.708 191.5H243.831C238.721 191.5 234.599 187.373 234.599 182.255V9.24484C234.599 4.12716 238.721 0 243.831 0H361.708C366.819 0 370.94 4.12716 370.94 9.24484V182.421C370.94 187.373 366.819 191.5 361.708 191.5Z" fill="#A7A9AC"/>
<path d="M260.977 29.3854H258.174V33.0173H260.977V29.3854Z" fill="black"/>
<path d="M346.87 33.0173H341.43V29.3854H346.87V33.0173ZM336.154 33.0173H330.714V29.3854H336.154V33.0173ZM325.438 33.0173H319.998V29.3854H325.438V33.0173ZM314.557 33.0173H309.117V29.3854H314.557V33.0173ZM303.841 33.0173H298.401V29.3854H303.841V33.0173ZM293.125 33.0173H287.685V29.3854H293.125V33.0173ZM282.409 33.0173H276.969V29.3854H282.409V33.0173ZM271.528 33.0173H266.088V29.3854H271.528V33.0173Z" fill="black"/>
<path d="M355.113 29.3854H352.311V33.0173H355.113V29.3854Z" fill="black"/>
<path d="M260.977 44.0781H258.174V47.71H260.977V44.0781Z" fill="black"/>
<path d="M346.87 47.71H341.43V44.0781H346.87V47.71ZM336.154 47.71H330.714V44.0781H336.154V47.71ZM325.438 47.71H319.998V44.0781H325.438V47.71ZM314.557 47.71H309.117V44.0781H314.557V47.71ZM303.841 47.71H298.401V44.0781H303.841V47.71ZM293.125 47.71H287.685V44.0781H293.125V47.71ZM282.409 47.71H276.969V44.0781H282.409V47.71ZM271.528 47.71H266.088V44.0781H271.528V47.71Z" fill="black"/>
<path d="M355.113 44.0781H352.311V47.71H355.113V44.0781Z" fill="black"/>
<path d="M260.977 73.9587H258.174V77.5906H260.977V73.9587Z" fill="black"/>
<path d="M346.87 77.5906H341.43V73.9587H346.87V77.5906ZM336.154 77.5906H330.714V73.9587H336.154V77.5906ZM325.438 77.5906H319.998V73.9587H325.438V77.5906ZM314.557 77.5906H309.117V73.9587H314.557V77.5906ZM303.841 77.5906H298.401V73.9587H303.841V77.5906ZM293.125 77.5906H287.685V73.9587H293.125V77.5906ZM282.409 77.5906H276.969V73.9587H282.409V77.5906ZM271.528 77.5906H266.088V73.9587H271.528V77.5906Z" fill="black"/>
<path d="M355.113 73.9587H352.311V77.5906H355.113V73.9587Z" fill="black"/>
<path d="M260.977 84.0291H258.174V87.661H260.977V84.0291Z" fill="black"/>
<path d="M346.87 87.826H341.43V84.1941H346.87V87.826ZM336.154 87.826H330.714V84.1941H336.154V87.826ZM325.438 87.826H319.998V84.1941H325.438V87.826ZM314.557 87.826H309.117V84.1941H314.557V87.826ZM303.841 87.826H298.401V84.1941H303.841V87.826ZM293.125 87.826H287.685V84.1941H293.125V87.826ZM282.409 87.826H276.969V84.1941H282.409V87.826ZM271.528 87.826H266.088V84.1941H271.528V87.826Z" fill="black"/>
<path d="M355.113 84.0291H352.311V87.661H355.113V84.0291Z" fill="black"/>
<path d="M260.977 56.1294H258.174V59.7613H260.977V56.1294Z" fill="black"/>
<path d="M346.87 59.7613H341.43V56.1294H346.87V59.7613ZM336.154 59.7613H330.714V56.1294H336.154V59.7613ZM325.438 59.7613H319.998V56.1294H325.438V59.7613ZM314.557 59.7613H309.117V56.1294H314.557V59.7613ZM303.841 59.7613H298.401V56.1294H303.841V59.7613ZM293.125 59.7613H287.685V56.1294H293.125V59.7613ZM282.409 59.7613H276.969V56.1294H282.409V59.7613ZM271.528 59.7613H266.088V56.1294H271.528V59.7613Z" fill="black"/>
<path d="M355.113 56.1294H352.311V59.7613H355.113V56.1294Z" fill="black"/>
<path d="M260.977 124.805H258.174V128.437H260.977V124.805Z" fill="black"/>
<path d="M346.87 128.437H341.43V124.805H346.87V128.437ZM336.154 128.437H330.714V124.805H336.154V128.437ZM325.438 128.437H319.998V124.805H325.438V128.437ZM314.557 128.437H309.117V124.805H314.557V128.437ZM303.841 128.437H298.401V124.805H303.841V128.437ZM293.125 128.437H287.685V124.805H293.125V128.437ZM282.409 128.437H276.969V124.805H282.409V128.437ZM271.528 128.437H266.088V124.805H271.528V128.437Z" fill="black"/>
<path d="M355.113 124.805H352.311V128.437H355.113V124.805Z" fill="black"/>
<path d="M260.977 93.604H258.174V97.2359H260.977V93.604Z" fill="black"/>
<path d="M346.87 97.401H341.43V93.604H346.87V97.401ZM336.154 97.401H330.714V93.604H336.154V97.401ZM325.438 97.401H319.998V93.604H325.438V97.401ZM314.557 97.401H309.117V93.604H314.557V97.401ZM303.841 97.401H298.401V93.604H303.841V97.401ZM293.125 97.401H287.685V93.604H293.125V97.401ZM282.409 97.401H276.969V93.604H282.409V97.401ZM271.528 97.401H266.088V93.604H271.528V97.401Z" fill="black"/>
<path d="M355.113 93.604H352.311V97.2359H355.113V93.604Z" fill="black"/>
<path d="M260.977 108.297H258.174V111.929H260.977V108.297Z" fill="black"/>
<path d="M346.87 111.929H341.43V108.297H346.87V111.929ZM336.154 111.929H330.714V108.297H336.154V111.929ZM325.438 111.929H319.998V108.297H325.438V111.929ZM314.557 111.929H309.117V108.297H314.557V111.929ZM303.841 111.929H298.401V108.297H303.841V111.929ZM293.125 111.929H287.685V108.297H293.125V111.929ZM282.409 111.929H276.969V108.297H282.409V111.929ZM271.528 111.929H266.088V108.297H271.528V111.929Z" fill="black"/>
<path d="M355.113 108.297H352.311V111.929H355.113V108.297Z" fill="black"/>
<path d="M260.977 138.177H258.174V141.809H260.977V138.177Z" fill="black"/>
<path d="M346.87 141.809H341.43V138.177H346.87V141.809ZM336.154 141.809H330.714V138.177H336.154V141.809ZM325.438 141.809H319.998V138.177H325.438V141.809ZM314.557 141.809H309.117V138.177H314.557V141.809ZM303.841 141.809H298.401V138.177H303.841V141.809ZM293.125 141.809H287.685V138.177H293.125V141.809ZM282.409 141.809H276.969V138.177H282.409V141.809ZM271.528 141.809H266.088V138.177H271.528V141.809Z" fill="black"/>
<path d="M355.113 138.177H352.311V141.809H355.113V138.177Z" fill="black"/>
<path d="M260.977 153.53H258.174V157.162H260.977V153.53Z" fill="black"/>
<path d="M346.87 157.162H341.43V153.53H346.87V157.162ZM336.154 157.162H330.714V153.53H336.154V157.162ZM325.438 157.162H319.998V153.53H325.438V157.162ZM314.557 157.162H309.117V153.53H314.557V157.162ZM303.841 157.162H298.401V153.53H303.841V157.162ZM293.125 157.162H287.685V153.53H293.125V157.162ZM282.409 157.162H276.969V153.53H282.409V157.162ZM271.528 157.162H266.088V153.53H271.528V157.162Z" fill="black"/>
<path d="M355.113 153.53H352.311V157.162H355.113V153.53Z" fill="black"/>
<path d="M119.195 238.88H8.24312C3.62697 238.88 0 235.248 0 230.626V81.5527C0 76.9302 3.62697 73.2983 8.24312 73.2983H119.195C123.812 73.2983 127.439 76.9302 127.439 81.5527V230.626C127.439 235.248 123.647 238.88 119.195 238.88Z" fill="url(#paint1_linear_88_835)"/>
<path d="M24.3997 98.5565H21.9268V101.858H24.3997V98.5565Z" fill="black"/>
<path d="M105.017 101.858H99.9066V98.5565H105.017V101.858ZM94.9607 101.858H89.8499V98.5565H94.9607V101.858ZM84.9041 101.858H79.7933V98.5565H84.9041V101.858ZM74.8475 101.858H69.7367V98.5565H74.8475V101.858ZM64.7909 101.858H59.6801V98.5565H64.7909V101.858ZM54.7343 101.858H49.6235V98.5565H54.7343V101.858ZM44.5128 101.858H39.4021V98.5565H44.5128V101.858ZM34.4562 101.858H29.3455V98.5565H34.4562V101.858Z" fill="black"/>
<path d="M112.601 98.5565H110.128V101.858H112.601V98.5565Z" fill="black"/>
<path d="M24.3997 111.268H21.9268V114.57H24.3997V111.268Z" fill="black"/>
<path d="M105.017 114.57H99.9066V111.268H105.017V114.57ZM94.9607 114.57H89.8499V111.268H94.9607V114.57ZM84.9041 114.57H79.7933V111.268H84.9041V114.57ZM74.8475 114.57H69.7367V111.268H74.8475V114.57ZM64.7909 114.57H59.6801V111.268H64.7909V114.57ZM54.7343 114.57H49.6235V111.268H54.7343V114.57ZM44.5128 114.57H39.4021V111.268H44.5128V114.57ZM34.4562 114.57H29.3455V111.268H34.4562V114.57Z" fill="black"/>
<path d="M112.601 111.268H110.128V114.57H112.601V111.268Z" fill="black"/>
<path d="M24.3997 137.022H21.9268V140.323H24.3997V137.022Z" fill="black"/>
<path d="M105.017 140.323H99.9066V137.022H105.017V140.323ZM94.9607 140.323H89.8499V137.022H94.9607V140.323ZM84.9041 140.323H79.7933V137.022H84.9041V140.323ZM74.8475 140.323H69.7367V137.022H74.8475V140.323ZM64.7909 140.323H59.6801V137.022H64.7909V140.323ZM54.7343 140.323H49.6235V137.022H54.7343V140.323ZM44.5128 140.323H39.4021V137.022H44.5128V140.323ZM34.4562 140.323H29.3455V137.022H34.4562V140.323Z" fill="black"/>
<path d="M112.601 137.022H110.128V140.323H112.601V137.022Z" fill="black"/>
<path d="M24.3997 145.936H21.9268V149.238H24.3997V145.936Z" fill="black"/>
<path d="M105.017 149.238H99.9066V145.936H105.017V149.238ZM94.9607 149.238H89.8499V145.936H94.9607V149.238ZM84.9041 149.238H79.7933V145.936H84.9041V149.238ZM74.8475 149.238H69.7367V145.936H74.8475V149.238ZM64.7909 149.238H59.6801V145.936H64.7909V149.238ZM54.7343 149.238H49.6235V145.936H54.7343V149.238ZM44.5128 149.238H39.4021V145.936H44.5128V149.238ZM34.4562 149.238H29.3455V145.936H34.4562V149.238Z" fill="black"/>
<path d="M112.601 145.936H110.128V149.238H112.601V145.936Z" fill="black"/>
<path d="M24.3997 121.669H21.9268V124.97H24.3997V121.669Z" fill="black"/>
<path d="M105.017 124.97H99.9066V121.669H105.017V124.97ZM94.9607 124.97H89.8499V121.669H94.9607V124.97ZM84.9041 124.97H79.7933V121.669H84.9041V124.97ZM74.8475 124.97H69.7367V121.669H74.8475V124.97ZM64.7909 124.97H59.6801V121.669H64.7909V124.97ZM54.7343 124.97H49.6235V121.669H54.7343V124.97ZM44.5128 124.97H39.4021V121.669H44.5128V124.97ZM34.4562 124.97H29.3455V121.669H34.4562V124.97Z" fill="black"/>
<path d="M112.601 121.669H110.128V124.97H112.601V121.669Z" fill="black"/>
<path d="M24.3997 181.1H21.9268V184.401H24.3997V181.1Z" fill="black"/>
<path d="M105.017 184.401H99.9066V181.1H105.017V184.401ZM94.9607 184.401H89.8499V181.1H94.9607V184.401ZM84.9041 184.401H79.7933V181.1H84.9041V184.401ZM74.8475 184.401H69.7367V181.1H74.8475V184.401ZM64.7909 184.401H59.6801V181.1H64.7909V184.401ZM54.7343 184.401H49.6235V181.1H54.7343V184.401ZM44.5128 184.401H39.4021V181.1H44.5128V184.401ZM34.4562 184.401H29.3455V181.1H34.4562V184.401Z" fill="black"/>
<path d="M112.601 181.1H110.128V184.401H112.601V181.1Z" fill="black"/>
<path d="M24.3997 154.191H21.9268V157.492H24.3997V154.191Z" fill="black"/>
<path d="M105.017 157.492H99.9066V154.191H105.017V157.492ZM94.9607 157.492H89.8499V154.191H94.9607V157.492ZM84.9041 157.492H79.7933V154.191H84.9041V157.492ZM74.8475 157.492H69.7367V154.191H74.8475V157.492ZM64.7909 157.492H59.6801V154.191H64.7909V157.492ZM54.7343 157.492H49.6235V154.191H54.7343V157.492ZM44.5128 157.492H39.4021V154.191H44.5128V157.492ZM34.4562 157.492H29.3455V154.191H34.4562V157.492Z" fill="black"/>
<path d="M112.601 154.191H110.128V157.492H112.601V154.191Z" fill="black"/>
<path d="M24.3997 166.737H21.9268V170.039H24.3997V166.737Z" fill="black"/>
<path d="M105.017 170.039H99.9066V166.737H105.017V170.039ZM94.9607 170.039H89.8499V166.737H94.9607V170.039ZM84.9041 170.039H79.7933V166.737H84.9041V170.039ZM74.8475 170.039H69.7367V166.737H74.8475V170.039ZM64.7909 170.039H59.6801V166.737H64.7909V170.039ZM54.7343 170.039H49.6235V166.737H54.7343V170.039ZM44.5128 170.039H39.4021V166.737H44.5128V170.039ZM34.4562 170.039H29.3455V166.737H34.4562V170.039Z" fill="black"/>
<path d="M112.601 166.737H110.128V170.039H112.601V166.737Z" fill="black"/>
<path d="M24.3997 192.656H21.9268V195.957H24.3997V192.656Z" fill="black"/>
<path d="M105.017 195.957H99.9066V192.656H105.017V195.957ZM94.9607 195.957H89.8499V192.656H94.9607V195.957ZM84.9041 195.957H79.7933V192.656H84.9041V195.957ZM74.8475 195.957H69.7367V192.656H74.8475V195.957ZM64.7909 195.957H59.6801V192.656H64.7909V195.957ZM54.7343 195.957H49.6235V192.656H54.7343V195.957ZM44.5128 195.957H39.4021V192.656H44.5128V195.957ZM34.4562 195.957H29.3455V192.656H34.4562V195.957Z" fill="black"/>
<path d="M112.601 192.656H110.128V195.957H112.601V192.656Z" fill="black"/>
<path d="M24.3997 205.863H21.9268V209.164H24.3997V205.863Z" fill="black"/>
<path d="M105.017 209.164H99.9066V205.863H105.017V209.164ZM94.9607 209.164H89.8499V205.863H94.9607V209.164ZM84.9041 209.164H79.7933V205.863H84.9041V209.164ZM74.8475 209.164H69.7367V205.863H74.8475V209.164ZM64.7909 209.164H59.6801V205.863H64.7909V209.164ZM54.7343 209.164H49.6235V205.863H54.7343V209.164ZM44.5128 209.164H39.4021V205.863H44.5128V209.164ZM34.4562 209.164H29.3455V205.863H34.4562V209.164Z" fill="black"/>
<path d="M112.601 205.863H110.128V209.164H112.601V205.863Z" fill="black"/>
<path d="M165.851 212.466H54.8991C50.283 212.466 46.656 208.834 46.656 204.212V55.1388C46.656 50.5164 50.283 46.8845 54.8991 46.8845H165.851C170.468 46.8845 174.095 50.5164 174.095 55.1388V204.212C174.095 208.834 170.468 212.466 165.851 212.466Z" fill="#A7A9AC"/>
<path d="M71.0557 72.1427H68.5828V75.4444H71.0557V72.1427Z" fill="black"/>
<path d="M151.838 75.4444H146.728V72.1427H151.838V75.4444ZM141.782 75.4444H136.671V72.1427H141.782V75.4444ZM131.56 75.4444H126.614V72.1427H131.725V75.4444H131.56ZM121.504 75.4444H116.393V72.1427H121.504V75.4444ZM111.447 75.4444H106.336V72.1427H111.447V75.4444ZM101.39 75.4444H96.2797V72.1427H101.39V75.4444ZM91.3338 75.4444H86.2231V72.1427H91.3338V75.4444ZM81.2772 75.4444H76.1665V72.1427H81.2772V75.4444Z" fill="black"/>
<path d="M159.257 72.1427H156.784V75.4444H159.257V72.1427Z" fill="black"/>
<path d="M71.0557 84.8544H68.5828V88.1561H71.0557V84.8544Z" fill="black"/>
<path d="M151.838 88.1561H146.728V84.8544H151.838V88.1561ZM141.782 88.1561H136.671V84.8544H141.782V88.1561ZM131.56 88.1561H126.614V84.8544H131.725V88.1561H131.56ZM121.504 88.1561H116.393V84.8544H121.504V88.1561ZM111.447 88.1561H106.336V84.8544H111.447V88.1561ZM101.39 88.1561H96.2797V84.8544H101.39V88.1561ZM91.3338 88.1561H86.2231V84.8544H91.3338V88.1561ZM81.2772 88.1561H76.1665V84.8544H81.2772V88.1561Z" fill="black"/>
<path d="M159.257 84.8544H156.784V88.1561H159.257V84.8544Z" fill="black"/>
<path d="M71.0557 110.608H68.5828V113.91H71.0557V110.608Z" fill="black"/>
<path d="M151.838 113.91H146.728V110.608H151.838V113.91ZM141.782 113.91H136.671V110.608H141.782V113.91ZM131.56 113.91H126.614V110.608H131.725V113.91H131.56ZM121.504 113.91H116.393V110.608H121.504V113.91ZM111.447 113.91H106.336V110.608H111.447V113.91ZM101.39 113.91H96.2797V110.608H101.39V113.91ZM91.3338 113.91H86.2231V110.608H91.3338V113.91ZM81.2772 113.91H76.1665V110.608H81.2772V113.91Z" fill="black"/>
<path d="M159.257 110.608H156.784V113.91H159.257V110.608Z" fill="black"/>
<path d="M71.0557 127.777H68.5828V131.079H71.0557V127.777Z" fill="black"/>
<path d="M151.838 131.079H146.728V127.777H151.838V131.079ZM141.782 131.079H136.671V127.777H141.782V131.079ZM131.56 131.079H126.614V127.777H131.725V131.079H131.56ZM121.504 131.079H116.393V127.777H121.504V131.079ZM111.447 131.079H106.336V127.777H111.447V131.079ZM101.39 131.079H96.2797V127.777H101.39V131.079ZM91.3338 131.079H86.2231V127.777H91.3338V131.079ZM81.2772 131.079H76.1665V127.777H81.2772V131.079Z" fill="black"/>
<path d="M159.257 127.777H156.784V131.079H159.257V127.777Z" fill="black"/>
<path d="M71.0557 140.323H68.5828V143.625H71.0557V140.323Z" fill="black"/>
<path d="M151.838 143.625H146.728V140.323H151.838V143.625ZM141.782 143.625H136.671V140.323H141.782V143.625ZM131.56 143.625H126.614V140.323H131.725V143.625H131.56ZM121.504 143.625H116.393V140.323H121.504V143.625ZM111.447 143.625H106.336V140.323H111.447V143.625ZM101.39 143.625H96.2797V140.323H101.39V143.625ZM91.3338 143.625H86.2231V140.323H91.3338V143.625ZM81.2772 143.625H76.1665V140.323H81.2772V143.625Z" fill="black"/>
<path d="M159.257 140.323H156.784V143.625H159.257V140.323Z" fill="black"/>
<path d="M71.0557 166.242H68.5828V169.544H71.0557V166.242Z" fill="black"/>
<path d="M151.838 169.544H146.728V166.242H151.838V169.544ZM141.782 169.544H136.671V166.242H141.782V169.544ZM131.56 169.544H126.614V166.242H131.725V169.544H131.56ZM121.504 169.544H116.393V166.242H121.504V169.544ZM111.447 169.544H106.336V166.242H111.447V169.544ZM101.39 169.544H96.2797V166.242H101.39V169.544ZM91.3338 169.544H86.2231V166.242H91.3338V169.544ZM81.2772 169.544H76.1665V166.242H81.2772V169.544Z" fill="black"/>
<path d="M159.257 166.242H156.784V169.544H159.257V166.242Z" fill="black"/>
<path d="M71.0557 179.449H68.5828V182.751H71.0557V179.449Z" fill="black"/>
<path d="M151.838 182.751H146.728V179.449H151.838V182.751ZM141.782 182.751H136.671V179.449H141.782V182.751ZM131.56 182.751H126.614V179.449H131.725V182.751H131.56ZM121.504 182.751H116.393V179.449H121.504V182.751ZM111.447 182.751H106.336V179.449H111.447V182.751ZM101.39 182.751H96.2797V179.449H101.39V182.751ZM91.3338 182.751H86.2231V179.449H91.3338V182.751ZM81.2772 182.751H76.1665V179.449H81.2772V182.751Z" fill="black"/>
<path d="M159.257 179.449H156.784V182.751H159.257V179.449Z" fill="black"/>
<path d="M249.931 128.272C246.634 123.32 258.175 118.367 254.877 113.414C246.634 103.509 238.391 116.716 228.499 115.065C224.543 113.745 222.729 107.306 218.113 105.49V171.69C218.113 171.69 258.999 162.775 274.991 127.282C272.023 121.999 256.691 137.682 249.931 128.272Z" fill="#DA6CAA"/>
<path d="M243.337 82.048C246.634 75.4445 236.742 67.1902 241.688 60.5868C248.283 53.9833 258.175 65.5394 264.769 60.5868C266.747 59.4312 267.901 57.7803 268.561 55.9643C250.261 32.0268 218.113 29.2203 218.113 29.2203V71.8126C226.521 80.8924 237.897 93.1088 243.337 82.048Z" fill="#4BB750"/>
<path d="M268.726 55.9644C268.066 57.7803 266.912 59.4312 264.934 60.5868C258.339 65.5394 248.448 53.9833 241.853 60.5868C236.907 67.1902 246.799 75.4446 243.502 82.048C237.896 93.1088 226.521 80.8924 218.278 71.8127V105.49C222.894 107.306 224.872 113.745 228.664 115.065C238.556 116.716 246.799 103.509 255.042 113.414C258.339 118.367 246.799 123.32 250.096 128.272C256.856 137.682 272.188 121.999 275.155 127.282C279.112 118.697 281.42 108.462 281.42 96.4105C281.255 78.7463 276.145 65.7045 268.726 55.9644Z" fill="#DDA8CD"/>
<path d="M180.689 108.462C174.095 101.858 164.203 93.604 157.608 101.858C154.311 105.16 151.673 109.617 149.2 114.24C159.916 159.308 199.319 166.737 199.319 166.737V106.151C193.054 103.179 185.47 114.735 180.689 108.462Z" fill="url(#paint2_linear_88_835)"/>
<path d="M180.689 90.3023C165.852 85.3497 183.987 72.1428 182.338 60.5867C182.338 57.285 179.041 57.285 177.392 55.6342C170.303 53.6531 160.906 57.1199 152.992 56.7898C149.036 64.879 146.563 75.7747 146.563 90.3023C146.563 99.3821 147.552 107.306 149.201 114.24C151.673 109.617 154.146 105.16 157.609 101.858C164.203 93.604 174.095 101.858 180.689 108.462C185.305 114.735 193.054 103.179 199.319 106.151V91.4579C193.384 95.5851 185.965 92.9437 180.689 90.3023Z" fill="#27AAE1"/>
<path d="M152.992 56.7897C160.906 57.1199 170.303 53.6531 177.392 55.6341C179.041 57.285 182.338 57.285 182.338 60.5867C183.987 72.1427 165.852 85.3497 180.689 90.3023C185.965 92.9436 193.219 95.585 199.319 91.4579V33.0173C199.484 33.0173 167.171 27.4043 152.992 56.7897Z" fill="url(#paint3_linear_88_835)"/>
<path d="M244.491 166.572L299.39 258.691C302.028 262.983 308.457 264.138 313.568 261.002L317.525 258.525C322.635 255.389 324.614 249.281 321.976 244.988L266.088 151.219C260.153 157.658 252.404 162.94 244.491 166.572Z" fill="white"/>
<path d="M242.512 163.271L260.153 192.161C262.791 196.453 269.22 197.609 274.331 194.472L278.288 191.996C283.398 188.859 285.377 182.751 282.739 178.458L265.099 149.568C258.339 155.346 250.756 160.134 242.512 163.271Z" fill="url(#paint4_linear_88_835)"/>
<path d="M243.007 164.261L256.856 187.043C259.493 191.335 265.923 192.491 271.034 189.354L274.99 186.878C280.101 183.741 282.079 177.633 279.442 173.341L266.088 151.549C259.328 156.832 251.415 161.29 243.007 164.261Z" fill="white"/>
<path d="M159.752 84.3592H164.698V69.8316L160.081 70.9872V67.0251L164.698 65.8695H168.984V84.3592H173.93V88.3213H159.752V84.3592Z" fill="black"/>
<path d="M177.227 77.0954C177.227 73.2984 177.887 70.3269 179.041 68.3458C180.195 66.3648 182.173 65.3743 184.646 65.3743C187.119 65.3743 188.932 66.3648 190.251 68.3458C191.405 70.3269 192.065 73.1333 192.065 77.0954C192.065 80.8924 191.405 83.8639 190.251 85.845C189.097 87.826 187.119 88.8165 184.646 88.8165C182.173 88.8165 180.359 87.826 179.041 85.845C177.722 83.8639 177.227 81.0575 177.227 77.0954ZM184.481 69.3363C183.492 69.3363 182.668 69.9967 182.173 71.1523C181.678 72.473 181.513 74.454 181.513 77.0954C181.513 77.9208 181.513 78.7463 181.513 79.4066L186.624 71.1523C186.624 71.1523 186.624 71.1523 186.624 70.9872C186.294 69.9967 185.635 69.3363 184.481 69.3363ZM182.338 83.2036C182.832 84.5243 183.492 85.0196 184.646 85.0196C185.635 85.0196 186.459 84.3592 186.954 83.2036C187.449 82.048 187.613 79.9019 187.613 77.2605C187.613 76.27 187.613 75.2795 187.449 74.454L182.173 82.7083C182.173 82.8734 182.338 83.0385 182.338 83.2036Z" fill="black"/>
<path d="M177.227 153.035C177.227 149.238 177.887 146.267 179.041 144.286C180.195 142.305 182.173 141.314 184.646 141.314C187.119 141.314 188.932 142.305 190.251 144.286C191.405 146.267 192.065 149.073 192.065 153.035C192.065 156.832 191.405 159.804 190.251 161.785C189.097 163.766 187.119 164.756 184.646 164.756C182.173 164.756 180.359 163.766 179.041 161.785C177.722 159.804 177.227 156.997 177.227 153.035ZM184.481 145.276C183.492 145.276 182.668 145.937 182.173 147.092C181.678 148.413 181.513 150.394 181.513 153.035C181.513 153.861 181.513 154.686 181.513 155.346L186.624 147.092C186.624 147.092 186.624 147.092 186.624 146.927C186.294 145.937 185.635 145.276 184.481 145.276ZM182.338 159.143C182.832 160.464 183.492 160.959 184.646 160.959C185.635 160.959 186.459 160.299 186.954 159.143C187.449 157.988 187.613 155.842 187.613 153.2C187.613 152.21 187.613 151.219 187.449 150.394L182.173 158.648C182.173 158.813 182.338 158.978 182.338 159.143Z" fill="black"/>
<path d="M140.628 117.211C140.628 113.414 141.287 110.443 142.441 108.462C143.595 106.481 145.574 105.49 148.046 105.49C150.519 105.49 152.333 106.481 153.652 108.462C154.806 110.443 155.465 113.249 155.465 117.211C155.465 121.008 154.806 123.98 153.652 125.961C152.498 127.942 150.519 128.933 148.046 128.933C145.574 128.933 143.76 127.942 142.441 125.961C141.287 123.98 140.628 121.008 140.628 117.211ZM148.046 109.287C147.057 109.287 146.233 109.948 145.738 111.103C145.244 112.259 145.079 114.405 145.079 117.046C145.079 117.872 145.079 118.697 145.079 119.357L150.19 111.103C150.19 111.103 150.19 111.103 150.19 110.938C149.695 109.948 149.036 109.287 148.046 109.287ZM145.738 123.154C146.233 124.475 146.892 124.97 148.046 124.97C149.036 124.97 149.86 124.31 150.355 123.154C150.849 121.834 151.014 119.853 151.014 117.211C151.014 116.221 151.014 115.23 150.849 114.405L145.574 122.659C145.738 122.824 145.738 122.989 145.738 123.154Z" fill="black"/>
<path d="M160.082 124.475H165.027V109.948L160.411 111.103V107.141L165.027 105.985H169.314V124.475H174.26V128.272H160.082V124.475Z" fill="black"/>
<path d="M178.381 124.475H183.327V109.948L178.711 111.103V107.141L183.327 105.985H187.613V124.475H192.559V128.272H178.381V124.475Z" fill="black"/>
<path d="M178.381 50.1863H183.327V35.6587L178.711 36.8143V32.8523L183.327 31.6967H187.613V50.1863H192.559V53.9833H178.381V50.1863Z" fill="black"/>
<path d="M227.84 50.1863H232.786V35.6587L228.17 36.8143V32.8523L232.786 31.6967H237.072V50.1863H242.018V53.9833H227.84V50.1863Z" fill="black"/>
<path d="M227.18 84.3592H232.126V69.8316L227.51 70.9872V67.0251L232.126 65.8695H236.413V84.3592H241.359V88.3213H227.18V84.3592Z" fill="black"/>
<path d="M244.656 77.0954C244.656 73.2984 245.315 70.3269 246.469 68.3458C247.623 66.3648 249.602 65.3743 252.075 65.3743C254.548 65.3743 256.361 66.3648 257.68 68.3458C258.834 70.3269 259.493 73.1333 259.493 77.0954C259.493 80.8924 258.834 83.8639 257.68 85.845C256.526 87.826 254.548 88.8165 252.075 88.8165C249.602 88.8165 247.788 87.826 246.469 85.845C245.315 83.8639 244.656 81.0575 244.656 77.0954ZM252.075 69.3363C251.085 69.3363 250.261 69.9967 249.766 71.1523C249.272 72.473 249.107 74.454 249.107 77.0954C249.107 77.9208 249.107 78.7463 249.107 79.4066L254.218 71.1523C254.218 71.1523 254.218 71.1523 254.218 70.9872C253.888 69.9967 253.064 69.3363 252.075 69.3363ZM249.766 83.2036C250.261 84.5243 250.921 85.0196 252.075 85.0196C253.064 85.0196 253.888 84.3592 254.383 83.2036C254.877 81.8829 255.042 79.9019 255.042 77.2605C255.042 76.27 255.042 75.2795 254.877 74.454L249.602 82.7083C249.766 82.8734 249.766 83.0385 249.766 83.2036Z" fill="black"/>
<path d="M264.11 84.3592H269.055V69.8316L264.439 70.9872V67.0251L269.055 65.8695H273.342V84.3592H278.288V88.3213H264.11V84.3592Z" fill="black"/>
<path d="M227.18 156.502H232.126V141.974L227.51 143.13V139.168L232.126 138.012H236.413V156.502H241.359V160.464H227.18V156.502Z" fill="black"/>
<path d="M244.656 149.238C244.656 145.441 245.315 142.47 246.469 140.489C247.623 138.508 249.602 137.517 252.075 137.517C254.548 137.517 256.361 138.508 257.68 140.489C258.834 142.47 259.493 145.276 259.493 149.238C259.493 153.035 258.834 156.007 257.68 157.988C256.526 159.969 254.548 160.959 252.075 160.959C249.602 160.959 247.788 159.969 246.469 157.988C245.15 156.007 244.656 153.035 244.656 149.238ZM252.075 141.314C251.085 141.314 250.261 141.974 249.766 143.13C249.272 144.451 249.107 146.432 249.107 149.073C249.107 149.899 249.107 150.724 249.107 151.384L254.218 143.13C254.218 143.13 254.218 143.13 254.218 142.965C253.888 141.974 253.064 141.314 252.075 141.314ZM249.766 155.181C250.261 156.502 250.921 156.997 252.075 156.997C253.064 156.997 253.888 156.337 254.383 155.181C254.877 153.861 255.042 151.88 255.042 149.238C255.042 148.248 255.042 147.257 254.877 146.432L249.602 154.686C249.766 154.851 249.766 155.016 249.766 155.181Z" fill="black"/>
<path d="M227.18 113.414C227.18 109.618 227.84 106.646 228.994 104.665C230.148 102.684 232.126 101.693 234.599 101.693C237.072 101.693 238.886 102.684 240.205 104.665C241.359 106.646 242.018 109.452 242.018 113.414C242.018 117.211 241.359 120.183 240.205 122.164C239.051 124.145 237.072 125.136 234.599 125.136C232.126 125.136 230.313 124.145 228.994 122.164C227.675 120.183 227.18 117.377 227.18 113.414ZM234.434 105.655C233.445 105.655 232.621 106.316 232.126 107.471C231.632 108.792 231.467 110.773 231.467 113.414C231.467 114.24 231.467 115.065 231.467 115.726L236.578 107.471C236.578 107.471 236.578 107.471 236.578 107.306C236.248 106.316 235.588 105.655 234.434 105.655ZM232.291 119.523C232.786 120.843 233.445 121.339 234.599 121.339C235.588 121.339 236.413 120.678 236.907 119.523C237.402 118.202 237.567 116.221 237.567 113.58C237.567 112.589 237.567 111.599 237.402 110.773L232.126 119.027C232.126 119.193 232.291 119.358 232.291 119.523Z" fill="black"/>
<path d="M246.469 120.678H251.415V106.151L246.799 107.306V103.344L251.415 102.189H255.702V120.678H260.647V124.64H246.469V120.678Z" fill="black"/>
<path d="M264.934 120.678H269.88V106.151L265.264 107.306V103.344L269.88 102.189H274.166V120.678H279.112V124.64H264.934V120.678Z" fill="black"/>
<path d="M214.321 14.0323C166.841 14.0323 128.263 52.6626 128.263 100.207C128.263 147.752 166.841 186.383 214.321 186.383C261.801 186.383 300.379 147.752 300.379 100.207C300.214 52.6626 261.801 14.0323 214.321 14.0323ZM214.321 166.242C177.887 166.242 148.376 136.692 148.376 100.207C148.376 63.7234 177.887 34.1729 214.321 34.1729C250.756 34.1729 280.266 63.7234 280.266 100.207C280.266 136.692 250.756 166.242 214.321 166.242Z" fill="white"/>
<path d="M214.321 18.1595C168.984 18.1595 132.385 54.9738 132.385 100.207C132.385 145.606 169.149 182.255 214.321 182.255C259.658 182.255 296.258 145.441 296.258 100.207C296.258 54.8087 259.493 18.1595 214.321 18.1595ZM214.321 163.105C179.535 163.105 151.509 134.876 151.509 100.207C151.509 65.3743 179.7 37.3096 214.321 37.3096C249.107 37.3096 277.134 65.5394 277.134 100.207C277.134 135.041 248.942 163.105 214.321 163.105Z" fill="white"/>
<path d="M213.662 172.02C174.424 172.02 142.606 139.993 142.606 100.868C142.606 61.7423 174.589 29.7156 213.662 29.7156C252.734 29.7156 284.717 61.7423 284.717 100.868C284.717 139.993 252.899 172.02 213.662 172.02ZM213.662 31.2014C175.249 31.2014 144.09 62.4027 144.09 100.868C144.09 139.333 175.249 170.534 213.662 170.534C252.075 170.534 283.234 139.168 283.234 100.703C283.234 62.2376 252.075 31.2014 213.662 31.2014Z" fill="#939598"/>
<path d="M213.662 172.846C173.93 172.846 141.782 140.489 141.782 100.868C141.782 61.2471 174.095 28.8901 213.662 28.8901C253.229 28.8901 285.542 61.2471 285.542 100.868C285.542 140.489 253.394 172.846 213.662 172.846ZM213.662 32.0268C175.743 32.0268 144.914 62.8979 144.914 100.868C144.914 138.838 175.743 169.709 213.662 169.709C251.58 169.709 282.409 138.838 282.409 100.868C282.409 62.8979 251.58 32.0268 213.662 32.0268Z" fill="#939598"/>
<path d="M228.397 53.9833L219 61.5773C219 61.5773 232.024 72.9682 238.783 93.4389C239.938 96.7407 239.938 96.7407 239.938 96.7407L252.632 93.4389C252.632 93.604 254.281 67.1902 228.397 53.9833Z" fill="white"/>
<defs>
<linearGradient id="paint0_linear_88_835" x1="343.958" y1="140.103" x2="471.452" y2="140.103" gradientUnits="userSpaceOnUse">
<stop offset="0.0714143" stop-color="#414042"/>
<stop offset="0.7901" stop-color="#6D6E71"/>
</linearGradient>
<linearGradient id="paint1_linear_88_835" x1="-0.0548992" y1="156.062" x2="127.439" y2="156.062" gradientUnits="userSpaceOnUse">
<stop offset="0.2099" stop-color="#6D6E71"/>
<stop offset="0.605" stop-color="#636467"/>
<stop offset="0.9227" stop-color="#58595B"/>
</linearGradient>
<linearGradient id="paint2_linear_88_835" x1="149.33" y1="132.594" x2="199.428" y2="132.594" gradientUnits="userSpaceOnUse">
<stop stop-color="#9D99CB"/>
<stop offset="0.3066" stop-color="#A09DCD"/>
<stop offset="0.6466" stop-color="#AAA8D4"/>
<stop offset="0.9594" stop-color="#BABADD"/>
</linearGradient>
<linearGradient id="paint3_linear_88_835" x1="153.056" y1="63.1053" x2="199.429" y2="63.1053" gradientUnits="userSpaceOnUse">
<stop stop-color="#F9CDE1"/>
<stop offset="0.1835" stop-color="#EDBAD6"/>
<stop offset="0.4418" stop-color="#E4A8CC"/>
<stop offset="0.6927" stop-color="#DE9DC6"/>
<stop offset="0.9259" stop-color="#DC99C4"/>
</linearGradient>
<linearGradient id="paint4_linear_88_835" x1="242.504" y1="172.92" x2="283.849" y2="172.92" gradientUnits="userSpaceOnUse">
<stop offset="0.0714143" stop-color="#58595B"/>
<stop offset="0.2165" stop-color="#4C4C4E"/>
<stop offset="0.397" stop-color="#414042"/>
<stop offset="1"/>
</linearGradient>
</defs>
</svg>
