<svg width="457" height="240" viewBox="0 0 457 240" fill="none" xmlns="http://www.w3.org/2000/svg">
<path d="M142.8 94.2592H306.577L319.518 62.9974L161.097 1.81366C161.097 1.81366 124.652 -10.0956 118.256 27.1208C111.711 64.4861 142.8 94.2592 142.8 94.2592Z" fill="url(#paint0_linear_88_1068)"/>
<path d="M90.588 37.2437C90.588 37.2437 90.8855 43.1983 92.373 36.4994C92.373 36.4994 86.8692 18.9332 94.0093 31.2891L94.7531 35.4573C94.7531 35.4573 95.3481 33.9686 95.6456 30.247C95.9431 26.5254 100.108 26.0788 101.893 26.0788C103.678 26.0788 108.29 25.0367 106.058 18.9332C106.058 18.9332 108.587 9.85243 112.603 11.1922C117.363 9.85243 116.62 4.19554 113.347 3.45121C110.075 2.70688 109.777 5.53533 109.777 5.53533C109.777 5.53533 107.546 6.72625 98.1744 4.93986C88.803 3.15348 80.1753 10.0013 81.0678 20.273C81.5141 24.739 80.9191 29.5027 80.1753 33.522C83.4479 34.1175 90.2905 41.7097 90.588 37.2437Z" fill="url(#paint1_linear_88_1068)"/>
<path d="M0.146316 191.171C0.146316 191.171 -2.38248 142.492 49.8297 139.961C102.042 137.43 149.197 149.339 195.905 149.339C242.613 149.339 307.469 138.472 355.665 141.449C403.861 144.427 441.793 132.518 453.991 171.818C466.189 211.119 426.62 247.442 337.369 234.937C248.117 222.432 212.714 239.403 144.139 239.403C75.5639 239.403 -3.87001 244.911 0.146316 191.171Z" fill="url(#paint2_linear_88_1068)"/>
<path d="M312.378 150.53L310.147 151.275C310.147 151.275 293.486 153.954 281.289 160.951C269.091 167.948 233.539 185.216 233.539 185.216L326.807 223.028L411.299 176.284L312.378 150.53Z" fill="#D1D3D4"/>
<path d="M403.415 150.828L335.435 131.773L334.84 136.537L400.44 154.996C400.44 154.847 403.712 155.592 403.415 150.828Z" fill="#DDA8CD"/>
<path d="M258.53 158.42L303.156 129.689C303.156 129.689 305.982 128.349 306.28 130.582C306.577 132.815 304.048 134.155 304.048 134.155L258.381 163.333L258.232 159.165" fill="#DDA8CD"/>
<path d="M300.924 108.848L307.916 152.912C307.916 152.912 309.998 155.741 313.122 154.996C316.246 154.252 316.097 152.019 315.948 150.53C315.8 149.042 308.511 103.935 308.511 103.935L300.924 108.848Z" fill="#DDA8CD"/>
<path d="M397.465 131.029L404.456 175.093C404.456 175.093 406.539 177.922 409.663 177.177C412.786 176.433 412.638 174.2 412.489 172.711C412.34 171.223 405.051 126.116 405.051 126.116L397.465 131.029Z" fill="#DDA8CD"/>
<path d="M349.567 184.323L400.737 151.423C400.737 151.423 403.861 149.935 404.159 152.466C404.456 154.996 401.63 156.485 401.63 156.485L349.418 189.831L349.269 185.067" fill="#DDA8CD"/>
<path d="M258.53 121.502L246.927 182.239C246.927 182.239 246.332 185.365 250.497 186.109C254.662 186.854 257.786 182.536 257.786 182.536L268.348 123.883C268.496 123.883 263.439 119.269 258.53 121.502Z" fill="#DDA8CD"/>
<path d="M262.1 159.462C262.1 159.462 259.869 158.569 259.125 161.249C258.381 163.928 261.356 164.673 261.356 164.673L340.641 188.938L342.575 183.876L262.1 159.462Z" fill="#DDA8CD"/>
<path d="M347.038 148.893L335.584 209.63C335.584 209.63 334.989 212.756 339.154 213.5C343.467 214.245 346.443 209.779 346.443 209.779L356.855 151.126C357.004 151.275 351.946 146.66 347.038 148.893Z" fill="#DDA8CD"/>
<path d="M257.489 112.57C255.109 111.974 251.241 111.676 249.158 111.974C246.927 112.272 245.142 114.654 244.993 117.036V118.524C244.845 121.055 246.778 123.586 249.158 124.181L363.401 156.485C365.781 157.229 367.714 155.741 367.714 153.21V151.126C367.714 148.595 372.772 142.343 372.177 140.408C371.433 138.621 363.103 139.365 360.723 138.77L257.489 112.57Z" fill="#00834A"/>
<path d="M372.475 139.663C370.392 141.003 368.458 143.236 368.012 144.576C367.714 145.916 367.417 148.893 367.417 151.424V153.508C367.417 156.038 369.202 156.783 371.285 155.443L416.654 123.437C418.737 121.948 420.522 118.822 420.522 116.291V115.1C420.67 112.57 419.332 110.634 417.695 110.634C416.059 110.634 412.935 111.825 410.853 113.314L372.475 139.663Z" fill="url(#paint3_linear_88_1068)"/>
<path d="M249.01 110.634C246.779 111.825 246.927 113.314 249.307 113.909L362.954 145.618C365.334 146.362 369.053 145.767 371.136 144.278L416.952 113.165C419.034 111.825 418.737 110.188 416.208 109.592L306.577 83.6897C304.197 83.0943 300.33 83.5409 298.098 84.7318L249.01 110.634Z" fill="#80C786"/>
<path d="M131.941 231.96C194.625 231.96 245.439 217.697 245.439 200.103C245.439 182.508 194.625 168.245 131.941 168.245C69.2578 168.245 18.4429 182.508 18.4429 200.103C18.4429 217.697 69.2578 231.96 131.941 231.96Z" fill="#A7A9AC"/>
<path d="M211.97 179.559C211.97 179.559 230.564 170.776 238.894 182.834C247.225 194.892 233.986 211.863 219.11 218.413C204.235 224.963 172.402 231.215 165.113 215.882C157.824 200.549 196.649 188.342 196.649 188.342C196.649 188.342 206.615 191.32 211.97 179.559Z" fill="url(#paint4_linear_88_1068)"/>
<path d="M192.93 206.057C175.079 211.714 168.981 222.879 182.22 226.154C186.682 227.345 195.161 226.75 204.086 224.368C201.557 217.669 199.029 211.119 196.649 204.569C195.607 205.164 194.417 205.611 192.93 206.057Z" fill="#A7A9AC"/>
<path d="M241.274 188.938C241.274 188.938 237.407 177.028 221.49 183.281C209.441 188.044 209.441 195.488 202.599 201.145C204.384 208.588 207.21 215.585 210.036 222.581C226.102 217.222 242.167 206.057 241.274 188.938Z" fill="#A7A9AC"/>
<path d="M196.797 204.569C199.029 211.119 201.706 217.669 204.235 224.368C206.169 223.921 208.103 223.326 210.036 222.581C207.061 215.585 204.235 208.588 202.599 201.145C200.962 202.484 199.177 203.527 196.797 204.569Z" fill="#808285"/>
<path d="M189.955 224.219L183.261 209.779L184.005 209.481L190.698 223.772L189.955 224.219Z" fill="#414042"/>
<path d="M189.043 206.929L188.354 207.211L195.439 224.576L196.128 224.295L189.043 206.929Z" fill="#58595B"/>
<path d="M209.842 191.54L209.146 191.803L219.298 218.678L219.994 218.415L209.842 191.54Z" fill="#6D6E71"/>
<path d="M223.424 215.733L213.755 187.896L214.499 187.598L224.168 215.436L223.424 215.733Z" fill="#6D6E71"/>
<path d="M228.481 212.756L219.259 184.918L220.003 184.62L229.225 212.458L228.481 212.756Z" fill="#6D6E71"/>
<path d="M232.944 208.737L223.87 182.834L224.614 182.536L233.688 208.439L232.944 208.737Z" fill="#6D6E71"/>
<path d="M159.46 157.974C159.46 157.974 154.254 149.339 142.354 143.385C131.644 138.026 111.562 138.472 111.562 138.472L116.917 162.291L144.288 161.844L159.46 157.974Z" fill="url(#paint5_linear_88_1068)"/>
<path d="M187.426 55.2565L164.221 91.7285C164.221 91.7285 164.221 91.8774 164.369 91.8774C164.369 91.8774 179.542 76.2465 206.318 84.4341C214.35 72.9715 222.532 61.8065 230.416 50.4928C225.953 47.6643 211.227 41.1142 187.426 55.2565Z" fill="url(#paint6_linear_88_1068)"/>
<path d="M184.897 67.1657L184.451 66.5702C184.599 66.4214 195.756 56.2985 211.077 61.6577L210.78 62.402C195.905 57.0428 184.897 67.0168 184.897 67.1657Z" fill="#92278F"/>
<path d="M188.765 61.2111L188.318 60.6156C188.467 60.4668 201.855 51.2371 215.243 57.3406L214.945 58.0849C202.004 52.1303 188.913 61.0622 188.765 61.2111Z" fill="#92278F"/>
<path d="M206.317 84.5829C206.466 84.5829 206.615 84.7317 206.764 84.7317L208.995 85.4761L232.052 51.6836C232.052 51.6836 231.457 51.237 230.415 50.4927C222.531 62.1042 214.35 73.2691 206.317 84.5829Z" fill="#80C786"/>
<path d="M178.501 77.5862L178.055 76.9908C178.203 76.8419 190.699 67.4634 204.384 75.7998L203.938 76.3953C190.847 68.3566 178.65 77.4374 178.501 77.5862Z" fill="#92278F"/>
<path d="M181.773 72.376L181.327 71.7805C181.476 71.6317 192.781 62.5509 209.888 68.9521L209.59 69.6964C192.781 63.4441 181.922 72.2271 181.773 72.376Z" fill="#92278F"/>
<path d="M164.369 91.8773C161.692 84.8806 149.791 77.7351 141.61 75.5021C134.47 73.5668 132.834 72.3759 132.536 72.2271C132.239 73.5668 132.387 75.5021 134.321 76.3953C137.742 78.0328 150.535 79.0749 162.138 92.4728C162.138 92.4728 162.733 93.0682 163.774 93.2171L163.923 92.6216L164.369 91.8773Z" fill="url(#paint7_linear_88_1068)"/>
<path d="M164.369 91.8774L187.575 55.4053C187.575 55.4053 170.468 38.2858 155.593 41.5608L132.982 70.5896C132.982 70.5896 132.685 71.185 132.536 72.0782C132.834 72.376 134.47 73.418 141.61 75.3533C149.643 77.5863 161.692 84.7318 164.369 91.8774Z" fill="url(#paint8_linear_88_1068)"/>
<path d="M164.369 92.0262C164.369 92.0262 164.369 91.8773 164.221 91.8773L163.774 92.6216L163.625 93.2171C164.369 93.366 165.262 93.2171 166.154 92.6216C168.683 91.133 186.533 80.5635 207.359 87.7091L208.846 85.4761L206.615 84.7318C179.84 76.0976 164.369 92.0262 164.369 92.0262Z" fill="#80C786"/>
<path d="M22.0132 168.692C22.0132 168.692 22.7569 184.323 28.7071 195.785C34.6572 207.248 57.8626 224.368 90.8857 224.517C123.909 224.665 195.905 220.646 210.334 191.766C224.763 162.886 199.475 145.022 176.121 151.275C152.767 157.676 128.074 160.951 114.686 156.336C101.298 151.721 27.9633 148.744 22.0132 168.692Z" fill="#80C786"/>
<path d="M19.9307 163.631C19.9307 163.631 22.162 177.773 58.3089 186.705C94.4558 195.637 121.082 171.818 120.339 160.951" fill="white"/>
<path d="M74.2254 189.087C69.3165 189.087 63.9614 188.491 58.1601 187.002C22.1619 178.07 19.6331 164.226 19.4844 163.631L20.2281 163.482C20.2281 163.482 20.8231 167.054 25.8807 171.52C30.4921 175.689 39.8635 181.643 58.4576 186.258C86.8693 193.255 105.761 179.857 110.819 175.54C116.769 170.478 120.339 164.97 120.041 160.951H120.785C121.082 165.119 117.512 170.925 111.414 176.135C107.1 179.708 94.0095 189.087 74.2254 189.087Z" fill="black"/>
<path d="M52.5075 216.776C42.9873 207.397 40.6073 198.167 40.161 195.934C34.8059 194.297 31.2358 191.915 29.3021 190.129C30.9383 196.083 33.9134 201.145 33.9134 201.294L32.5746 202.038C32.4259 201.74 28.7071 195.19 27.2195 188.045L26.6245 185.216L28.4095 187.3C28.4095 187.3 32.5746 192.064 41.0535 194.595L41.4998 194.743V195.19C41.4998 195.339 43.1361 205.462 53.4 215.585L52.5075 216.776Z" fill="#009444"/>
<path d="M92.6706 224.665C80.0266 220.944 75.4153 206.057 74.5228 202.782C62.4738 203.973 56.0775 201.442 53.3999 199.805C54.2924 203.527 56.97 212.756 65.0026 219.157L64.1101 220.348C53.3999 211.714 51.7636 198.763 51.6149 198.167L51.3174 196.083L52.8049 197.423C52.8049 197.423 58.9038 202.782 74.9691 200.996H75.5641L75.7128 201.591C75.7128 201.74 80.0266 219.157 93.1169 223.028L92.6706 224.665Z" fill="#009444"/>
<path d="M67.9777 206.653C58.4576 206.653 52.5075 202.484 52.21 202.187L53.1025 200.996C53.2512 200.996 62.1764 207.397 75.7129 204.271L76.0104 205.759C73.0353 206.355 70.3578 206.653 67.9777 206.653Z" fill="#009444"/>
<path d="M41.3506 199.061C31.3842 196.381 28.1116 192.213 27.9629 192.064L29.1529 191.171L28.5579 191.617L29.1529 191.171C29.1529 191.171 32.2767 195.041 41.6481 197.572L41.3506 199.061Z" fill="#009444"/>
<path d="M98.3229 93.8125C88.0589 77.4373 92.224 55.4052 107.843 50.9393C115.281 48.8551 121.528 52.5768 126.14 57.1916C123.313 53.9166 120.636 51.3858 117.958 49.7483C111.711 45.5801 98.1741 44.3892 98.1741 44.3892C84.3401 48.5574 78.0925 42.9005 78.0925 42.9005C11.1538 49.5995 19.3352 164.226 19.3352 164.226C19.3352 164.226 20.674 183.132 56.2259 190.426C91.7778 197.721 115.727 181.792 119.892 172.414C124.057 162.886 117.809 159.164 117.958 146.362C118.107 133.56 123.462 124.777 123.462 124.777C123.462 124.777 108.587 110.337 98.3229 93.8125Z" fill="url(#paint9_linear_88_1068)"/>
<path d="M219.557 79.9681C218.069 74.1624 215.392 75.7999 215.392 75.7999C215.392 69.9941 211.227 71.3339 211.227 71.3339C211.078 65.677 205.871 66.4214 205.871 66.4214C205.871 66.4214 205.425 61.8065 197.541 63.5929C189.509 65.5282 189.509 71.9294 189.509 71.9294L187.575 74.9067C185.046 81.0102 190.104 86.6671 190.104 86.6671C175.526 93.0683 158.122 108.997 158.122 108.997C158.122 108.997 149.94 95.4501 143.247 83.8386L110.521 110.486C117.512 118.822 123.314 124.628 123.314 124.628C134.47 136.09 147.263 145.469 157.824 143.087C183.112 137.728 204.979 98.7252 204.979 98.7252C216.582 99.3206 221.044 85.9228 219.557 79.9681Z" fill="url(#paint10_linear_88_1068)"/>
<path d="M137.445 73.8646C133.726 67.1657 129.859 61.5088 125.991 57.1917C121.38 52.7257 115.132 48.8552 107.694 50.9394C92.0755 55.4053 87.9104 77.4374 98.1743 93.8126C102.042 99.9161 106.356 105.722 110.521 110.634L143.246 83.9875C141.015 80.2659 138.933 76.6931 137.445 73.8646Z" fill="url(#paint11_linear_88_1068)"/>
<path d="M102.042 10.7456C104.273 16.7002 100.554 18.9332 98.6205 18.9332C96.6867 18.9332 94.4554 18.4866 94.0091 22.3571C93.5629 26.2276 92.5216 25.0367 92.5216 25.0367L91.7778 20.8684C86.869 18.9332 86.1253 23.8457 86.1253 23.8457C84.6377 30.5447 89.9928 30.247 89.9928 30.247C89.6953 34.7129 83.4477 34.1175 80.3239 33.6709C79.2826 39.03 77.9438 43.0494 77.9438 43.0494C77.9438 43.0494 85.679 54.512 98.0255 44.5381C98.0255 44.5381 97.8767 40.9653 99.8105 38.7323C101.744 36.4993 105.166 39.6255 110.074 39.1789C114.983 38.5834 113.644 33.3731 113.049 31.1402C112.454 28.9072 113.644 27.5674 113.644 27.5674C113.644 27.5674 113.644 27.5674 116.62 27.4185C119.595 27.2697 118.405 25.781 118.405 25.781C118.405 25.781 112.901 25.0367 114.24 20.1241C115.578 15.2115 112.454 11.4899 112.454 11.4899H112.603C108.587 9.85239 102.042 10.7456 102.042 10.7456Z" fill="url(#paint12_linear_88_1068)"/>
<path d="M182.963 48.2597L180.583 44.5381C181.029 50.6416 175.823 48.7063 175.823 48.7063L175.674 48.8552L177.757 52.1302C178.501 52.428 182.219 53.0234 182.963 48.2597Z" fill="white"/>
<path d="M180.583 44.5381L178.65 41.5608C178.65 41.5608 176.121 38.1369 173.443 40.221C170.766 42.3052 173.294 45.2825 173.294 45.2825L175.675 49.0041L175.823 48.8552C175.823 48.7064 181.03 50.6416 180.583 44.5381Z" fill="#DA6CAA"/>
<path d="M198.136 72.2271L183.112 48.2598C182.368 53.0235 178.501 52.428 177.906 52.2791L193.525 77.2885C199.177 77.4374 198.136 72.2271 198.136 72.2271Z" fill="#F15A29"/>
<path d="M205.871 68.952C205.574 68.952 205.276 68.6542 205.276 68.3565V66.4213C205.276 66.1235 205.574 65.8258 205.871 65.8258C206.169 65.8258 206.466 66.1235 206.466 66.4213V68.3565C206.466 68.6542 206.169 68.952 205.871 68.952Z" fill="#A660A6"/>
<path d="M211.226 74.0134C210.929 74.0134 210.631 73.7157 210.631 73.418V71.3339C210.631 71.0361 210.929 70.7384 211.226 70.7384C211.524 70.7384 211.821 71.0361 211.821 71.3339V73.418C211.821 73.7157 211.524 74.0134 211.226 74.0134Z" fill="#A660A6"/>
<path d="M215.54 78.6283C215.243 78.6283 214.945 78.4794 214.945 78.1817L214.796 75.9487C214.796 75.651 214.945 75.3533 215.243 75.3533C215.54 75.3533 215.838 75.5021 215.838 75.7999L215.986 78.0329C216.135 78.3306 215.986 78.6283 215.54 78.6283Z" fill="#A660A6"/>
<path d="M138.04 64.0395C138.04 64.0395 134.619 54.661 139.974 51.5348C145.329 48.4086 151.428 56.7451 149.643 59.7224C147.858 62.6997 142.205 59.1269 142.205 59.1269L138.04 64.0395Z" fill="url(#paint13_linear_88_1068)"/>
<path d="M165.262 75.5021C158.717 65.8258 146.668 65.3792 146.519 65.3792V64.6349C146.668 64.6349 159.163 65.0815 165.857 75.0555L165.262 75.5021Z" fill="#8B5E3C"/>
<path d="M169.278 70.8873C161.692 62.402 150.535 60.7645 150.535 60.7645L150.684 60.0201C150.833 60.0201 162.138 61.6577 169.873 70.4407L169.278 70.8873Z" fill="#8B5E3C"/>
<path d="M172.699 66.1235C164.667 56.8939 153.659 56.0007 153.51 56.0007V55.2563C153.659 55.2563 164.964 56.1495 173.146 65.6769L172.699 66.1235Z" fill="#8B5E3C"/>
<path d="M175.377 61.8065C169.278 52.5769 156.783 51.9814 156.634 51.9814V51.2371C156.783 51.2371 169.576 51.9814 175.972 61.5088L175.377 61.8065Z" fill="#8B5E3C"/>
<path d="M149.345 95.1523C149.345 95.1523 155.295 93.8125 158.121 88.0068C158.121 88.0068 154.551 84.434 150.089 81.9033C145.775 79.2237 139.974 78.1816 139.974 78.1816L149.345 95.1523Z" fill="url(#paint14_linear_88_1068)"/>
<path d="M372.772 105.871L333.203 128.498L271.322 110.337L301.37 93.0682" fill="#D1D3D4"/>
<path d="M362.806 86.9648L370.69 108.253C370.69 108.253 376.045 107.657 375.747 101.851L365.781 77.7351L362.806 86.9648Z" fill="#808285"/>
<path d="M370.838 108.252L357.599 105.424L362.805 86.9647L370.838 108.252Z" fill="#414042"/>
<path d="M337.518 117.482L289.917 108.401C281.884 106.913 277.273 99.0228 279.653 90.8352L289.024 58.0848C291.404 49.8972 299.883 44.5381 307.767 46.0267L355.368 55.1075C363.401 56.5962 370.987 64.486 368.756 72.6736L359.384 105.424C357.153 113.612 345.55 118.971 337.518 117.482Z" fill="#4A2767"/>
<path d="M334.543 117.184L286.942 108.104C278.909 106.615 274.298 98.7251 276.678 90.5375L286.049 57.7871C288.429 49.5995 296.908 44.2403 304.792 45.729L352.393 54.8098C360.426 56.2984 365.037 64.1883 362.657 72.3759L353.285 105.126C351.054 113.314 342.575 118.822 334.543 117.184Z" fill="#6D6E71"/>
<path d="M331.716 110.486L293.041 103.042C286.496 101.851 282.777 95.3012 284.711 88.7512L292.297 62.1042C294.231 55.5541 301.073 51.0882 307.618 52.2791L346.294 59.7224C352.839 60.9133 356.558 67.4634 354.624 74.0135L347.038 100.66C345.104 107.359 338.261 111.825 331.716 110.486Z" fill="white"/>
<path d="M343.914 98.5763L350.608 75.0555C352.244 69.2498 348.971 63.444 343.17 62.402L308.957 55.8519C303.156 54.8098 297.057 58.6803 295.42 64.4861L288.727 88.0068C288.132 90.091 288.132 92.1751 288.727 93.9615C306.131 97.2365 323.535 100.214 340.79 103.787C342.129 102.447 343.319 100.66 343.914 98.5763Z" fill="#AEE2FA"/>
<path d="M288.727 93.9614C289.768 97.2365 292.445 99.916 296.164 100.66L330.377 107.21C334.096 107.955 337.964 106.466 340.641 103.787C323.535 100.214 306.131 97.2365 288.727 93.9614Z" fill="#A69BCB"/>
<path d="M300.181 81.0101L297.949 89.6443L305.982 91.133L307.916 82.3499L300.181 81.0101Z" fill="#DA6CAA"/>
<path d="M308.659 79.2238L305.982 91.133L315.8 93.366L318.18 80.1169L308.659 79.2238Z" fill="#4BB750"/>
<path d="M319.519 76.8419L315.8 93.2171L326.51 95.4501L330.08 77.2885C330.08 77.4374 319.221 77.1396 319.519 76.8419Z" fill="#92278F"/>
<path d="M330.972 72.376L326.51 95.599L336.625 97.5342L341.683 72.9714L330.972 72.376Z" fill="#4A2767"/>
<path d="M301.371 73.4181L301.966 75.651L311.188 71.7805L313.42 75.9488L322.345 72.6737L323.386 74.9067L326.807 70.8873L321.601 68.8032L321.898 70.5896L314.461 73.1203L312.081 69.1009L301.371 73.4181Z" fill="#F7941D"/>
<g opacity="0.47">
<path d="M276.083 53.6189C275.934 53.6189 275.636 53.6189 275.488 53.47L266.414 50.6416C265.373 50.3439 264.926 49.3018 265.224 48.2597C265.521 47.2177 266.563 46.7711 267.604 47.0688L276.678 49.8973C277.719 50.195 278.165 51.2371 277.868 52.2791C277.719 53.1723 276.975 53.6189 276.083 53.6189Z" fill="#757679"/>
<path d="M282.033 42.7517C281.735 42.7517 281.289 42.6029 280.992 42.454L274 38.1369C273.108 37.5414 272.81 36.4994 273.405 35.6062C274 34.713 275.19 34.4153 276.083 35.0107L283.074 39.3278C283.967 39.9233 284.264 40.9653 283.669 41.8585C283.223 42.454 282.628 42.7517 282.033 42.7517Z" fill="#757679"/>
<path d="M290.661 36.2016C290.066 36.2016 289.47 35.9039 289.173 35.4573L285.454 30.5447C284.859 29.8004 285.008 28.6095 285.9 28.014C286.793 27.4186 287.983 27.5674 288.578 28.3118L292.297 33.2243C292.892 33.9687 292.743 35.1596 291.851 35.755C291.404 36.0528 290.958 36.2016 290.661 36.2016Z" fill="#757679"/>
</g>
<defs>
<linearGradient id="paint0_linear_88_1068" x1="139.836" y1="95.08" x2="288.597" y2="9.25773" gradientUnits="userSpaceOnUse">
<stop stop-color="#A7A9AC" stop-opacity="0"/>
<stop offset="0.2302" stop-color="#AAACAE" stop-opacity="0.2304"/>
<stop offset="0.4218" stop-color="#B2B4B6" stop-opacity="0.4222"/>
<stop offset="0.5995" stop-color="#C0C2C4" stop-opacity="0.6"/>
<stop offset="0.7687" stop-color="#D5D6D8" stop-opacity="0.7694"/>
<stop offset="0.9305" stop-color="#EFEFF0" stop-opacity="0.9313"/>
<stop offset="0.9991" stop-color="white"/>
</linearGradient>
<linearGradient id="paint1_linear_88_1068" x1="98.1547" y1="39.6383" x2="98.1547" y2="3.34581" gradientUnits="userSpaceOnUse">
<stop stop-color="#693879"/>
<stop offset="0.6202" stop-color="#6F66AE"/>
</linearGradient>
<linearGradient id="paint2_linear_88_1068" x1="0.000687104" y1="189.602" x2="456.073" y2="189.602" gradientUnits="userSpaceOnUse">
<stop offset="0.0393229" stop-color="#DDA8CD"/>
<stop offset="0.1299" stop-color="#DDA5CB"/>
<stop offset="0.2211" stop-color="#DC9CC5"/>
<stop offset="0.3125" stop-color="#DC8EBD"/>
<stop offset="0.4036" stop-color="#DA7AB1"/>
<stop offset="0.4503" stop-color="#DA6CAA"/>
<stop offset="0.5109" stop-color="#D469A8"/>
<stop offset="0.6" stop-color="#C561A5"/>
<stop offset="0.7067" stop-color="#AD55A0"/>
<stop offset="0.826" stop-color="#8E469B"/>
<stop offset="0.8811" stop-color="#7F3F98"/>
</linearGradient>
<linearGradient id="paint3_linear_88_1068" x1="367.501" y1="133.341" x2="420.588" y2="133.341" gradientUnits="userSpaceOnUse">
<stop offset="0.0921074" stop-color="#006838"/>
<stop offset="0.282" stop-color="#006A39"/>
<stop offset="0.4864" stop-color="#0B703A"/>
<stop offset="0.6976" stop-color="#1F7C3C"/>
<stop offset="0.9122" stop-color="#348D3E"/>
<stop offset="0.9605" stop-color="#38923F"/>
</linearGradient>
<linearGradient id="paint4_linear_88_1068" x1="164.284" y1="200.985" x2="241.541" y2="200.985" gradientUnits="userSpaceOnUse">
<stop offset="0.0463742" stop-color="#4A2767"/>
<stop offset="0.9959" stop-color="#654EA0"/>
</linearGradient>
<linearGradient id="paint5_linear_88_1068" x1="111.565" y1="150.54" x2="159.477" y2="150.54" gradientUnits="userSpaceOnUse">
<stop offset="0.0921074" stop-color="#006838"/>
<stop offset="0.282" stop-color="#006A39"/>
<stop offset="0.4864" stop-color="#0B703A"/>
<stop offset="0.6976" stop-color="#1F7C3C"/>
<stop offset="0.9122" stop-color="#348D3E"/>
<stop offset="0.9605" stop-color="#38923F"/>
</linearGradient>
<linearGradient id="paint6_linear_88_1068" x1="164.333" y1="69.283" x2="230.519" y2="69.283" gradientUnits="userSpaceOnUse">
<stop offset="0.1644" stop-color="white"/>
<stop offset="1" stop-color="#FDBB33"/>
</linearGradient>
<linearGradient id="paint7_linear_88_1068" x1="132.419" y1="82.6296" x2="164.333" y2="82.6296" gradientUnits="userSpaceOnUse">
<stop offset="0.0921074" stop-color="#006838"/>
<stop offset="0.282" stop-color="#006A39"/>
<stop offset="0.4864" stop-color="#0B703A"/>
<stop offset="0.6976" stop-color="#1F7C3C"/>
<stop offset="0.9122" stop-color="#348D3E"/>
<stop offset="0.9605" stop-color="#38923F"/>
</linearGradient>
<linearGradient id="paint8_linear_88_1068" x1="132.537" y1="66.4386" x2="187.467" y2="66.4386" gradientUnits="userSpaceOnUse">
<stop offset="0.1644" stop-color="white"/>
<stop offset="1" stop-color="#FDBB33"/>
</linearGradient>
<linearGradient id="paint9_linear_88_1068" x1="72.4133" y1="192.104" x2="72.4133" y2="42.8042" gradientUnits="userSpaceOnUse">
<stop stop-color="#752B90"/>
<stop offset="0.6165" stop-color="#808285"/>
</linearGradient>
<linearGradient id="paint10_linear_88_1068" x1="110.568" y1="103.433" x2="219.842" y2="103.433" gradientUnits="userSpaceOnUse">
<stop stop-color="#F9CDE1"/>
<stop offset="0.2648" stop-color="#F2C3DB"/>
<stop offset="0.7206" stop-color="#E5AACD"/>
<stop offset="1" stop-color="#DC99C4"/>
</linearGradient>
<linearGradient id="paint11_linear_88_1068" x1="92.64" y1="80.5313" x2="143.225" y2="80.5313" gradientUnits="userSpaceOnUse">
<stop stop-color="#752B90"/>
<stop offset="1" stop-color="#808285"/>
</linearGradient>
<linearGradient id="paint12_linear_88_1068" x1="77.912" y1="29.4228" x2="118.699" y2="29.4228" gradientUnits="userSpaceOnUse">
<stop stop-color="#DC99C4"/>
<stop offset="0.2518" stop-color="#DE9DC6"/>
<stop offset="0.5228" stop-color="#E4A8CC"/>
<stop offset="0.8018" stop-color="#EDBAD6"/>
<stop offset="1" stop-color="#F9CDE1"/>
</linearGradient>
<linearGradient id="paint13_linear_88_1068" x1="136.91" y1="57.4583" x2="149.885" y2="57.4583" gradientUnits="userSpaceOnUse">
<stop stop-color="#DC99C4"/>
<stop offset="0.2518" stop-color="#DE9DC6"/>
<stop offset="0.5228" stop-color="#E4A8CC"/>
<stop offset="0.8018" stop-color="#EDBAD6"/>
<stop offset="1" stop-color="#F9CDE1"/>
</linearGradient>
<linearGradient id="paint14_linear_88_1068" x1="140.084" y1="86.7034" x2="158.146" y2="86.7034" gradientUnits="userSpaceOnUse">
<stop stop-color="#DC99C4"/>
<stop offset="0.2518" stop-color="#DE9DC6"/>
<stop offset="0.5228" stop-color="#E4A8CC"/>
<stop offset="0.8018" stop-color="#EDBAD6"/>
<stop offset="1" stop-color="#F9CDE1"/>
</linearGradient>
</defs>
</svg>
