<svg width="361" height="273" viewBox="0 0 361 273" fill="none" xmlns="http://www.w3.org/2000/svg">
<path d="M206.733 39.4382C206.248 50.2231 192.181 59.5561 173.748 59.9709C155.315 60.3857 141.006 51.8823 139.793 41.3048C137.61 22.0166 140.036 21.6017 172.778 20.7721C195.092 19.9425 207.704 15.5871 206.733 39.4382Z" fill="url(#paint0_linear_10_11792)"/>
<path d="M206.491 30.1053C206.733 40.8901 191.939 50.2232 173.506 50.638C155.073 51.0528 139.793 42.7568 139.55 31.9719C139.308 21.1871 154.103 11.854 172.536 11.4392C190.968 11.0244 206.248 19.3205 206.491 30.1053Z" fill="url(#paint1_linear_10_11792)"/>
<path d="M171.808 49.601C162.106 49.601 153.133 46.9048 147.312 42.342C143.674 39.4384 141.733 35.7052 141.491 31.972C141.248 21.8093 155.073 13.0985 172.293 12.6837C182.48 12.2689 192.181 15.1725 198.245 19.9427C201.883 22.8463 203.823 26.5795 204.066 30.3127C204.308 40.4754 190.483 49.1862 173.263 49.601C172.778 49.601 172.293 49.601 171.808 49.601ZM173.991 13.3059C173.506 13.3059 173.021 13.3059 172.536 13.3059C155.8 13.7207 142.218 22.0167 142.461 31.972C142.461 35.4978 144.401 39.0236 148.039 41.7198C153.86 46.49 163.319 48.9788 173.263 48.7714C189.998 48.3566 203.58 40.0606 203.338 30.1053C203.338 26.5795 201.398 23.0537 197.76 20.3575C192.181 16.0021 183.45 13.3059 173.991 13.3059Z" fill="#D09C6C"/>
<path d="M159.439 39.6455L166.957 32.5939C163.562 30.7273 161.379 29.0681 160.894 27.2015C160.409 25.3349 160.894 23.6757 162.834 21.809C164.774 19.9424 167.442 18.698 171.08 18.0758C174.718 17.4536 178.357 17.4536 182.237 18.2832L183.935 16.624L188.543 17.8684L186.845 19.5276C189.998 20.772 191.939 22.0164 192.909 23.6757C193.879 25.1275 193.636 26.9941 192.424 28.8607L183.935 26.9941C184.905 25.5423 184.662 24.2979 182.965 23.2609L175.931 29.8977C180.297 31.9717 182.722 33.8383 183.207 35.7049C183.692 37.5715 183.207 39.0233 181.267 40.8899C179.084 42.9639 176.174 44.4157 172.293 45.0379C168.412 45.8676 164.289 45.6601 159.924 44.8305L156.528 47.9416L151.92 46.6972L155.315 43.5861C151.92 42.3417 149.737 40.8899 148.767 39.0233C147.797 37.1567 148.039 35.0827 149.737 32.5939L158.468 34.4605C157.741 35.4975 157.741 36.3271 157.983 37.3641C158.226 38.1937 158.711 39.0233 159.439 39.6455ZM178.356 22.0164C176.901 21.809 175.446 22.0164 174.233 22.4312C173.021 22.846 171.808 23.2609 171.323 23.8831C170.595 24.5053 170.353 25.1275 170.595 25.7497C170.838 26.3719 171.323 27.2015 172.293 27.8237L178.356 22.0164ZM163.804 41.0973C165.502 41.3047 167.2 41.3047 168.898 41.0973C170.595 40.6825 171.808 40.0603 172.778 39.2307C173.506 38.4011 173.748 37.7789 173.506 36.9493C173.263 36.1197 172.293 35.2901 170.595 34.4605L163.804 41.0973Z" fill="#A97C50"/>
<path d="M85.4645 252.024C84.9794 262.809 70.9122 272.142 52.4794 272.557C34.0465 272.971 19.7368 264.468 18.5241 253.891C16.3412 234.602 18.7666 234.187 51.5092 233.358C73.8227 232.528 86.4346 228.173 85.4645 252.024Z" fill="url(#paint2_linear_10_11792)"/>
<path d="M85.2219 242.691C85.4645 253.476 70.6697 262.809 52.2368 263.224C33.8039 263.638 18.524 255.342 18.2815 244.558C18.039 233.773 32.8338 224.44 51.2666 224.025C69.6995 223.61 84.9794 231.906 85.2219 242.691Z" fill="url(#paint3_linear_10_11792)"/>
<path d="M50.5391 262.187C40.8376 262.187 31.8637 259.49 26.0428 254.928C22.4047 252.024 20.4644 248.291 20.2219 244.558C19.9794 234.395 33.804 225.684 51.0242 225.269C61.4533 225.062 70.9123 227.758 76.9757 232.528C80.6138 235.432 82.5541 239.165 82.7966 242.898C83.0392 253.061 69.2145 261.772 51.9943 262.187C51.5093 262.187 51.0242 262.187 50.5391 262.187ZM52.722 225.892C52.2369 225.892 51.7518 225.892 51.2667 225.892C34.5316 226.306 20.9495 234.602 21.192 244.558C21.192 248.083 23.1323 251.609 26.7704 254.305C32.5913 259.076 42.0503 261.564 51.9943 261.357C68.7295 260.942 82.3116 252.646 82.069 242.691C82.069 239.165 80.1287 235.639 76.4907 232.943C70.9123 228.588 62.1809 225.892 52.722 225.892Z" fill="#D09C6C"/>
<path d="M38.1697 252.231L45.6884 245.18C42.2928 243.313 40.11 241.654 39.6249 239.787C39.1398 237.921 39.6249 236.261 41.5652 234.395C43.5055 232.528 46.1734 231.284 49.8115 230.662C53.4496 230.039 57.0876 230.039 60.9682 230.869L62.666 229.21L67.2742 230.454L65.5765 232.113C68.7295 233.358 70.6698 234.602 71.6399 236.261C72.6101 237.713 72.3675 239.58 71.1548 241.446L62.666 239.58C63.6362 238.128 63.3936 236.884 61.6959 235.847L54.6623 242.483C59.028 244.557 61.4533 246.424 61.9384 248.291C62.666 249.95 61.9384 251.609 59.9981 253.476C57.8153 255.55 54.9048 257.002 51.0242 257.624C47.1436 258.453 43.0205 258.246 38.6548 257.416L35.2592 260.527L30.651 259.283L34.0466 256.172C30.651 254.928 28.4682 253.476 27.498 251.609C26.5279 249.743 26.7704 247.669 28.4682 245.18L37.1995 247.046C36.4719 248.083 36.4719 248.913 36.7145 249.95C36.957 250.78 37.4421 251.609 38.1697 252.231ZM57.0876 234.602C55.6324 234.395 54.1772 234.602 52.9645 235.017C51.7518 235.432 50.5391 235.847 50.054 236.469C49.3264 237.091 49.0839 237.713 49.3264 238.335C49.569 238.958 50.0541 239.787 51.0242 240.409L57.0876 234.602ZM42.5354 253.683C44.2331 253.891 45.9309 253.891 47.6287 253.683C49.3264 253.268 50.5391 252.646 51.5093 251.817C52.2369 250.987 52.4794 250.365 52.2369 249.535C51.9944 248.706 51.0242 247.876 49.3264 247.046L42.5354 253.683Z" fill="#A97C50"/>
<path d="M334.551 51.2599C333.823 71.1704 307.872 88.1773 273.916 89.0069C239.961 89.8365 213.767 74.2814 211.584 54.5783C207.704 19.1128 212.069 18.4906 272.219 16.8314C313.45 15.7944 336.249 7.70573 334.551 51.2599Z" fill="url(#paint4_linear_10_11792)"/>
<path d="M334.066 34.4606C334.551 54.3711 307.387 71.378 273.431 72.2076C239.476 73.0372 211.584 57.6895 211.099 37.7791C210.614 17.8686 237.778 0.86171 271.734 0.0321064C305.689 -0.797497 333.581 14.5502 334.066 34.4606Z" fill="url(#paint5_linear_10_11792)"/>
<path d="M270.763 70.1334C252.816 70.1334 236.323 65.1558 225.894 56.8598C219.103 51.4673 215.465 44.8305 215.222 37.9863C214.737 19.3202 240.204 3.35033 271.734 2.52073C290.651 2.10593 308.357 7.08355 319.271 15.7944C326.062 21.1868 329.7 27.8236 329.943 34.6679C330.428 53.334 304.961 69.3038 273.431 70.1334C272.704 70.1334 271.734 70.1334 270.763 70.1334ZM274.644 3.55773C273.674 3.55773 272.946 3.55773 271.976 3.55773C241.174 4.38734 216.677 19.735 216.92 37.5715C217.163 44.2083 220.558 50.4303 227.107 55.6154C237.778 64.3262 254.998 69.0964 273.431 68.4742C304.234 67.6446 328.73 52.2969 328.487 34.4605C328.245 27.8236 324.849 21.6016 318.301 16.4166C308.114 8.32796 292.107 3.55773 274.644 3.55773Z" fill="#D09C6C"/>
<path d="M248.207 51.6748L262.032 38.8159C255.726 35.4975 251.845 32.1791 250.875 29.0681C249.905 25.9571 251.118 22.4312 254.513 19.1128C258.151 15.7944 263.245 13.513 269.551 12.2686C276.099 11.0242 282.89 11.2316 289.924 12.6834L293.077 9.57239L301.566 11.8538L298.413 14.9648C304.234 17.0388 307.872 19.5276 309.569 22.4312C311.267 25.3349 311.025 28.4459 308.599 31.7643L292.834 28.6533C294.532 25.9571 294.047 23.6757 291.137 21.809L278.282 33.8383C286.286 37.7789 290.651 41.3047 291.864 44.2083C293.077 47.3194 291.864 50.4304 288.226 53.7488C284.345 57.482 278.767 59.9708 271.734 61.4226C264.7 62.8744 257.181 62.667 248.935 61.2152L242.872 67.0225L234.383 64.741L240.446 59.1412C234.14 56.8598 230.017 53.9562 228.319 50.6378C226.379 47.3194 227.107 43.3787 230.26 39.0233L246.51 42.3417C245.297 44.2083 245.054 45.8676 245.539 47.5268C245.539 49.186 246.51 50.6378 248.207 51.6748ZM282.89 19.3202C280.222 19.1128 277.554 19.3202 275.129 19.9424C272.704 20.5646 270.763 21.3942 269.551 22.6387C268.338 23.6757 267.853 24.9201 268.095 26.1645C268.338 27.4089 269.308 28.6533 271.248 29.8977L282.89 19.3202ZM256.211 54.5784C259.364 54.9932 262.517 54.9932 265.67 54.371C268.823 53.7488 271.006 52.7118 272.704 51.0526C274.159 49.6008 274.644 48.3564 274.159 46.9046C273.674 45.4527 271.976 44.0009 269.066 42.5491L256.211 54.5784Z" fill="#A97C50"/>
<path d="M240.931 192.293C240.931 192.293 257.424 204.737 253.543 223.818C250.875 237.921 237.051 244.973 230.017 247.669C239.719 245.595 248.207 240.617 253.543 237.299C266.155 231.077 336.006 164.294 352.499 136.087C374.327 101.244 347.163 80.5037 347.163 80.5037C303.263 141.065 240.931 192.293 240.931 192.293Z" fill="url(#paint6_linear_10_11792)"/>
<path d="M104.382 33.8384L6.88229 120.947C3.97184 124.265 2.51661 127.584 1.789 130.487L240.931 192.5C240.931 192.5 303.506 141.065 347.163 80.9184C347.163 80.9184 157.498 26.5794 137.368 23.261C117.237 19.9426 104.382 33.8384 104.382 33.8384Z" fill="url(#paint7_linear_10_11792)"/>
<path d="M240.931 192.293L1.78899 130.28C1.06138 133.806 0.818842 134.22 0.818842 134.22C-0.393847 137.331 -0.636384 144.59 2.75914 153.301C3.7293 155.997 4.45691 157.449 6.39721 159.316C7.12482 159.731 8.09497 160.146 9.30766 160.56C19.0092 164.708 202.853 206.603 202.853 206.603C202.853 206.603 215.465 209.714 213.767 218.633C212.797 223.195 210.129 224.855 200.427 223.818C191.454 222.988 9.30766 179.019 9.30766 179.019C9.30766 179.019 3.00168 177.36 2.75914 172.797C1.54646 174.456 1.30392 175.908 1.30392 175.908C1.30392 175.908 0.0912286 179.641 0.818842 188.767C1.54646 197.892 8.58005 201.211 8.58005 201.211C8.58005 201.211 178.356 241.032 208.674 247.254C216.192 249.535 223.469 249.328 230.017 247.876C237.051 245.18 250.875 237.921 253.543 224.025C257.181 204.737 240.931 192.293 240.931 192.293Z" fill="url(#paint8_linear_10_11792)"/>
<path d="M21.9196 173.626C34.7741 177.36 195.577 214.692 195.577 214.692C195.577 214.692 211.584 219.877 208.431 209.299C205.763 207.64 202.853 207.018 202.853 207.018C202.853 207.018 19.0092 164.916 9.30767 160.768C8.09498 160.145 7.12483 159.731 6.39722 159.523C10.0353 162.842 14.886 164.501 14.886 164.501C14.886 164.501 9.30767 170.101 21.9196 173.626Z" fill="black"/>
<path d="M208.189 209.3C211.584 219.877 195.334 214.692 195.334 214.692C195.334 214.692 34.7742 177.36 21.9197 173.627C9.0652 169.893 14.6436 164.294 14.6436 164.294C14.6436 164.294 12.7033 165.331 7.36743 168.442C4.94206 169.893 3.48683 171.345 2.75922 172.59C3.00175 176.945 9.30774 178.812 9.30774 178.812C9.30774 178.812 191.454 222.988 200.428 224.025C210.129 225.062 212.797 223.403 213.767 218.84C214.737 214.07 211.342 210.959 208.189 209.3Z" fill="url(#paint9_linear_10_11792)"/>
<path d="M31.3787 125.717H31.1361L21.6771 123.435C20.9495 123.228 20.707 122.606 20.9495 122.191C21.1921 121.569 21.9197 121.361 22.4048 121.569L31.6212 123.85C32.3488 124.058 32.5913 124.68 32.3488 125.095C32.3488 125.509 31.8637 125.717 31.3787 125.717Z" fill="#808285"/>
<path d="M261.79 197.892C261.305 197.892 260.819 197.685 260.577 197.27C258.152 191.878 254.028 187.315 248.45 183.582C247.965 183.167 247.965 182.545 248.207 182.13C248.693 181.715 249.42 181.715 249.905 181.922C255.726 185.863 259.849 190.841 262.517 196.44C262.76 197.063 262.517 197.477 261.79 197.892C262.032 197.892 262.275 197.892 261.79 197.892ZM230.745 176.53H230.502L210.614 171.552C209.886 171.345 209.644 170.723 209.886 170.308C210.129 169.686 210.857 169.478 211.342 169.686L231.23 174.663C231.957 174.871 232.2 175.493 231.957 175.908C231.715 176.115 231.23 176.53 230.745 176.53ZM190.969 166.367H190.726L170.838 161.39C170.11 161.182 169.868 160.56 170.11 160.145C170.353 159.523 171.08 159.316 171.566 159.523L191.454 164.501C192.181 164.708 192.424 165.33 192.181 165.745C191.939 165.953 191.454 166.367 190.969 166.367ZM150.95 156.205H150.707L130.819 151.227C130.092 151.02 129.849 150.397 130.092 149.983C130.334 149.36 131.062 149.153 131.547 149.36L151.435 154.338C152.163 154.545 152.405 155.168 152.163 155.582C151.92 155.997 151.435 156.205 150.95 156.205ZM111.174 146.042H110.931L91.043 141.064C90.3154 140.857 90.0728 140.235 90.3154 139.82C90.5579 139.198 91.2855 138.99 91.7706 139.198L111.659 144.175C112.386 144.383 112.629 145.005 112.386 145.42C112.144 145.835 111.659 146.042 111.174 146.042ZM71.1549 135.879H70.9124L51.0243 130.902C50.2966 130.694 50.0541 130.072 50.2966 129.657C50.5392 129.035 51.2668 128.828 51.7519 129.035L71.64 134.013C72.3676 134.22 72.6101 134.842 72.3676 135.257C72.125 135.672 71.64 135.879 71.1549 135.879Z" fill="#808285"/>
<path d="M263.487 223.403H263.245C262.517 223.195 262.275 222.781 262.275 222.158C263.002 219.462 263.487 216.766 263.73 214.07C263.73 213.448 264.457 213.033 264.943 213.033C265.67 213.033 266.155 213.655 266.155 214.07C265.913 216.766 265.428 219.462 264.7 222.366C264.457 223.195 263.972 223.403 263.487 223.403Z" fill="#808285"/>
<path d="M351.286 133.391C351.286 133.391 351.043 133.183 351.286 133.391C350.316 133.183 350.073 132.768 350.073 132.146C350.316 130.694 350.558 129.035 350.801 127.583C350.801 126.961 351.528 126.546 352.256 126.754C352.984 126.754 353.469 127.376 353.226 127.998C352.984 129.45 352.741 131.109 352.499 132.768C352.256 132.976 351.771 133.391 351.286 133.391ZM351.528 112.236C351.043 112.236 350.558 111.821 350.316 111.406C349.103 105.806 346.92 100.829 343.525 96.2659C343.282 95.8511 343.282 95.2289 344.01 94.8141C344.495 94.6067 345.222 94.6067 345.708 95.2289C349.103 99.9991 351.528 105.184 352.741 110.991C352.741 111.406 352.256 112.028 351.528 112.236ZM329.215 87.9698C329.215 87.9698 328.972 87.9698 328.73 87.9698L310.297 82.9922C309.569 82.7848 309.327 82.1626 309.569 81.7478C309.812 81.1256 310.54 80.9182 311.025 81.1256L329.458 86.1032C330.185 86.3106 330.428 86.9328 330.185 87.3476C330.185 87.7624 329.7 87.9698 329.215 87.9698ZM292.107 78.0146C292.107 78.0146 291.864 78.0146 291.622 78.0146L273.189 73.037C272.461 72.8296 272.219 72.2074 272.461 71.7926C272.704 71.1704 273.431 70.963 273.916 71.1704L292.349 76.148C293.077 76.3554 293.319 76.9776 293.077 77.3924C293.077 77.5998 292.592 78.0146 292.107 78.0146ZM255.241 67.8519C255.241 67.8519 254.998 67.8519 254.756 67.8519L236.323 62.8743C235.595 62.6669 235.353 62.0447 235.595 61.6299C235.838 61.0077 236.566 60.8003 237.051 61.0077L255.484 65.9853C256.211 66.1927 256.454 66.8149 256.211 67.2297C256.211 67.6446 255.726 67.8519 255.241 67.8519ZM218.133 57.8967C218.133 57.8967 217.89 57.8967 217.648 57.8967L199.215 52.9191C198.487 52.7117 198.245 52.0895 198.487 51.6747C198.73 51.2599 199.457 50.8451 199.942 51.0525L218.375 56.0301C219.103 56.2375 219.345 56.8597 219.103 57.2745C219.103 57.4819 218.618 57.8967 218.133 57.8967ZM181.267 47.7341C181.267 47.7341 181.024 47.7341 180.782 47.7341L162.349 42.7564C161.621 42.549 161.379 41.9268 161.621 41.512C161.864 40.8898 162.592 40.6824 163.077 40.8898L181.509 45.8674C182.237 46.0748 182.48 46.6971 182.237 47.1119C182.237 47.5267 181.752 47.7341 181.267 47.7341ZM144.159 37.7788C144.159 37.7788 143.916 37.7788 143.674 37.7788L125.241 32.8012C124.513 32.5938 124.271 31.9716 124.513 31.5568C124.756 30.9346 125.483 30.7272 125.968 30.9346L144.401 35.9122C145.129 36.1196 145.371 36.7418 145.129 37.1566C145.129 37.364 144.644 37.7788 144.159 37.7788Z" fill="#808285"/>
<path d="M43.263 89.2144C53.4496 92.9476 136.64 109.954 136.64 109.954C136.64 109.954 160.409 111.614 171.808 97.0956C183.207 82.5776 185.148 75.3185 176.659 67.0225C176.659 67.0225 105.11 50.0156 92.9833 45.2454C80.8564 40.4752 76.0056 44.2084 76.0056 44.2084L34.7742 81.9553C32.1063 83.6146 30.8936 85.4812 30.6511 87.5552L31.1361 88.1774C31.1361 88.1774 33.0764 85.6886 43.263 89.2144Z" fill="url(#paint10_linear_10_11792)"/>
<path d="M176.659 67.0226C185.148 75.3186 183.45 82.5777 171.808 97.0957C160.166 111.614 136.64 109.955 136.64 109.955C136.64 109.955 53.692 92.9477 43.2629 89.2145C32.8338 85.4813 31.136 88.1775 31.136 88.1775L30.6509 87.5553C29.9233 91.9107 33.0763 96.4735 33.0763 96.4735C33.0763 96.4735 108.263 113.48 127.666 117.628C147.069 121.776 167.685 120.739 183.45 98.9623C199.215 77.1852 176.659 67.0226 176.659 67.0226Z" fill="url(#paint11_linear_10_11792)"/>
<path d="M143.916 93.3626C151.953 93.3626 158.468 89.5555 158.468 84.8591C158.468 80.1628 151.953 76.3557 143.916 76.3557C135.879 76.3557 129.364 80.1628 129.364 84.8591C129.364 89.5555 135.879 93.3626 143.916 93.3626Z" fill="url(#paint12_linear_10_11792)"/>
<path d="M289.924 147.494L289.439 147.079L246.267 135.257L230.745 137.954C229.532 137.124 227.592 136.502 225.651 136.502C221.528 136.502 218.375 138.783 218.375 141.479C218.375 144.176 221.528 146.457 225.651 146.457C228.804 146.457 231.23 145.213 232.442 143.346L244.569 141.272L285.558 152.679C288.469 155.168 304.961 170.723 301.323 195.196L307.387 189.389C310.055 160.353 290.894 148.116 289.924 147.494Z" fill="url(#paint13_linear_10_11792)"/>
<path d="M299.14 137.746L298.655 137.331L246.267 122.813C245.539 120.739 242.629 119.08 239.233 119.08C235.11 119.08 231.957 121.362 231.957 124.058C231.957 126.754 235.11 129.035 239.233 129.035C240.689 129.035 241.901 128.828 242.872 128.413L295.017 142.931C297.928 145.42 314.42 160.975 310.782 185.448L316.846 179.641C319.271 150.398 299.868 138.368 299.14 137.746Z" fill="url(#paint14_linear_10_11792)"/>
<path d="M308.114 128.413L307.629 127.998L265.428 116.591L265.67 116.384L261.547 108.503C262.275 107.673 262.76 106.843 262.76 105.806C262.76 103.11 259.607 100.829 255.484 100.829C251.36 100.829 248.207 103.11 248.207 105.806C248.207 108.295 251.118 110.369 254.756 110.784L259.849 121.569L303.991 133.806C306.902 136.294 323.394 151.849 319.756 176.323L325.819 170.516C328.245 141.065 309.084 129.035 308.114 128.413Z" fill="url(#paint15_linear_10_11792)"/>
<defs>
<linearGradient id="paint0_linear_10_11792" x1="206.786" y1="39.3619" x2="139.253" y2="41.3734" gradientUnits="userSpaceOnUse">
<stop offset="0.031851" stop-color="#603913"/>
<stop offset="0.1711" stop-color="#A97C50"/>
<stop offset="0.6011" stop-color="#A97C50"/>
<stop offset="1" stop-color="#603913"/>
</linearGradient>
<linearGradient id="paint1_linear_10_11792" x1="186.416" y1="50.0048" x2="165.099" y2="9.25993" gradientUnits="userSpaceOnUse">
<stop offset="0.2992" stop-color="#FDBB33"/>
<stop offset="0.9955" stop-color="#F9E932"/>
</linearGradient>
<linearGradient id="paint2_linear_10_11792" x1="85.5133" y1="251.953" x2="17.9806" y2="253.964" gradientUnits="userSpaceOnUse">
<stop offset="0.031851" stop-color="#603913"/>
<stop offset="0.1711" stop-color="#A97C50"/>
<stop offset="0.6011" stop-color="#A97C50"/>
<stop offset="1" stop-color="#603913"/>
</linearGradient>
<linearGradient id="paint3_linear_10_11792" x1="65.1438" y1="262.595" x2="43.8269" y2="221.851" gradientUnits="userSpaceOnUse">
<stop offset="0.2992" stop-color="#FDBB33"/>
<stop offset="0.9955" stop-color="#F9E932"/>
</linearGradient>
<linearGradient id="paint4_linear_10_11792" x1="334.802" y1="51.2595" x2="211.025" y2="54.9464" gradientUnits="userSpaceOnUse">
<stop offset="0.031851" stop-color="#603913"/>
<stop offset="0.1711" stop-color="#A97C50"/>
<stop offset="0.6011" stop-color="#A97C50"/>
<stop offset="1" stop-color="#603913"/>
</linearGradient>
<linearGradient id="paint5_linear_10_11792" x1="297.468" y1="70.7663" x2="258.397" y2="-3.91192" gradientUnits="userSpaceOnUse">
<stop offset="0.2992" stop-color="#FDBB33"/>
<stop offset="0.9955" stop-color="#F9E932"/>
</linearGradient>
<linearGradient id="paint6_linear_10_11792" x1="230.115" y1="164.443" x2="360.963" y2="164.443" gradientUnits="userSpaceOnUse">
<stop offset="0.0897035" stop-color="#F1F2F2"/>
<stop offset="0.5771" stop-color="#BABCBE"/>
</linearGradient>
<linearGradient id="paint7_linear_10_11792" x1="1.87049" y1="107.647" x2="347.042" y2="107.647" gradientUnits="userSpaceOnUse">
<stop offset="0.0897035" stop-color="#F1F2F2"/>
<stop offset="0.5771" stop-color="#BABCBE"/>
</linearGradient>
<linearGradient id="paint8_linear_10_11792" x1="-0.00869675" y1="189.678" x2="254.192" y2="189.678" gradientUnits="userSpaceOnUse">
<stop stop-color="#808285"/>
<stop offset="1" stop-color="#752B90"/>
</linearGradient>
<linearGradient id="paint9_linear_10_11792" x1="2.79244" y1="194.363" x2="213.824" y2="194.363" gradientUnits="userSpaceOnUse">
<stop stop-color="#F9CDE1"/>
<stop offset="0.1835" stop-color="#EDBAD6"/>
<stop offset="0.4418" stop-color="#E4A8CC"/>
<stop offset="0.6927" stop-color="#DE9DC6"/>
<stop offset="0.9259" stop-color="#DC99C4"/>
</linearGradient>
<linearGradient id="paint10_linear_10_11792" x1="30.6009" y1="76.3814" x2="181.945" y2="76.3814" gradientUnits="userSpaceOnUse">
<stop offset="0.0897035" stop-color="#F1F2F2"/>
<stop offset="0.5771" stop-color="#BABCBE"/>
</linearGradient>
<linearGradient id="paint11_linear_10_11792" x1="30.4673" y1="93.2872" x2="188.944" y2="93.2872" gradientUnits="userSpaceOnUse">
<stop stop-color="#752B90"/>
<stop offset="1" stop-color="#808285"/>
</linearGradient>
<linearGradient id="paint12_linear_10_11792" x1="143.916" y1="93.3626" x2="143.916" y2="76.252" gradientUnits="userSpaceOnUse">
<stop stop-color="#603913"/>
<stop offset="0.6624" stop-color="#A97C50"/>
<stop offset="0.8376" stop-color="#FBB040"/>
<stop offset="1" stop-color="#603913"/>
</linearGradient>
<linearGradient id="paint13_linear_10_11792" x1="218.497" y1="165.241" x2="307.841" y2="165.241" gradientUnits="userSpaceOnUse">
<stop offset="0.00414664" stop-color="#654EA0"/>
<stop offset="0.6619" stop-color="#006838"/>
<stop offset="1" stop-color="#26623C"/>
</linearGradient>
<linearGradient id="paint14_linear_10_11792" x1="231.836" y1="152.149" x2="316.936" y2="152.149" gradientUnits="userSpaceOnUse">
<stop offset="0.00414664" stop-color="#654EA0"/>
<stop offset="0.6619" stop-color="#006838"/>
<stop offset="1" stop-color="#26623C"/>
</linearGradient>
<linearGradient id="paint15_linear_10_11792" x1="248.207" y1="138.279" x2="326.031" y2="138.279" gradientUnits="userSpaceOnUse">
<stop offset="0.00414664" stop-color="#654EA0"/>
<stop offset="0.6619" stop-color="#006838"/>
<stop offset="1" stop-color="#26623C"/>
</linearGradient>
</defs>
</svg>
