<svg width="28" height="28" viewBox="0 0 28 28" fill="none" xmlns="http://www.w3.org/2000/svg">
<g clip-path="url(#clip0_271_54)">
<path fill-rule="evenodd" clip-rule="evenodd" d="M23.3677 3.69421C23.197 2.86121 22.5495 1.93634 21.6142 1.38071C20.6245 0.79271 19.3042 0.611585 17.863 1.31159C16.2793 2.08071 15.7114 3.32234 15.616 4.45284C15.5312 5.46346 15.8234 6.36296 15.9284 6.68409L15.9424 6.72784C15.9905 6.87659 16.001 6.99121 15.9905 7.07434C15.9798 7.1577 15.9394 7.23441 15.8768 7.29046C15.5758 7.59146 12.3295 10.8071 9.96442 13.1495L9.93729 13.1766L7.56604 15.5251C7.38842 15.7018 7.28867 15.7675 7.24229 15.792C7.22129 15.8025 7.21867 15.8025 7.21604 15.8016H7.21254C7.11476 15.7925 7.01807 15.774 6.92379 15.7465L6.85204 15.729C6.6421 15.6752 6.4302 15.6294 6.21679 15.5916C5.52029 15.4735 4.62604 15.4035 3.73967 15.6642C2.81654 15.9355 1.96604 16.548 1.37367 17.6645C0.0427946 20.1705 1.64929 23.345 4.69867 23.4395C4.70129 23.4745 4.70304 23.5156 4.70304 23.5637C4.70304 24.3425 5.09417 25.4012 5.91317 26.159C6.79079 26.971 8.10504 27.3892 9.79117 26.9071L9.81479 26.9001L9.83755 26.8913C11.318 26.376 12.0557 25.193 12.2928 24.01C12.5054 22.946 12.3357 21.8032 11.9034 20.9737C11.9822 20.8783 12.0872 20.7602 12.2359 20.5966C12.8449 19.9246 18.1509 14.7612 20.6727 12.3182C20.7934 12.201 20.8862 12.1581 20.9719 12.1423C21.0647 12.1248 21.2379 12.1222 21.5407 12.236C22.6528 12.6516 24.8657 12.8686 26.452 10.6872C27.3244 9.48496 27.2264 8.00359 26.6927 6.86784C26.165 5.74609 25.1089 4.74159 23.7702 4.59284C23.6941 4.58815 23.6193 4.571 23.5488 4.54209L23.5462 4.53684C23.5111 4.45173 23.4865 4.36271 23.4727 4.27171C23.4582 4.19607 23.4448 4.12023 23.4324 4.04421L23.4272 4.01446C23.4105 3.91821 23.3922 3.80884 23.3677 3.69421ZM11.7923 20.776L11.794 20.7786L11.7923 20.776Z" fill="#1B1B1B"/>
<path d="M8.18302 16.1463C9.01689 15.3194 16.044 8.36057 16.4955 7.90907C16.9461 7.45845 16.9199 6.91157 16.7755 6.46007C16.5909 5.88607 15.7036 3.33195 18.2455 2.09907C20.5826 0.964198 22.2784 2.73432 22.5111 3.8692C22.6748 4.67157 22.6266 5.3462 23.6731 5.4617C25.5806 5.67432 27.0156 8.42182 25.7443 10.1718C24.4729 11.9218 22.743 11.7512 21.8479 11.4161C21.0315 11.1107 20.4943 11.2717 20.0629 11.6899C17.5613 14.1137 12.2211 19.3086 11.5868 20.0086C10.9524 20.7086 10.8308 20.8757 11.053 21.2467C11.8195 22.5181 11.8055 25.2796 9.54977 26.0653C6.73314 26.8721 5.57814 24.6303 5.57814 23.5628C5.57814 22.6476 5.20189 22.5741 4.76439 22.5653C2.37914 22.5172 1.09377 20.0567 2.14639 18.0739C3.10714 16.2644 4.78539 16.2356 6.06989 16.4543C7.09802 16.6293 7.34827 16.9741 8.18302 16.1463Z" fill="white"/>
<path d="M22.5994 4.36011C22.6956 4.88511 22.8251 5.29548 23.4761 5.43111C23.4254 5.89048 23.2985 6.35511 23.0465 6.73486C22.6715 7.31976 22.1033 7.75476 21.4409 7.96423C21.1745 8.04738 20.8974 8.09159 20.6184 8.09548L20.5597 8.09461L20.5414 8.09373H20.5344L20.5326 8.09286H20.5309C20.5309 8.09286 20.4189 8.09548 20.5309 8.09286C20.4735 8.08889 20.4175 8.07367 20.3661 8.04807C20.3146 8.02246 20.2687 7.98697 20.231 7.94363C20.1932 7.90028 20.1644 7.84992 20.1461 7.79543C20.1278 7.74094 20.1205 7.68338 20.1244 7.62604C20.1284 7.56871 20.1436 7.51271 20.1692 7.46125C20.1948 7.4098 20.2303 7.36389 20.2737 7.32615C20.317 7.28841 20.3674 7.25957 20.4219 7.24129C20.4763 7.22301 20.5339 7.21564 20.5912 7.21961H20.5947C20.6438 7.22063 20.6928 7.21917 20.7417 7.21523C20.8903 7.20287 21.037 7.17411 21.1792 7.12948C21.6497 6.98 22.0524 6.66958 22.3167 6.25273C22.5504 5.89923 22.6457 5.34798 22.6282 4.76698C22.6245 4.63101 22.6148 4.49525 22.5994 4.36011ZM5.83437 24.5884C5.66024 24.2165 5.57799 23.8481 5.57799 23.5637C5.57799 22.6476 5.20174 22.575 4.76424 22.5662H4.76074C4.81062 22.2075 4.91299 21.8557 5.09324 21.5504C5.4377 20.9472 5.98259 20.4837 6.63324 20.2405C6.89496 20.1434 7.16935 20.0848 7.44787 20.0664L7.50649 20.0646H7.53362C7.53362 20.0646 7.66662 20.0664 7.53537 20.0646C7.6514 20.0667 7.76185 20.1148 7.84242 20.1983C7.92299 20.2818 7.96708 20.394 7.96499 20.51C7.9629 20.626 7.91481 20.7365 7.83128 20.817C7.74776 20.8976 7.63565 20.9417 7.51962 20.9396H7.51612C7.46723 20.9412 7.41846 20.9453 7.36999 20.9519C7.22198 20.972 7.07669 21.0087 6.93687 21.0612C6.59562 21.1881 6.16949 21.448 5.84662 21.9949C5.63137 22.3597 5.56487 22.9154 5.61212 23.4946C5.64712 23.9277 5.73987 24.3154 5.83174 24.5682L5.82387 24.5C7.16349 25.5124 8.55387 25.683 9.85762 24.6916C11.0826 23.7597 10.3056 21.9336 10.1175 21.4909L10.0895 21.4244C9.86199 20.8556 9.86549 20.3796 10.1717 20.0707C11.6102 18.6191 13.684 16.5375 15.525 14.6895C16.8989 13.3162 18.268 11.9381 19.6322 10.5551C19.9332 10.227 20.2622 10.0896 21.027 10.0354C21.2624 10.0179 21.5599 10.1185 21.8985 10.2322C22.6615 10.4877 23.6354 10.8141 24.5821 10.0354C25.8946 8.95561 25.7852 7.09536 25.0879 6.18011H25.1369C26.1781 7.16011 26.6532 8.92061 25.7441 10.1719C24.4727 11.9219 22.7429 11.7512 21.8477 11.4161C21.0314 11.1107 20.4941 11.2717 20.0627 11.69C17.5611 14.1137 12.221 19.3086 11.5866 20.0086C10.9522 20.7086 10.8306 20.8757 11.0529 21.2467C11.8194 22.5181 11.8054 25.2796 9.54962 26.0654C7.48462 26.6569 6.31299 25.6104 5.83437 24.5884Z" fill="#303030"/>
</g>
<defs>
<clipPath id="clip0_271_54">
<rect width="28" height="28" fill="white"/>
</clipPath>
</defs>
</svg>
