<svg width="26" height="26" viewBox="0 0 26 26" fill="none" xmlns="http://www.w3.org/2000/svg">
<path d="M7.18302 15.1463C8.01689 14.3194 15.044 7.36057 15.4955 6.90907C15.9461 6.45845 15.9199 5.91157 15.7755 5.46007C15.5909 4.88607 14.7036 2.33195 17.2455 1.09907C19.5826 -0.0358022 21.2784 1.73432 21.5111 2.8692C21.6748 3.67157 21.6266 4.3462 22.6731 4.4617C24.5806 4.67432 26.0156 7.42182 24.7443 9.17182C23.4729 10.9218 21.743 10.7512 20.8479 10.4161C20.0315 10.1107 19.4943 10.2717 19.0629 10.6899C16.5613 13.1137 11.2211 18.3086 10.5868 19.0086C9.95239 19.7086 9.83077 19.8757 10.053 20.2467C10.8195 21.5181 10.8055 24.2796 8.54977 25.0653C5.73314 25.8721 4.57814 23.6303 4.57814 22.5628C4.57814 21.6476 4.20189 21.5741 3.76439 21.5653C1.37914 21.5172 0.0937662 19.0567 1.14639 17.0739C2.10714 15.2644 3.78539 15.2356 5.06989 15.4543C6.09802 15.6293 6.34827 15.9741 7.18302 15.1463Z" fill="white"/>
</svg>
