<svg width="28" height="27" viewBox="0 0 28 27" fill="none" xmlns="http://www.w3.org/2000/svg">
<path d="M14 0C21.7322 0 28 6.04395 28 13.5C28 20.9561 21.7322 27 14 27C6.2678 27 0 20.9561 0 13.5C0 6.04395 6.2678 0 14 0ZM14.9338 1.83465V3.2319C14.9338 3.47071 14.8354 3.69975 14.6603 3.86861C14.4852 4.03748 14.2477 4.13235 14 4.13235C13.7523 4.13235 13.5148 4.03748 13.3397 3.86861C13.1646 3.69975 13.0662 3.47071 13.0662 3.2319V1.83465C11.2415 1.96734 9.47201 2.4987 7.8918 3.3885L8.6226 4.1769C8.78064 4.35597 8.85976 4.58756 8.84306 4.82215C8.82636 5.05674 8.71516 5.27572 8.53323 5.43229C8.3513 5.58886 8.11307 5.67059 7.86946 5.66002C7.62586 5.64944 7.39621 5.5474 7.2296 5.3757L6.3476 4.42125C5.38379 5.17694 4.54532 6.07013 3.8612 7.06995L5.0414 7.75305C5.24373 7.88035 5.38701 8.07831 5.44116 8.30534C5.49531 8.53237 5.45611 8.7708 5.33179 8.97055C5.20747 9.17029 5.0077 9.3158 4.77447 9.37651C4.54123 9.43721 4.29267 9.40839 4.081 9.2961L2.9568 8.64675C2.45193 9.71301 2.11727 10.8468 1.9642 12.0096H3.234C3.35663 12.0096 3.47806 12.0329 3.59135 12.0781C3.70464 12.1234 3.80759 12.1897 3.8943 12.2733C3.98101 12.357 4.04979 12.4562 4.09672 12.5655C4.14365 12.6747 4.1678 12.7918 4.1678 12.91C4.1678 13.0283 4.14365 13.1454 4.09672 13.2546C4.04979 13.3639 3.98101 13.4632 3.8943 13.5468C3.80759 13.6304 3.70464 13.6967 3.59135 13.742C3.47806 13.7872 3.35663 13.8105 3.234 13.8105L1.8718 13.8092V13.851C1.91659 15.3707 2.2695 16.8672 2.9106 18.2561L4.081 17.5014C4.28691 17.3739 4.5365 17.3295 4.77605 17.3776C5.01561 17.4258 5.226 17.5627 5.36194 17.7589C5.49789 17.9551 5.54854 18.1949 5.503 18.4267C5.45745 18.6586 5.31935 18.8639 5.1184 18.9986L3.8038 19.845C4.90306 21.4889 6.41249 22.8406 8.19385 23.7762C9.9752 24.7118 11.9715 25.2015 14 25.2005C16.102 25.2016 18.1683 24.6758 19.996 23.6747C21.8238 22.6735 23.3503 21.2315 24.4258 19.49L22.841 18.468C22.6443 18.3318 22.5101 18.1273 22.4668 17.8976C22.4235 17.6679 22.4744 17.4309 22.6088 17.2367C22.7432 17.0425 22.9505 16.9062 23.1872 16.8566C23.4238 16.807 23.6711 16.848 23.877 16.9708L25.2616 17.8632C25.7995 16.5726 26.0935 15.1996 26.1296 13.8092H24.612C24.3708 13.8001 24.1426 13.7014 23.9752 13.5336C23.8078 13.3659 23.7143 13.1422 23.7143 12.9094C23.7143 12.6766 23.8078 12.4529 23.9752 12.2851C24.1426 12.1174 24.3708 12.0186 24.612 12.0096H26.0358C25.9032 11.0046 25.635 10.0207 25.2378 9.0828L23.9078 9.747C23.7985 9.80726 23.6776 9.84556 23.5525 9.85961C23.4274 9.87367 23.3007 9.86317 23.1799 9.82876C23.0591 9.79436 22.9468 9.73674 22.8497 9.6594C22.7526 9.58205 22.6728 9.48656 22.6149 9.37868C22.5571 9.2708 22.5225 9.15275 22.5132 9.03164C22.5039 8.91053 22.5201 8.78886 22.5609 8.67395C22.6016 8.55903 22.666 8.45326 22.7503 8.36297C22.8345 8.27269 22.9368 8.19977 23.051 8.1486L24.402 7.4736C23.7146 6.37342 22.8449 5.38929 21.8274 4.5603L20.9846 5.62545C20.9101 5.71941 20.8172 5.79831 20.7111 5.85764C20.6051 5.91697 20.4879 5.95558 20.3663 5.97125C20.2448 5.98692 20.1212 5.97935 20.0027 5.94897C19.8842 5.91859 19.773 5.866 19.6756 5.7942C19.5782 5.7224 19.4963 5.6328 19.4348 5.5305C19.3733 5.42821 19.3332 5.31524 19.317 5.19802C19.3007 5.08081 19.3086 4.96166 19.3401 4.84738C19.3716 4.73309 19.4261 4.62591 19.5006 4.53195L20.3126 3.50595C18.6822 2.54596 16.8387 1.97314 14.9338 1.83465ZM19.481 9.20565C19.6355 9.39206 19.707 9.63 19.6797 9.86718C19.6524 10.1044 19.5285 10.3214 19.3354 10.4706L16.4794 12.6725L16.4892 12.8344C16.4892 13.7687 15.7486 14.5382 14.8022 14.6246L14.6216 14.6327C14.3427 14.6325 14.0673 14.572 13.8159 14.4557C13.5644 14.3394 13.3431 14.1702 13.1684 13.9606C12.9936 13.751 12.8698 13.5062 12.806 13.2444C12.7423 12.9826 12.7402 12.7103 12.8 12.4476C12.8597 12.1848 12.9798 11.9384 13.1514 11.7263C13.3229 11.5142 13.5416 11.3419 13.7913 11.2221C14.041 11.1022 14.3153 11.0379 14.5942 11.0338C14.8731 11.0296 15.1494 11.0858 15.4028 11.1983L18.1692 9.06525C18.3625 8.91625 18.6093 8.84735 18.8552 8.87368C19.1012 8.9 19.3263 9.0194 19.481 9.20565Z" fill="#1B1B1B"/>
</svg>
