<svg width="23" height="27" viewBox="0 0 23 27" fill="none" xmlns="http://www.w3.org/2000/svg">
<path d="M8.86728 6.84279C8.86728 6.47162 8.59808 6.17228 8.26428 6.17228C7.93048 6.17228 7.66128 6.47162 7.66128 6.84279V8.99202C7.6559 11.4945 5.99228 13.6137 3.76334 13.955V3.11308C3.76334 2.74191 3.49415 2.44257 3.16035 2.44257C2.82654 2.44257 2.55735 2.74191 2.55735 3.11308V14.6674C2.55735 15.0386 2.82654 15.3379 3.16035 15.3379C6.31531 15.3319 8.86728 12.4942 8.87266 8.98603V6.84279H8.86728ZM16.3563 15.7271H20.6957C21.9663 15.7271 23 14.5776 23 13.1647V8.90222C23 7.70488 22.1278 6.74102 21.0564 6.74102H16.5878C16.4316 6.74102 16.2863 6.65721 16.2001 6.51951L12.7168 1.07761C12.286 0.401109 11.5861 0 10.8378 0H3.28956C1.47519 0 0.0053839 1.64035 0 3.65787V26.3295C0 26.7007 0.269195 27 0.602996 27H9.11493C9.44874 27 9.71793 26.7007 9.71793 26.3295V24.5574C10.6763 25.7069 12.1084 26.1918 13.4813 25.8386C13.8043 25.7548 14.0089 25.3956 13.9335 25.0304C13.4974 22.941 11.7584 21.5102 9.83638 21.6659C10.4286 18.2355 13.1259 15.751 16.2701 15.745C16.2971 15.733 16.3294 15.733 16.3563 15.7271ZM11.5485 23.4439C11.9576 23.7253 12.2914 24.1204 12.5176 24.5933C11.5377 24.5574 10.6547 23.9468 10.1971 22.9829C10.6709 23.0069 11.1393 23.1625 11.5485 23.4439ZM21.794 8.90222V10.1415L19.6512 8.08204H21.051C21.4602 8.08204 21.794 8.44723 21.794 8.90222ZM8.51194 23.0129V23.1206H1.20599V21.7018H8.60346C8.54424 22.1388 8.51194 22.5758 8.51194 23.0129ZM1.20599 25.653V24.4676H8.51194V25.653H1.20599ZM8.87266 14.3681C9.88483 15.0745 11.0262 15.5175 12.2107 15.6672C10.6386 16.7448 9.46489 18.4091 8.89419 20.3608H1.20599V3.65787C1.20599 2.3827 2.13741 1.34701 3.28418 1.34701H10.8324C11.1877 1.34701 11.5215 1.53858 11.7261 1.86186L15.2095 7.29778C15.5272 7.79468 16.0386 8.08204 16.5824 8.08803H17.8476L17.8315 8.10599L21.7456 11.8776L21.794 11.8177V13.1647C21.794 13.8412 21.3041 14.386 20.6957 14.386H13.1206C11.8446 14.386 10.5955 13.9849 9.51334 13.2306C9.23338 13.033 8.85651 13.1288 8.68422 13.4461C8.50655 13.7574 8.58731 14.1705 8.87266 14.3681ZM10.9616 6.91463C11.6669 6.91463 12.2376 6.28004 12.2376 5.49579C12.2376 4.71153 11.6669 4.07694 10.9616 4.07694C10.2563 4.07694 9.68563 4.71153 9.68563 5.49579C9.69101 6.28004 10.2617 6.91463 10.9616 6.91463ZM10.9616 5.42395C10.9993 5.42395 11.0262 5.45987 11.0262 5.49579C11.0262 5.53769 10.9939 5.56763 10.9616 5.56763C10.9239 5.56763 10.897 5.53171 10.897 5.49579C10.897 5.45388 10.9239 5.42395 10.9616 5.42395Z" fill="black"/>
</svg>
