<svg width="29" height="29" viewBox="0 0 29 29" fill="none" xmlns="http://www.w3.org/2000/svg">
<path d="M14.5 0.579987C6.82482 0.579987 0.579956 6.82485 0.579956 14.5C0.579956 22.1751 6.82482 28.42 14.5 28.42C22.1751 28.42 28.42 22.1751 28.42 14.5C28.42 6.82485 22.1751 0.579987 14.5 0.579987ZM14.5 27.26C7.46398 27.26 1.73996 21.536 1.73996 14.5C1.73996 7.46401 7.46398 1.73999 14.5 1.73999C21.5359 1.73999 27.26 7.46401 27.26 14.5C27.26 21.536 21.5359 27.26 14.5 27.26Z" fill="black"/>
<path d="M13.3399 7.53998H15.6599C17.259 7.53998 18.5599 8.84092 18.5599 10.44H19.7199C19.7199 8.20118 17.8981 6.37998 15.6599 6.37998H15.0799V4.63998H13.9199V6.37998H13.3399C11.1017 6.37998 9.27991 8.20118 9.27991 10.44V11.02C9.27991 13.2588 11.1017 15.08 13.3399 15.08H15.6599C17.259 15.08 18.5599 16.3809 18.5599 17.98V18.56C18.5599 20.159 17.259 21.46 15.6599 21.46H13.3399C11.7408 21.46 10.4399 20.159 10.4399 18.56H9.27991C9.27991 20.7988 11.1017 22.62 13.3399 22.62H13.9199V24.36H15.0799V22.62H15.6599C17.8981 22.62 19.7199 20.7988 19.7199 18.56V17.98C19.7199 15.7412 17.8981 13.92 15.6599 13.92H13.3399C11.7408 13.92 10.4399 12.619 10.4399 11.02V10.44C10.4399 8.84092 11.7408 7.53998 13.3399 7.53998Z" fill="black"/>
</svg>
