<svg width="29" height="29" viewBox="0 0 29 29" fill="none" xmlns="http://www.w3.org/2000/svg">
<g opacity="0.5">
<path d="M16.978 28.6183H2.77528C2.13954 28.6175 1.5298 28.3622 1.08026 27.9075C0.630708 27.4529 0.377419 26.8363 0.377419 26.1934V2.80662C0.378257 2.1637 0.630708 1.54707 1.08026 1.09245C1.5298 0.637829 2.13954 0.382528 2.77528 0.381679H16.9771C17.6129 0.382528 18.2226 0.637829 18.6722 1.09245C19.1217 1.54707 19.3742 2.1637 19.375 2.80662V9.55386C19.375 9.68024 19.3255 9.80153 19.2374 9.89058C19.1494 9.97964 19.0294 10.0297 18.9045 10.0297C18.7795 10.0297 18.6596 9.97964 18.5715 9.89058C18.4834 9.80153 18.434 9.68024 18.434 9.55386V2.80662C18.4331 2.41645 18.2796 2.04156 18.0071 1.7659C17.7345 1.4894 17.3638 1.33418 16.978 1.33418H2.77528C2.38948 1.33418 2.01877 1.49025 1.74619 1.7659C1.47277 2.04241 1.31929 2.41645 1.31929 2.80662V26.1934C1.32013 26.5835 1.47361 26.9584 1.74619 27.2341C2.01961 27.5106 2.38948 27.6658 2.77528 27.6658H16.9771C17.3629 27.665 17.7336 27.5098 18.0062 27.2341C18.2788 26.9584 18.4323 26.5835 18.4331 26.1934V19.4377C18.4331 19.3113 18.4826 19.19 18.5707 19.1009C18.6587 19.0119 18.7787 18.9618 18.9036 18.9618C19.0286 18.9618 19.1485 19.0119 19.2366 19.1009C19.3247 19.19 19.3742 19.3113 19.3742 19.4377V26.1934C19.3733 26.8363 19.1209 27.4529 18.6713 27.9075C18.2226 28.3613 17.6137 28.6175 16.978 28.6183ZM25.4388 14.4987C25.4388 14.436 25.4271 14.374 25.4028 14.3164C25.3793 14.2587 25.3441 14.2061 25.3005 14.162C25.2568 14.1179 25.2048 14.0831 25.1478 14.0585C25.0908 14.0348 25.0296 14.0221 24.9675 14.0221H11.9239C11.7989 14.0221 11.679 14.0721 11.5909 14.1612C11.5029 14.2502 11.4534 14.3715 11.4534 14.4979C11.4534 14.6243 11.5029 14.7455 11.5909 14.8346C11.679 14.9237 11.7989 14.9737 11.9239 14.9737H24.9683C25.0304 14.9737 25.0916 14.9618 25.1487 14.9372C25.2057 14.9135 25.2577 14.8779 25.3013 14.8338C25.3449 14.7897 25.3793 14.7371 25.4036 14.6794C25.4263 14.6226 25.4388 14.5606 25.4388 14.4987ZM25.3005 18.8634L27.9214 16.2129C28.3701 15.7574 28.6226 15.1408 28.6226 14.4979C28.6226 13.855 28.3701 13.2383 27.9214 12.7829L25.3005 10.1323C25.2568 10.0882 25.2048 10.0534 25.1478 10.0288C25.0908 10.0051 25.0296 9.99237 24.9675 9.99237C24.9054 9.99237 24.8442 10.0051 24.7872 10.0288C24.7301 10.0526 24.6781 10.0882 24.6345 10.1323C24.5909 10.1764 24.5565 10.229 24.5322 10.2867C24.5087 10.3444 24.4961 10.4063 24.4961 10.469C24.4961 10.5318 24.5079 10.5937 24.5322 10.6514C24.5557 10.7091 24.5909 10.7617 24.6345 10.8058L27.2555 13.4563C27.5281 13.7328 27.6816 14.1077 27.6816 14.4979C27.6816 14.888 27.5281 15.2629 27.2555 15.5394L24.6345 18.19C24.5901 18.2341 24.5548 18.2867 24.5314 18.3444C24.507 18.402 24.4945 18.464 24.4945 18.5267C24.4945 18.5895 24.5062 18.6514 24.5297 18.7099C24.5532 18.7676 24.5884 18.821 24.632 18.8651C24.6756 18.9092 24.7285 18.9449 24.7855 18.9686C24.8425 18.9924 24.9046 19.0051 24.9667 19.0042C25.0287 19.0042 25.0899 18.9915 25.147 18.9669C25.2057 18.944 25.2577 18.9084 25.3005 18.8634Z" fill="black"/>
<path fill-rule="evenodd" clip-rule="evenodd" d="M2.77479 6.47107e-07L2.77528 0L16.9776 3.23554e-07C17.7131 0.000981823 18.4187 0.296318 18.939 0.822563C19.4594 1.34881 19.7514 2.06238 19.7524 2.80611V9.55386C19.7524 9.78088 19.6636 9.99942 19.5043 10.1605C19.3451 10.3215 19.129 10.4114 18.9045 10.4114C18.68 10.4114 18.4639 10.3215 18.3046 10.1605C18.1454 9.99942 18.0565 9.78088 18.0565 9.55386L18.0565 2.80745C18.0565 2.80727 18.0565 2.80709 18.0565 2.80691C18.0558 2.51747 17.9418 2.23966 17.7402 2.03579L17.7398 2.03538C17.5382 1.83087 17.2637 1.71586 16.978 1.71586H2.77528C2.49004 1.71586 2.2152 1.83138 2.01306 2.03579C1.81021 2.24094 1.69671 2.51799 1.69671 2.80662V26.1929C1.69743 26.4824 1.81144 26.7603 2.01306 26.9642C2.21592 27.1694 2.48988 27.2841 2.77528 27.2841H16.9763C17.2627 27.2835 17.5376 27.1682 17.7393 26.9642C17.9409 26.7603 18.0549 26.4825 18.0557 26.1931C18.0557 26.1929 18.0557 26.1927 18.0557 26.1926L18.0557 19.4377C18.0557 19.2106 18.1445 18.9921 18.3038 18.831C18.463 18.67 18.6792 18.5802 18.9036 18.5802C19.1281 18.5802 19.3442 18.67 19.5035 18.831C19.6627 18.9921 19.7516 19.2106 19.7516 19.4377V26.1939C19.7506 26.9376 19.4586 27.6512 18.9382 28.1774C18.4189 28.7026 17.7143 28.999 16.9785 29H2.77479C2.03935 28.999 1.33375 28.7037 0.81338 28.1774C0.293262 27.6514 0 26.9378 0 26.1934L3.19942e-07 2.80611C0.000970543 2.06238 0.29301 1.34881 0.81338 0.822563C1.33375 0.296318 2.03935 0.000981823 2.77479 6.47107e-07ZM16.9769 0.763359H2.77555C2.23958 0.764136 1.7258 0.979395 1.34713 1.36234C0.968461 1.74528 0.755605 2.26487 0.754837 2.80688V26.1934C0.754837 26.7348 0.968155 27.2544 1.34713 27.6377C1.72586 28.0207 2.23973 28.2359 2.77578 28.2366H16.9775C17.5131 28.2359 18.0263 28.0201 18.4044 27.6377C18.7832 27.2547 18.996 26.735 18.9967 26.1929V19.4377C18.9967 19.4119 18.9866 19.3879 18.9697 19.3708C18.9529 19.3538 18.9291 19.3435 18.9036 19.3435C18.8782 19.3435 18.8544 19.3538 18.8375 19.3708C18.8207 19.3879 18.8105 19.4119 18.8105 19.4377V26.1934L18.8105 26.1942C18.8095 26.6849 18.6165 27.1567 18.2731 27.504C17.9296 27.8513 17.4632 28.0464 16.9779 28.0475H2.77528C2.28908 28.0475 1.8233 27.8519 1.47931 27.504C1.13587 27.1567 0.942925 26.6849 0.94187 26.1942L0.941869 26.1934V2.80662C0.941869 2.31492 1.13533 1.84388 1.47931 1.49602C1.82234 1.14911 2.28891 0.952502 2.77528 0.952502H16.978C17.4637 0.952502 17.9306 1.14784 18.2741 1.49619C18.6174 1.84349 18.8103 2.31517 18.8114 2.80579L18.8114 2.80662L18.8114 9.55386C18.8114 9.5796 18.8215 9.60363 18.8384 9.6207C18.8553 9.63776 18.879 9.64801 18.9045 9.64801C18.9299 9.64801 18.9537 9.63776 18.9706 9.6207C18.9874 9.60363 18.9976 9.5796 18.9976 9.55386V2.80712C18.9969 2.26502 18.784 1.74534 18.4053 1.36234C18.0266 0.979395 17.5128 0.764136 16.9769 0.763359ZM24.6435 9.67591C24.7444 9.63386 24.8544 9.61069 24.9675 9.61069C25.0806 9.61069 25.1905 9.63386 25.2915 9.67591L25.2937 9.67682L25.2959 9.67775C25.3947 9.72039 25.4877 9.78191 25.5673 9.86243L28.1883 12.513L28.1888 12.5135C28.7078 13.0403 29 13.7538 29 14.4979C29 15.242 28.7078 15.9554 28.1888 16.4823L28.1883 16.4828L25.5696 19.1311C25.4918 19.2119 25.3969 19.2774 25.2891 19.3206C25.1879 19.3632 25.0794 19.3856 24.9692 19.3859C24.8542 19.3871 24.7426 19.3635 24.6418 19.3215C24.5387 19.2786 24.444 19.2148 24.3651 19.135C24.2863 19.0553 24.2232 18.9595 24.1807 18.8552L24.1803 18.8543L24.18 18.8534C24.1379 18.7487 24.117 18.638 24.117 18.5267C24.117 18.413 24.1397 18.301 24.1833 18.1969C24.2263 18.0921 24.2898 17.9978 24.3687 17.919C24.3692 17.9185 24.3697 17.918 24.3702 17.9175L26.9882 15.27C27.1904 15.0649 27.3041 14.7868 27.3041 14.4979C27.3041 14.209 27.1904 13.9309 26.9882 13.7258L24.3677 11.0757C24.2907 10.9979 24.2273 10.9041 24.1841 10.7989C24.1392 10.6917 24.1187 10.5793 24.1187 10.469C24.1187 10.3547 24.1416 10.2435 24.1832 10.1414L24.1841 10.1392L24.185 10.137C24.2272 10.037 24.288 9.94295 24.3677 9.86243C24.4451 9.78409 24.5386 9.71958 24.6435 9.67591ZM24.9675 10.374C24.9565 10.374 24.944 10.3763 24.9309 10.3818C24.9217 10.3856 24.9112 10.3923 24.9014 10.4022C24.8942 10.4095 24.8866 10.4199 24.8804 10.4341C24.8756 10.4466 24.8736 10.4585 24.8736 10.469C24.8736 10.4836 24.8762 10.4942 24.8794 10.5017L24.8803 10.5039L24.8812 10.5061C24.885 10.5154 24.8916 10.526 24.9014 10.5359L27.5228 13.1868C27.8657 13.5347 28.059 14.0065 28.059 14.4979C28.059 14.9893 27.8657 15.461 27.5228 15.8089L24.9001 18.4612L24.8988 18.4624C24.8902 18.4711 24.884 18.4806 24.8804 18.4897L24.8795 18.4919L24.8785 18.4941C24.8741 18.5047 24.8719 18.5157 24.8719 18.5267C24.8719 18.5406 24.8743 18.5535 24.8791 18.5655C24.8836 18.5763 24.8907 18.587 24.8989 18.5953C24.9073 18.6037 24.9182 18.6111 24.9292 18.6157C24.9417 18.6209 24.9533 18.6227 24.9616 18.6226L24.9641 18.6226H24.9667C24.9776 18.6226 24.9885 18.6203 24.9989 18.6158L25.005 18.6132L25.0112 18.6108C25.0168 18.6086 25.0227 18.6049 25.0285 18.5988L25.031 18.5961L27.6541 15.9435L27.6544 15.9432C28.0326 15.5591 28.2452 15.0394 28.2452 14.4979C28.2452 13.9563 28.0326 13.4366 27.6544 13.0526L27.6541 13.0523L25.0336 10.4022C25.0264 10.3949 25.016 10.3873 25.002 10.3809C24.9897 10.3761 24.9779 10.374 24.9675 10.374ZM11.3241 13.8913C11.4833 13.7302 11.6994 13.6404 11.9239 13.6404H24.9675C25.0806 13.6404 25.1905 13.6635 25.2915 13.7056L25.2937 13.7065L25.2959 13.7074C25.3947 13.7501 25.4877 13.8116 25.5673 13.8921C25.6443 13.9699 25.7077 14.0637 25.7509 14.1689C25.7957 14.2761 25.8163 14.3885 25.8163 14.4987C25.8163 14.6122 25.7934 14.7224 25.7537 14.8221L25.7523 14.8256L25.7508 14.8291C25.7086 14.9291 25.6478 15.0231 25.5682 15.1036C25.4912 15.1815 25.3985 15.2456 25.2945 15.2893C25.1884 15.3346 25.0773 15.3554 24.9683 15.3554H11.9239C11.6994 15.3554 11.4833 15.2655 11.3241 15.1045C11.1648 14.9434 11.076 14.7249 11.076 14.4979C11.076 14.2709 11.1648 14.0523 11.3241 13.8913ZM11.9239 14.4037C11.8985 14.4037 11.8747 14.414 11.8578 14.431C11.8409 14.4481 11.8308 14.4721 11.8308 14.4979C11.8308 14.5236 11.8409 14.5477 11.8578 14.5647C11.8747 14.5818 11.8985 14.592 11.9239 14.592H24.9683C24.9827 14.592 24.9932 14.5893 25.0006 14.5861L25.0028 14.5852L25.005 14.5843C25.0141 14.5805 25.0247 14.5737 25.0344 14.5639C25.0414 14.5568 25.0487 14.5468 25.0549 14.5333C25.0595 14.5205 25.0614 14.5083 25.0614 14.4987C25.0614 14.4842 25.0588 14.4735 25.0556 14.4661L25.0547 14.4639L25.0538 14.4617C25.05 14.4524 25.0433 14.4418 25.0336 14.4319C25.0264 14.4246 25.016 14.417 25.002 14.4106C24.9897 14.4058 24.9779 14.4037 24.9675 14.4037H11.9239Z" fill="black"/>
</g>
</svg>
