<svg width="26" height="29" viewBox="0 0 26 29" fill="none" xmlns="http://www.w3.org/2000/svg">
<path d="M24.929 5.58477L13.3734 0.0847696C13.2564 0.0289253 13.129 0 13.0001 0C12.8712 0 12.7438 0.0289253 12.6268 0.0847696L1.07122 5.58477C0.916929 5.65841 0.78635 5.77613 0.694971 5.92398C0.603592 6.07183 0.555246 6.24361 0.555667 6.41894V22.0023C0.555246 22.1776 0.603592 22.3494 0.694971 22.4972C0.78635 22.6451 0.916929 22.7628 1.07122 22.8364L12.6268 28.3364C12.7438 28.3923 12.8712 28.4212 13.0001 28.4212C13.129 28.4212 13.2564 28.3923 13.3734 28.3364L24.929 22.8364C25.0833 22.7628 25.2139 22.6451 25.3053 22.4972C25.3966 22.3494 25.445 22.1776 25.4446 22.0023V6.41894C25.445 6.24361 25.3966 6.07183 25.3053 5.92398C25.2139 5.77613 25.0833 5.65841 24.929 5.58477ZM13.0001 1.92727L22.4312 6.41894L13.0001 10.9106L3.569 6.41894L13.0001 1.92727ZM2.33344 7.84894L12.1112 12.5056V26.0723L2.33344 21.4156V7.84894ZM13.889 26.0723V12.5056L23.6668 7.84894V21.4156L13.889 26.0723Z" fill="#1B1B1B"/>
</svg>
