<svg width="28" height="27" viewBox="0 0 28 27" fill="none" xmlns="http://www.w3.org/2000/svg">
<path d="M19.5989 14.7708C19.3571 14.7708 19.1253 14.8669 18.9544 15.0378C18.7834 15.2087 18.6874 15.4406 18.6874 15.6823C18.6874 15.924 18.7834 16.1559 18.9544 16.3268C19.1253 16.4977 19.3571 16.5938 19.5989 16.5938H22.8801C23.1219 16.5938 23.3537 16.4977 23.5246 16.3268C23.6956 16.1559 23.7916 15.924 23.7916 15.6823C23.7916 15.4406 23.6956 15.2087 23.5246 15.0378C23.3537 14.8669 23.1219 14.7708 22.8801 14.7708H19.5989ZM0.458252 3.10417V21.8802C0.458252 23.0889 0.938394 24.248 1.79305 25.1027C2.64771 25.9574 3.80687 26.4375 5.01554 26.4375H22.8801C24.0888 26.4375 25.248 25.9574 26.1026 25.1027C26.9573 24.248 27.4374 23.0889 27.4374 21.8802V9.11979C27.4374 8.06927 27.0745 7.051 26.4102 6.23721C25.7458 5.42341 24.8208 4.86402 23.7916 4.65365V3.28646C23.7916 2.46456 23.4651 1.67633 22.8839 1.09516C22.3028 0.513997 21.5145 0.1875 20.6926 0.1875H3.55721C2.76683 0.187433 2.00629 0.489371 1.43118 1.03155C0.856064 1.57372 0.509849 2.31515 0.463356 3.10417H0.458252ZM21.9687 3.28646V4.5625H3.55721C3.21878 4.5625 2.89422 4.42806 2.65491 4.18876C2.41561 3.94945 2.28117 3.62489 2.28117 3.28646C2.28117 2.94803 2.41561 2.62346 2.65491 2.38416C2.89422 2.14486 3.21878 2.01042 3.55721 2.01042H20.6926C21.3977 2.01042 21.9687 2.58208 21.9687 3.28646ZM2.28117 6.38542H22.8801C23.6053 6.38542 24.3008 6.6735 24.8136 7.1863C25.3264 7.69909 25.6145 8.39459 25.6145 9.11979V21.8802C25.6145 22.6054 25.3264 23.3009 24.8136 23.8137C24.3008 24.3265 23.6053 24.6146 22.8801 24.6146H5.01554C4.29034 24.6146 3.59484 24.3265 3.08205 23.8137C2.56925 23.3009 2.28117 22.6054 2.28117 21.8802V6.38542Z" fill="#3D267D"/>
</svg>
