<svg width="24" height="28" viewBox="0 0 24 28" fill="none" xmlns="http://www.w3.org/2000/svg">
<path d="M21.1641 4.25195C19.5645 1.50391 17.3906 0 15.0391 0H8.47656C6.125 0 3.95117 1.50391 2.35156 4.25195C0.751953 7 0 10.2949 0 13.9453C0 17.5957 0.833984 21.041 2.35156 23.6387C3.86914 26.2363 6.125 27.8906 8.47656 27.8906H15.0391C17.3906 27.8906 19.5645 26.3867 21.1641 23.6387C22.7637 20.8906 23.5156 17.5957 23.5156 13.9453C23.5156 10.2949 22.6816 6.84961 21.1641 4.25195ZM21.8613 13.125H16.9395C16.8438 10.5547 16.3379 8.10742 15.4629 6.01562H20.2344C21.2051 8.02539 21.7656 10.5 21.8613 13.125ZM15.0391 1.64062C16.584 1.64062 18.0742 2.61133 19.291 4.375H14.6699L14.6016 4.25195C14.0518 3.27299 13.3451 2.39084 12.5098 1.64062H15.0391ZM3.77344 22.8184C2.39258 20.4531 1.64062 17.3086 1.64062 13.9453C1.64062 10.582 2.39258 7.4375 3.77344 5.07227C5.1543 2.70703 6.74023 1.64062 8.47656 1.64062C10.2129 1.64062 11.8945 2.85742 13.1797 5.07227C14.4648 7.28711 15.3125 10.582 15.3125 13.9453C15.3125 17.3086 14.5605 20.4531 13.1797 22.8184C11.7988 25.1836 10.2129 26.25 8.47656 26.25C6.74023 26.25 5.05859 25.0332 3.77344 22.8184ZM15.0391 26.25H12.5098C13.3451 25.4998 14.0518 24.6176 14.6016 23.6387L14.6699 23.5156H19.291C18.0742 25.2793 16.584 26.25 15.0391 26.25ZM20.2344 21.875H15.4629C16.3379 19.7832 16.8438 17.3359 16.9395 14.7656H21.8613C21.7656 17.3906 21.2051 19.8652 20.2344 21.875Z" fill="#1B1B1B"/>
</svg>
