<svg width="27" height="27" viewBox="0 0 27 27" fill="none" xmlns="http://www.w3.org/2000/svg">
<path d="M27 8.1L25.65 6.75L23.625 8.775L21.6 6.75L20.25 8.1L22.275 10.125L20.25 12.15L21.6 13.5L23.625 11.475L25.65 13.5L27 12.15L24.975 10.125L27 8.1Z" fill="black"/>
<path d="M10.125 24.3C12.7346 24.3 14.85 22.1845 14.85 19.575C14.85 16.9654 12.7346 14.85 10.125 14.85C7.51548 14.85 5.40002 16.9654 5.40002 19.575C5.40002 22.1845 7.51548 24.3 10.125 24.3Z" fill="black"/>
<path d="M9.45 6.74998C10.9412 6.74998 12.15 5.54114 12.15 4.04998C12.15 2.55881 10.9412 1.34998 9.45 1.34998C7.95883 1.34998 6.75 2.55881 6.75 4.04998C6.75 5.54114 7.95883 6.74998 9.45 6.74998Z" fill="black"/>
<path d="M17.55 10.8C18.2956 10.8 18.9 10.1956 18.9 9.44998C18.9 8.70439 18.2956 8.09998 17.55 8.09998C16.8044 8.09998 16.2 8.70439 16.2 9.44998C16.2 10.1956 16.8044 10.8 17.55 10.8Z" fill="black"/>
<path d="M13.5 9.45C14.2456 9.45 14.85 8.84558 14.85 8.1C14.85 7.35442 14.2456 6.75 13.5 6.75C12.7544 6.75 12.15 7.35442 12.15 8.1C12.15 8.84558 12.7544 9.45 13.5 9.45Z" fill="black"/>
<path d="M4.05001 5.40001C4.7956 5.40001 5.40001 4.7956 5.40001 4.05001C5.40001 3.30443 4.7956 2.70001 4.05001 2.70001C3.30443 2.70001 2.70001 3.30443 2.70001 4.05001C2.70001 4.7956 3.30443 5.40001 4.05001 5.40001Z" fill="black"/>
<path d="M1.35 9.45C2.09558 9.45 2.7 8.84558 2.7 8.1C2.7 7.35442 2.09558 6.75 1.35 6.75C0.604416 6.75 0 7.35442 0 8.1C0 8.84558 0.604416 9.45 1.35 9.45Z" fill="black"/>
<path d="M1.35 13.5C2.09558 13.5 2.7 12.8956 2.7 12.15C2.7 11.4044 2.09558 10.8 1.35 10.8C0.604416 10.8 0 11.4044 0 12.15C0 12.8956 0.604416 13.5 1.35 13.5Z" fill="black"/>
<path d="M4.05001 17.55C4.7956 17.55 5.40001 16.9456 5.40001 16.2C5.40001 15.4544 4.7956 14.85 4.05001 14.85C3.30443 14.85 2.70001 15.4544 2.70001 16.2C2.70001 16.9456 3.30443 17.55 4.05001 17.55Z" fill="black"/>
</svg>
