<svg width="24" height="26" viewBox="0 0 24 26" fill="none" xmlns="http://www.w3.org/2000/svg">
<path d="M17.3675 0H23.1196L23.2459 0.0181999L23.371 0.0546001L23.4468 0.0884001C23.5478 0.1326 23.64 0.1989 23.7234 0.2834L23.7739 0.3406L23.8295 0.4147L23.8977 0.5317L23.947 0.6487L23.9709 0.7319L23.9886 0.8151L24 0.9386V6.8302C23.9999 7.07723 23.9087 7.31502 23.7449 7.49553C23.581 7.67603 23.3567 7.7858 23.1173 7.80263C22.8778 7.81947 22.6411 7.74213 22.4549 7.58624C22.2687 7.43035 22.1469 7.20752 22.1142 6.9628L22.1054 6.8302V3.3267L13.9711 11.6987C13.8107 11.8638 13.598 11.9642 13.3718 11.9816C13.1456 11.9991 12.9208 11.9323 12.7383 11.7936L12.6322 11.7L8.80506 7.917L1.61809 15.3127C1.44906 15.4872 1.22212 15.5893 0.982916 15.5985C0.743707 15.6078 0.509963 15.5235 0.328678 15.3626C0.147393 15.2017 0.0320108 14.9761 0.00572934 14.7313C-0.0205521 14.4864 0.0442164 14.2403 0.187012 14.0426L0.279218 13.9334L8.13562 5.8474C8.29618 5.68247 8.5089 5.58231 8.73513 5.56514C8.96136 5.54796 9.18606 5.61491 9.36839 5.7538L9.47449 5.8474L13.3016 9.6304L20.764 1.95H17.3663C17.1376 1.94968 16.9167 1.86421 16.7444 1.70938C16.5722 1.55454 16.4602 1.3408 16.4291 1.1076L16.4202 0.975C16.4202 0.739391 16.5031 0.511755 16.6536 0.33419C16.8041 0.156625 17.0119 0.0411428 17.2387 0.00909996L17.3688 0H17.3675ZM0.948654 19.5C1.1999 19.5 1.44085 19.6027 1.61851 19.7856C1.79616 19.9684 1.89597 20.2164 1.89597 20.475V25.025C1.89597 25.2836 1.79616 25.5316 1.61851 25.7144C1.44085 25.8973 1.1999 26 0.948654 26C0.69741 26 0.456457 25.8973 0.278801 25.7144C0.101144 25.5316 0.00133837 25.2836 0.00133837 25.025V20.475C0.00133837 20.2164 0.101144 19.9684 0.278801 19.7856C0.456457 19.6027 0.69741 19.5 0.948654 19.5ZM8.21141 15.275C8.21141 15.0164 8.1116 14.7684 7.93394 14.5856C7.75629 14.4027 7.51533 14.3 7.26409 14.3C7.01285 14.3 6.77189 14.4027 6.59424 14.5856C6.41658 14.7684 6.31678 15.0164 6.31678 15.275V25.025C6.31678 25.2836 6.41658 25.5316 6.59424 25.7144C6.77189 25.8973 7.01285 26 7.26409 26C7.51533 26 7.75629 25.8973 7.93394 25.7144C8.1116 25.5316 8.21141 25.2836 8.21141 25.025V15.275ZM13.5795 16.9C13.8308 16.9 14.0717 17.0027 14.2494 17.1856C14.427 17.3684 14.5268 17.6164 14.5268 17.875V25.025C14.5268 25.2836 14.427 25.5316 14.2494 25.7144C14.0717 25.8973 13.8308 26 13.5795 26C13.3283 26 13.0873 25.8973 12.9097 25.7144C12.732 25.5316 12.6322 25.2836 12.6322 25.025V17.875C12.6322 17.6164 12.732 17.3684 12.9097 17.1856C13.0873 17.0027 13.3283 16.9 13.5795 16.9ZM20.8423 11.375C20.8423 11.1164 20.7425 10.8684 20.5648 10.6856C20.3872 10.5027 20.1462 10.4 19.895 10.4C19.6437 10.4 19.4028 10.5027 19.2251 10.6856C19.0475 10.8684 18.9476 11.1164 18.9476 11.375V25.025C18.9476 25.2836 19.0475 25.5316 19.2251 25.7144C19.4028 25.8973 19.6437 26 19.895 26C20.1462 26 20.3872 25.8973 20.5648 25.7144C20.7425 25.5316 20.8423 25.2836 20.8423 25.025V11.375Z" fill="#1B1B1B"/>
</svg>
