<svg width="31" height="26" viewBox="0 0 31 26" fill="none" xmlns="http://www.w3.org/2000/svg">
<path d="M15.611 0.527832C7.09679 0.527832 0.425781 3.39731 0.425781 7.0627V11.2779C0.425781 14.8647 6.8245 17.6766 15.0873 17.8075V18.5144C14.2642 18.6461 13.5209 19.0831 13.0056 19.7384C12.4903 20.3936 12.2408 21.219 12.3068 22.05C12.3729 22.881 12.7496 23.6566 13.362 24.2222C13.9744 24.7878 14.7774 25.1019 15.611 25.1019C16.4446 25.1019 17.2476 24.7878 17.8599 24.2222C18.4723 23.6566 18.849 22.881 18.9151 22.05C18.9812 21.219 18.7317 20.3936 18.2163 19.7384C17.701 19.0831 16.9577 18.6461 16.1346 18.5144V17.8075C24.3974 17.6766 30.7962 14.8647 30.7962 11.2779V7.08888C30.7962 3.39731 24.1251 0.527832 15.611 0.527832ZM15.611 1.57509C23.2769 1.57509 29.7489 4.0885 29.7489 7.0627C29.7384 7.54245 29.5833 8.00784 29.3038 8.39795C26.8323 6.16206 21.5698 4.73256 15.611 4.73256C9.65209 4.73256 4.38964 6.15682 1.91812 8.39795C1.63868 8.00784 1.48354 7.54245 1.47304 7.0627C1.47304 4.0885 7.94507 1.57509 15.611 1.57509ZM28.6074 9.18339C26.4239 11.1418 21.3709 12.5503 15.611 12.5503C9.85107 12.5503 4.79807 11.1418 2.61454 9.18339C4.8609 7.13601 9.9715 5.78505 15.611 5.78505C21.2504 5.78505 26.361 7.13601 28.6074 9.18339ZM17.8783 21.7819C17.8779 22.2919 17.7056 22.7869 17.3892 23.1869C17.0728 23.5869 16.6308 23.8685 16.1346 23.9863V22.3893C16.1346 22.2504 16.0794 22.1172 15.9812 22.019C15.883 21.9208 15.7498 21.8656 15.611 21.8656C15.4721 21.8656 15.3389 21.9208 15.2407 22.019C15.1425 22.1172 15.0873 22.2504 15.0873 22.3893V23.9601C14.6728 23.8618 14.2944 23.6486 13.9955 23.345C13.6966 23.0415 13.4892 22.6599 13.3972 22.2439C13.3052 21.828 13.3322 21.3945 13.4752 20.9932C13.6181 20.5919 13.8713 20.239 14.2056 19.9749C14.5399 19.7108 14.9419 19.5463 15.3654 19.5002C15.7889 19.454 16.2168 19.5281 16.6002 19.714C16.9835 19.8999 17.3067 20.19 17.5328 20.5511C17.7588 20.9122 17.8786 21.3297 17.8783 21.7557V21.7819ZM29.7489 11.2779C29.7489 14.184 23.5649 16.6294 16.1346 16.7603V15.0585C16.1346 14.9196 16.0794 14.7864 15.9812 14.6882C15.883 14.59 15.7498 14.5349 15.611 14.5349C15.4721 14.5349 15.3389 14.59 15.2407 14.6882C15.1425 14.7864 15.0873 14.9196 15.0873 15.0585V16.7865C7.65707 16.6294 1.47304 14.184 1.47304 11.2779V9.48709C1.47304 9.48709 1.47304 9.52375 1.50445 9.53422C3.74558 11.922 9.12846 13.5661 15.5743 13.5661C22.0202 13.5661 27.403 11.922 29.6389 9.53422C29.6389 9.53422 29.6389 9.5028 29.6704 9.48709L29.7489 11.2779Z" fill="black"/>
</svg>
