<svg width="36" height="32" viewBox="0 0 36 32" fill="none" xmlns="http://www.w3.org/2000/svg">
<path d="M3.05194 31.8056C1.3689 31.8056 0 30.4402 0 28.763C0 27.0859 1.3689 25.7205 3.05194 25.7205C4.73499 25.7205 6.10389 27.0852 6.10389 28.763C6.10389 30.4409 4.73499 31.8056 3.05194 31.8056ZM3.05194 26.7125C1.91759 26.7125 0.995044 27.6322 0.995044 28.763C0.995044 29.8939 1.91759 30.8136 3.05194 30.8136C4.18629 30.8136 5.10884 29.8939 5.10884 28.763C5.10884 27.6322 4.18629 26.7125 3.05194 26.7125Z" fill="black"/>
<path d="M19.9933 24.4834C19.1781 24.4834 18.4119 24.1666 17.8355 23.592C16.6457 22.4059 16.6457 20.4758 17.8355 19.289C19.0252 18.1028 20.9613 18.1028 22.1518 19.289C23.3416 20.4751 23.3416 22.4052 22.1518 23.592C21.5747 24.1666 20.8078 24.4834 19.9933 24.4834ZM19.9926 19.3917C19.4659 19.3917 18.9392 19.5915 18.5384 19.9911C17.7367 20.7904 17.7367 22.0913 18.5384 22.8912C18.9272 23.2788 19.4432 23.4921 19.9926 23.4921C20.542 23.4921 21.0587 23.2788 21.4468 22.8912C22.2485 22.092 22.2485 20.7911 21.4468 19.9911C21.0466 19.5915 20.5199 19.3917 19.9926 19.3917Z" fill="black"/>
<path d="M32.948 12.8503C32.1662 12.8503 31.3851 12.5534 30.7902 11.9604C29.6004 10.7742 29.6004 8.84414 30.7902 7.65731C31.98 6.47119 33.9161 6.47119 35.1059 7.65731C36.2957 8.84343 36.2957 10.7735 35.1059 11.9604C34.511 12.5534 33.7299 12.8503 32.948 12.8503ZM31.4939 8.35878C30.6921 9.15803 30.6921 10.4589 31.4939 11.2589C32.2956 12.0581 33.6005 12.0581 34.4029 11.2589C35.2047 10.4596 35.2047 9.15874 34.4029 8.35878C33.6005 7.55953 32.2956 7.55953 31.4939 8.35878Z" fill="black"/>
<path d="M7.02074 13.5582C6.23892 13.5582 5.45781 13.2613 4.86292 12.6682C3.67313 11.4821 3.67313 9.55199 4.86292 8.36516C6.0527 7.17903 7.98878 7.17903 9.17928 8.36516C10.3691 9.55128 10.3691 11.4814 9.17928 12.6682C8.58367 13.262 7.80256 13.5582 7.02074 13.5582ZM7.02074 8.4679C6.49408 8.4679 5.96741 8.66771 5.56655 9.06733C4.76483 9.86658 4.76483 11.1675 5.56655 11.9675C6.36828 12.7667 7.67321 12.7667 8.47493 11.9675C9.27665 11.1682 9.27665 9.86729 8.47493 9.06733C8.07407 8.66771 7.5474 8.4679 7.02074 8.4679Z" fill="black"/>
<path d="M23.2982 6.88923C22.5164 6.88923 21.7353 6.59235 21.1404 5.99929C19.9506 4.81317 19.9506 2.88306 21.1404 1.69623C22.3302 0.51011 24.2663 0.51011 25.4568 1.69623C26.6466 2.88235 26.6466 4.81246 25.4568 5.99929C24.8612 6.59235 24.0801 6.88923 23.2982 6.88923ZM23.2982 1.79826C22.7716 1.79826 22.2449 1.99808 21.8441 2.3977C21.0423 3.19695 21.0423 4.49786 21.8441 5.29782C22.6458 6.09707 23.9507 6.09707 24.7531 5.29782C25.5549 4.49857 25.5549 3.19766 24.7531 2.3977C24.3516 1.99808 23.8249 1.79826 23.2982 1.79826Z" fill="black"/>
<path d="M9.03927 12.0773L8.74857 12.3012L18.2228 19.6156L18.5291 19.4037L9.03927 12.0773Z" fill="black"/>
<path d="M25.2955 5.16036L25.0638 5.43316L30.7 8.97735C30.7739 8.90083 30.8592 8.81084 30.9459 8.71306L25.2955 5.16036Z" fill="black"/>
<path d="M6.61491 13.031L3.75771 26.3341L4.10527 26.4085L6.98805 12.9856L6.61491 13.031Z" fill="black"/>
<path d="M22.7133 6.32664L19.7481 18.9063L20.085 19.0268L23.09 6.27775L22.7133 6.32664Z" fill="black"/>
</svg>
