<svg width="34" height="28" viewBox="0 0 34 28" fill="none" xmlns="http://www.w3.org/2000/svg">
<path d="M27.2 16.4C27.2 16.669 27.1202 16.9319 26.9708 17.1556C26.8214 17.3792 26.609 17.5535 26.3604 17.6565C26.1119 17.7594 25.8385 17.7863 25.5747 17.7339C25.3109 17.6814 25.0685 17.5518 24.8783 17.3617C24.6881 17.1715 24.5586 16.9291 24.5061 16.6653C24.4537 16.4015 24.4806 16.128 24.5835 15.8795C24.6865 15.631 24.8608 15.4186 25.0844 15.2692C25.3081 15.1197 25.571 15.04 25.84 15.04C26.2007 15.04 26.5466 15.1833 26.8017 15.4383C27.0567 15.6934 27.2 16.0393 27.2 16.4ZM34 14.02V18.78C34.0135 19.179 33.8838 19.5697 33.6344 19.8815C33.385 20.1933 33.0323 20.4056 32.64 20.48V25.648C32.6224 26.087 32.4356 26.5021 32.1187 26.8063C31.8017 27.1106 31.3793 27.2803 30.94 27.28H3.4C2.49826 27.28 1.63346 26.9218 0.995837 26.2841C0.358213 25.6465 0 24.7817 0 23.88L0 3.47999C0 2.57825 0.358213 1.71345 0.995837 1.07582C1.63346 0.4382 2.49826 0.0799866 3.4 0.0799866H28.22C28.6709 0.0799866 29.1033 0.259093 29.4221 0.577905C29.7409 0.896717 29.92 1.32912 29.92 1.77999V5.51999H30.94C31.1632 5.51999 31.3843 5.56396 31.5906 5.64939C31.7968 5.73482 31.9842 5.86004 32.1421 6.0179C32.2999 6.17576 32.4252 6.36317 32.5106 6.56942C32.596 6.77568 32.64 6.99674 32.64 7.21999V12.388C33.0206 12.4604 33.3643 12.6627 33.6123 12.9604C33.8604 13.258 33.9974 13.6325 34 14.02ZM1.36 3.47999C1.35696 3.75477 1.41099 4.0272 1.51868 4.28003C1.62636 4.53286 1.78536 4.76058 1.9856 4.94879C2.36467 5.31614 2.87213 5.52108 3.4 5.51999H28.56V4.15999H4.08V2.79999H28.56V1.77999C28.56 1.68981 28.5242 1.60333 28.4604 1.53957C28.3967 1.47581 28.3102 1.43999 28.22 1.43999H3.4C2.85896 1.43999 2.34008 1.65491 1.9575 2.03749C1.57493 2.42006 1.36 2.93894 1.36 3.47999ZM31.28 20.48H25.84C24.7579 20.48 23.7202 20.0501 22.955 19.285C22.1899 18.5198 21.76 17.4821 21.76 16.4C21.76 15.3179 22.1899 14.2801 22.955 13.515C23.7202 12.7498 24.7579 12.32 25.84 12.32H31.28V7.21999C31.28 7.12981 31.2442 7.04333 31.1804 6.97957C31.1167 6.91581 31.0302 6.87999 30.94 6.87999H3.4C2.66071 6.87516 1.94365 6.62658 1.36 6.17279V23.8528C1.3564 24.123 1.4065 24.3912 1.50741 24.6418C1.60831 24.8925 1.75801 25.1206 1.9478 25.3129C2.13759 25.5052 2.3637 25.6579 2.61299 25.7621C2.86229 25.8664 3.1298 25.92 3.4 25.92H30.94C31.0302 25.92 31.1167 25.8842 31.1804 25.8204C31.2442 25.7566 31.28 25.6702 31.28 25.58V20.48ZM32.64 14.02C32.64 13.9298 32.6042 13.8433 32.5404 13.7796C32.4767 13.7158 32.3902 13.68 32.3 13.68H25.84C25.4403 13.6742 25.0443 13.7565 24.6801 13.9211C24.3159 14.0857 23.9924 14.3286 23.7327 14.6325C23.473 14.9363 23.2835 15.2936 23.1776 15.6791C23.0717 16.0645 23.052 16.4685 23.12 16.8624C23.2545 17.517 23.6165 18.1029 24.1418 18.5161C24.6671 18.9294 25.3217 19.1433 25.9896 19.12H32.3C32.3902 19.12 32.4767 19.0842 32.5404 19.0204C32.6042 18.9566 32.64 18.8702 32.64 18.78V14.02Z" fill="black"/>
</svg>
