<svg width="440" height="245" viewBox="0 0 440 245" fill="none" xmlns="http://www.w3.org/2000/svg">
<path d="M5.46588 199.225C5.46588 199.225 -0.136601 169.437 49.1926 162.331C97.0187 155.499 110 165.064 139.379 165.747C168.758 166.431 166.708 154.816 206.335 155.499C245.963 156.182 274.658 168.48 310.87 159.598C347.081 150.717 418.82 154.133 429.752 182.144C440.683 210.156 419.503 238.851 362.112 229.286C304.721 219.721 282.857 239.534 223.416 234.069C163.975 228.603 161.926 228.603 140.745 233.385C119.565 238.168 3.41619 255.931 5.46588 199.225Z" fill="url(#paint0_linear_251_2)"/>
<path d="M22.6832 210.019C24.0497 222.864 52.6087 233.385 89.5031 233.385C126.398 233.385 154.41 222.864 156.323 210.019C159.739 187.064 154.82 186.654 89.5031 186.654C44.5466 186.654 19.677 182.008 22.6832 210.019Z" fill="url(#paint1_linear_251_2)"/>
<path d="M89.5031 222.591C126.407 222.591 156.323 212.129 156.323 199.225C156.323 186.32 126.407 175.859 89.5031 175.859C52.5995 175.859 22.6832 186.32 22.6832 199.225C22.6832 212.129 52.5995 222.591 89.5031 222.591Z" fill="url(#paint2_linear_251_2)"/>
<path d="M89.5031 221.224C54.6584 221.224 27.4658 211.523 27.4658 199.088C27.4658 186.654 54.795 176.952 89.5031 176.952C124.211 176.952 151.54 186.654 151.54 199.088C151.54 211.523 124.348 221.224 89.5031 221.224ZM89.5031 178.318C55.8882 178.318 28.6956 187.747 28.6956 199.225C28.6956 210.703 56.0248 220.131 89.5031 220.131C123.118 220.131 150.311 210.703 150.311 199.225C150.311 187.747 123.118 178.318 89.5031 178.318Z" fill="#D09C6C"/>
<path d="M104.671 205.51L88.1366 200.591C80.3478 202.641 73.3788 203.871 67.5031 204.144C61.6273 204.417 56.4347 203.871 52.1987 202.641C47.9627 201.274 45.913 199.635 46.4596 197.312C46.8695 195.125 49.7391 192.803 54.795 190.343L50.9689 189.113L58.0745 186.244L61.9006 187.474C67.5031 185.561 73.1056 184.331 78.4347 183.784C83.9006 183.238 88.9565 183.374 93.7391 184.331L82.6708 189.66C78.8447 188.977 74.7453 189.113 70.5093 190.07L85.9503 194.716C95.5155 192.119 103.031 190.616 108.497 190.343C114.099 190.07 118.882 190.48 123.118 191.846C127.901 193.212 130.087 195.262 129.814 197.585C129.54 200.045 126.534 202.641 120.932 205.374L128.311 207.56L121.205 210.429L114.099 208.243C107.95 210.293 101.665 211.659 95.3788 212.206C89.0931 212.752 82.8074 212.479 76.6583 211.249L88.2733 205.784C90.8695 206.194 93.7391 206.33 96.6087 206.194C99.4782 206.33 102.211 206.057 104.671 205.51ZM63.4037 193.076C62.0372 194.032 61.354 194.852 61.4906 195.672C61.6273 196.492 62.4472 197.175 63.9503 197.585C65.3167 197.995 67.0931 198.132 69.4161 198.132C71.6024 198.132 74.1987 197.722 77.0683 197.175L63.4037 193.076ZM112.186 202.914C114.236 201.821 115.329 200.728 115.329 199.771C115.466 198.678 114.509 197.858 112.46 197.312C110.683 196.765 108.497 196.629 106.037 196.765C103.441 196.902 100.435 197.448 96.7453 198.405L112.186 202.914Z" fill="#A97C50"/>
<path opacity="0.55" d="M148.261 189.66C148.261 189.66 109.317 196.082 113.416 202.231C117.516 208.38 148.944 209.473 148.944 209.473L145.255 221.771L168.894 219.448C168.894 219.448 181.603 224.504 193.217 223.137C204.832 221.771 207.565 220.404 207.565 220.404C207.565 220.404 251.292 212.206 310.05 206.74C368.808 201.274 403.652 191.709 403.652 191.709L394.087 185.561C394.087 185.561 344.211 195.126 338.062 188.977C331.913 182.828 367.441 176.679 367.441 176.679L361.292 170.53C361.292 170.53 318.932 175.312 246.509 182.828C181.739 189.523 185.702 186.244 185.702 186.244C185.702 186.244 155.64 188.977 157.006 196.492C158.373 204.007 161.106 206.057 161.106 206.057C161.106 206.057 155.776 188.977 148.261 189.66Z" fill="black"/>
<path d="M204.969 144.431C204.969 144.431 206.745 147.164 212.211 144.431C217.677 141.698 248.696 124.481 248.696 124.481L244.186 119.836" fill="#A7A9AC"/>
<path d="M398.323 111.09C399.553 106.581 401.056 103.029 402.559 99.8857C392.994 112.593 377.143 114.916 389.578 141.425L403.106 156.592L401.466 177.772C401.466 177.772 389.441 175.039 388.895 185.697C388.348 196.355 404.199 194.989 409.665 190.07L413.491 147.711C413.354 147.711 390.534 139.512 398.323 111.09Z" fill="black"/>
<path d="M362.522 138.282L369.081 146.344L364.708 165.201C364.708 165.201 354.87 161.238 352.82 170.667C350.77 180.095 364.572 180.915 369.901 177.362L380.149 137.053C380.149 137.053 370.994 132.817 372.77 118.469C370.584 102.209 356.373 119.016 362.522 138.282Z" fill="black"/>
<path d="M372.77 118.606C373.18 115.053 374.273 110.954 376.46 106.035C386.981 81.439 394.77 86.6314 385.342 55.2037C385.342 55.2037 381.516 46.7318 379.739 45.2288C379.739 45.2288 365.528 50.6945 357.603 73.1038C349.677 95.5132 344.075 107.674 340.522 111.227L362.385 138.419C363.752 130.767 367.441 123.798 372.77 118.606Z" fill="black"/>
<path d="M364.572 169.027C363.205 169.164 361.975 169.574 361.019 170.257C360.062 170.94 359.516 172.17 359.106 173.263C358.832 174.493 358.559 175.722 358.832 176.952C359.106 178.045 360.062 179.002 361.429 179.275C360.745 179.412 360.062 179.275 359.379 178.865C358.696 178.455 358.149 177.909 357.876 177.226C357.329 175.722 357.466 174.219 357.876 172.853C358.286 171.487 359.106 170.12 360.472 169.3C361.702 168.617 363.342 168.48 364.572 169.027Z" fill="#4D4D4F"/>
<path d="M359.652 168.07C358.286 168.207 357.056 168.617 356.099 169.3C355.143 169.983 354.596 171.213 354.186 172.306C353.913 173.536 353.64 174.766 353.913 175.996C354.186 177.089 355.143 178.045 356.509 178.319C355.826 178.455 355.143 178.319 354.46 177.909C353.776 177.499 353.23 176.952 352.957 176.269C352.41 174.766 352.547 173.263 352.957 171.896C353.367 170.53 354.186 169.164 355.553 168.344C356.783 167.66 358.286 167.66 359.652 168.07Z" fill="#4D4D4F"/>
<path d="M206.882 173.126L183.106 181.461C183.106 181.461 167.391 173.673 160.149 184.194C160.149 184.194 159.056 188.02 161.242 190.343C161.242 190.343 158.509 196.902 168.075 198.268C168.075 198.268 173.267 201.274 178.323 198.952C186.112 195.399 186.795 191.026 186.795 191.026C186.795 191.026 203.876 184.741 220.683 179.822C220.683 170.94 212.211 173.126 206.882 173.126Z" fill="black"/>
<path d="M276.298 141.152L276.025 131.86C276.025 131.86 264 125.711 248.696 124.345C248.696 124.345 248.969 147.574 237.491 162.331L207.019 173.126C212.348 173.126 217.404 174.902 220.82 179.822C234.894 175.722 248.832 172.443 252.522 174.629C252.522 174.629 262.907 175.312 267.28 164.381C273.429 148.667 287.776 150.717 287.776 150.717L276.298 141.152Z" fill="url(#paint3_linear_251_2)"/>
<path d="M168.075 198.268C167.528 197.039 167.391 195.672 167.391 194.306C167.528 192.939 167.938 191.573 168.894 190.343C169.851 189.25 171.217 188.43 172.584 188.293C173.267 188.157 173.95 188.157 174.634 188.157C175.317 188.293 176 188.43 176.547 188.567C175.863 188.703 175.18 188.703 174.634 188.84C174.087 188.977 173.404 189.113 172.857 189.25C172.584 189.387 172.311 189.523 172.037 189.523C171.764 189.66 171.491 189.796 171.217 189.933C170.944 190.07 170.808 190.206 170.534 190.48C170.261 190.616 170.124 190.89 169.988 191.026C169.304 191.846 168.758 192.939 168.485 194.169C168.211 195.672 168.075 196.902 168.075 198.268Z" fill="#6D6E71"/>
<path d="M161.242 190.343C161.106 189.113 161.379 187.747 161.926 186.517C162.472 185.287 163.429 184.194 164.658 183.511C165.888 182.828 167.391 182.691 168.621 182.964C169.304 183.101 169.851 183.374 170.534 183.511C171.081 183.784 171.627 184.058 172.174 184.467C171.491 184.467 170.944 184.331 170.261 184.194C169.714 184.194 169.031 184.058 168.485 184.058C167.255 184.058 166.162 184.331 165.205 184.741C164.249 185.287 163.429 186.107 162.745 187.064C162.199 188.157 161.652 189.25 161.242 190.343Z" fill="#6D6E71"/>
<path d="M309.503 13.801C308.82 13.5277 308.137 13.391 307.317 13.2544C283.814 21.5896 285.727 42.4959 285.727 42.4959C285.727 42.4959 293.926 29.3782 312.236 24.0492C313.329 20.4964 312.919 16.8071 309.503 13.801Z" fill="url(#paint4_linear_251_2)"/>
<path d="M318.112 10.5215C314.013 11.0681 310.46 12.0246 307.317 13.1177C308.137 13.2544 308.82 13.391 309.503 13.6643C312.919 16.6704 313.329 20.3598 312.236 23.9125C318.112 22.1361 325.081 21.3163 333.143 21.8628C366.075 24.4591 370.037 39.3531 370.037 39.3531L373.18 40.5829C377.143 30.8813 353.093 5.60239 318.112 10.5215Z" fill="url(#paint5_linear_251_2)"/>
<path d="M371.404 64.632C374.273 51.1044 384.112 42.7692 390.808 40.8562C386.025 38.9432 379.056 37.7134 369.764 39.3531C369.764 39.3531 360.472 50.0112 337.652 72.8305C318.522 91.9605 307.59 90.5941 307.59 90.5941C307.59 90.5941 254.981 71.0542 218.497 87.8612C218.497 87.8612 212.758 91.2773 215.491 93.3269C217.404 94.83 225.876 108.084 230.795 115.736C238.311 113.96 249.926 111.227 250.609 111.774C251.702 112.457 248.149 116.146 254.981 121.612C261.814 127.078 271.652 114.78 278.211 116.419C284.77 118.059 286.137 123.525 285.317 127.351C284.497 131.177 291.876 136.916 292.832 136.916C293.789 136.916 301.031 135.549 301.031 135.549C301.031 135.549 312.646 152.63 331.093 144.021C349.54 135.413 353.23 127.624 360.882 112.594C361.429 111.5 362.112 110.407 362.658 109.314C368.124 91.9605 367.714 81.7123 371.404 64.632Z" fill="url(#paint6_linear_251_2)"/>
<path d="M390.671 40.9928C383.975 42.9058 369.627 48.5081 366.895 62.0357C363.342 79.1161 368.124 92.0971 362.522 109.724C362.658 109.451 362.795 109.314 362.932 109.041C368.124 94.9666 375.093 88.4077 383.019 79.1161C383.019 79.1161 386.435 53.4273 399.69 47.0051C399.69 46.8684 396.957 43.3157 390.671 40.9928Z" fill="url(#paint7_linear_251_2)"/>
<path d="M330.957 144.295C312.509 152.766 300.895 135.823 300.895 135.823C300.895 135.823 293.789 137.189 292.696 137.189C291.603 137.189 284.497 131.45 285.18 127.624C285.863 123.798 284.497 118.332 278.075 116.693C271.652 115.053 266.05 120.519 259.218 115.053C252.385 109.587 251.292 112.593 250.336 112.047C249.652 111.637 237.901 114.233 230.522 116.01C232.572 119.289 233.938 121.612 233.938 121.612L235.441 127.761C235.441 127.761 247.603 122.022 258.808 135.959C271.379 151.673 299.801 163.288 329.59 155.363C347.354 150.717 355.28 129.947 362.795 109.041C362.112 110.271 361.292 111.637 360.609 113.003C353.23 127.897 349.54 135.686 330.957 144.295Z" fill="url(#paint8_linear_251_2)"/>
<path d="M402.559 99.8858C410.485 83.352 419.64 82.3955 405.839 55.067C405.839 55.067 400.1 46.5952 397.64 45.2288C397.64 45.2288 382.336 53.4273 377.143 79.1161C371.95 104.805 370.311 115.326 370.994 120.792L389.578 141.562C385.478 126.531 392.857 112.594 402.559 99.8858Z" fill="url(#paint9_linear_251_2)"/>
<path d="M203.603 205.374C203.603 205.374 191.304 198.268 185.155 203.734C179.006 209.2 182.422 213.572 182.422 213.572C182.422 213.572 179.963 218.355 187.205 219.311C187.205 219.311 191.988 223.137 199.23 220.951C206.472 218.765 207.155 214.392 207.155 214.392L239.404 202.778C248.696 197.995 246.919 193.622 244.323 190.206L203.603 205.374Z" fill="black"/>
<path d="M306.087 140.878C306.087 140.878 309.503 135.413 306.77 129.674C306.77 129.674 298.572 90.7307 273.292 106.445C256.075 117.239 264.41 154.269 264.41 154.269C264.41 154.269 273.702 168.617 266.87 182.281L244.323 190.616C241.727 194.442 239.95 199.088 239.404 203.187L287.093 186.107C287.093 186.107 291.466 182.281 290.099 174.219C288.596 165.747 298.162 140.469 306.087 140.878Z" fill="url(#paint10_linear_251_2)"/>
<path d="M196.497 209.473C195.267 209.61 194.037 210.02 192.808 210.429C191.714 210.976 190.621 211.659 189.801 212.479C188.982 213.436 188.435 214.392 188.025 215.622C187.752 216.168 187.752 216.852 187.478 217.398C187.342 218.081 187.342 218.628 187.205 219.311C187.068 218.628 187.068 218.081 187.068 217.398C187.068 216.715 187.068 216.032 187.342 215.349C187.615 213.982 188.298 212.752 189.118 211.659C190.075 210.703 191.305 209.883 192.534 209.473C193.764 209.336 195.131 209.336 196.497 209.473Z" fill="#6D6E71"/>
<path d="M182.832 214.665C182.696 213.299 182.969 211.796 183.379 210.566C183.789 209.2 184.609 207.97 185.839 207.013C187.068 206.057 188.708 205.647 190.075 205.92C190.758 205.92 191.441 206.33 192.124 206.467C192.808 206.74 193.354 207.15 193.901 207.56C193.218 207.423 192.534 207.287 191.851 207.15L190.895 207.013H190.348H189.801C188.572 207.013 187.342 207.423 186.385 208.107C185.429 208.79 184.609 209.883 184.062 210.976C183.652 212.069 183.242 213.299 182.832 214.665Z" fill="#6D6E71"/>
<path d="M402.012 182.145C400.509 182.281 399.143 182.691 398.05 183.511C396.957 184.331 396.41 185.561 396 186.79C395.59 188.157 395.453 189.523 395.727 190.753C396 191.983 397.093 192.939 398.596 193.349C397.913 193.486 397.093 193.349 396.273 192.939C395.59 192.529 394.907 191.846 394.634 191.163C393.95 189.523 394.224 187.883 394.634 186.38C395.044 184.877 396 183.374 397.366 182.554C399.006 181.871 400.646 181.735 402.012 182.145Z" fill="#4D4D4F"/>
<path d="M396.547 181.188C395.044 181.325 393.677 181.735 392.584 182.554C391.491 183.374 390.944 184.604 390.534 185.834C390.124 187.2 389.988 188.567 390.261 189.797C390.534 191.026 391.627 191.983 393.131 192.393C392.447 192.529 391.627 192.393 390.808 191.983C390.124 191.573 389.441 190.89 389.168 190.206C388.485 188.567 388.758 186.927 389.168 185.424C389.578 183.921 390.534 182.418 391.901 181.598C393.54 180.778 395.18 180.641 396.547 181.188Z" fill="#4D4D4F"/>
<path d="M219.317 88.4077C214.398 82.942 203.193 76.7931 198.82 74.0603C196.497 72.6939 195.404 73.1038 194.994 73.787L210.298 92.0971C210.298 92.0971 217.267 93.4635 221.64 94.0101C221.64 92.3704 221.093 90.4574 219.317 88.4077Z" fill="url(#paint11_linear_251_2)"/>
<path d="M221.913 82.942C216.584 76.6564 203.466 72.0106 198.137 71.7373C192.807 71.464 194.857 73.787 194.857 73.787L194.994 73.9236C195.54 73.2404 196.497 72.6938 198.82 74.1969C203.193 76.9297 214.398 83.0787 219.317 88.5443C221.093 90.4573 221.64 92.507 221.503 94.2833C222.323 94.42 223.006 94.42 223.553 94.5566C227.106 94.6933 227.106 89.2276 221.913 82.942Z" fill="black"/>
<path d="M233.938 81.7122C229.565 75.9732 224.099 71.0541 217.814 66.4083C213.851 63.2655 211.938 63.5388 211.255 64.6319C211.255 66.5449 212.485 69.4144 213.851 72.6938C216.857 79.6626 223.69 90.3207 223.69 90.3207L235.578 95.1032C236.534 91.5505 236.944 85.6749 233.938 81.7122Z" fill="url(#paint12_linear_251_2)"/>
<path d="M244.323 86.2214C243.776 80.0725 223.689 66.2716 216.447 63.2655C212.621 61.7624 211.391 62.4456 211.391 64.6319C212.075 63.5388 213.988 63.2655 217.95 66.4083C224.099 71.1908 229.565 75.9732 234.075 81.7122C237.081 85.5382 236.534 91.4138 235.851 95.1032L244.05 98.5192C244.05 98.5192 244.733 92.3703 244.323 86.2214Z" fill="black"/>
<path d="M212.075 115.873C214.671 118.059 226.422 121.339 232.845 117.239C239.267 113.14 237.491 111.774 245.416 106.991C252.249 102.892 250.199 96.0597 251.702 97.836C250.745 96.6063 249.652 95.5131 248.559 94.42C237.354 84.4451 216.857 88.2711 216.857 88.2711C216.857 88.2711 201.416 94.2833 197.59 101.115C193.764 107.948 202.783 110.544 202.783 110.544L207.429 113.96C207.429 113.823 209.615 113.687 212.075 115.873Z" fill="url(#paint13_linear_251_2)"/>
<path d="M202.646 110.407C205.106 110.407 207.155 108.358 207.155 105.898C207.155 103.438 205.106 101.389 202.646 101.389C200.186 101.389 198.137 103.438 198.137 105.898C198.137 108.358 200.186 110.407 202.646 110.407Z" fill="black"/>
<path d="M201.963 110.407C204.013 110.407 205.652 108.767 205.652 106.718C205.652 104.668 204.013 103.028 201.963 103.028C199.913 103.028 198.273 104.668 198.273 106.718C198.273 108.767 199.913 110.407 201.963 110.407Z" fill="white"/>
<path d="M251.839 97.8361C250.335 96.1964 244.87 90.8673 238.037 94.9666C229.975 99.7491 235.578 105.351 229.155 109.451C222.733 113.55 214.808 111.09 212.211 108.904C209.615 106.718 206.472 108.358 206.472 108.358L202.646 110.407C202.646 110.407 182.832 123.388 177.913 126.804C172.994 130.22 175.727 132.543 175.727 132.543C185.839 145.388 199.503 140.605 199.503 140.605C198.41 142.108 202.099 142.108 201.143 143.065C199.503 144.704 202.373 146.208 202.373 146.208C206.335 147.027 207.292 144.158 207.292 144.158L208.658 143.338L235.441 127.488C257.851 124.755 259.764 108.358 251.839 97.8361Z" fill="url(#paint14_linear_251_2)"/>
<path d="M219.863 107.674C223.184 107.674 225.876 104.983 225.876 101.662C225.876 98.3416 223.184 95.6498 219.863 95.6498C216.543 95.6498 213.851 98.3416 213.851 101.662C213.851 104.983 216.543 107.674 219.863 107.674Z" fill="black"/>
<path d="M218.907 107.264C221.775 107.264 224.099 104.94 224.099 102.072C224.099 99.2044 221.775 96.8796 218.907 96.8796C216.039 96.8796 213.714 99.2044 213.714 102.072C213.714 104.94 216.039 107.264 218.907 107.264Z" fill="white"/>
<path d="M217.54 106.991C219.125 106.991 220.41 105.706 220.41 104.122C220.41 102.537 219.125 101.252 217.54 101.252C215.956 101.252 214.671 102.537 214.671 104.122C214.671 105.706 215.956 106.991 217.54 106.991Z" fill="black"/>
<path d="M201.553 110.407C202.911 110.407 204.013 109.306 204.013 107.948C204.013 106.589 202.911 105.488 201.553 105.488C200.194 105.488 199.093 106.589 199.093 107.948C199.093 109.306 200.194 110.407 201.553 110.407Z" fill="black"/>
<path d="M196.087 100.432C197.317 99.4758 198.82 98.7926 200.46 98.7926C201.28 98.7926 202.099 99.0659 202.783 99.4758C203.466 99.8857 204.013 100.569 204.286 101.252C203.603 100.842 203.056 100.432 202.373 100.159C201.69 99.8857 201.006 99.8857 200.323 99.8857C199.64 99.8857 198.957 99.8857 198.273 100.022C197.59 100.159 196.907 100.159 196.087 100.432Z" fill="black"/>
<path d="M213.304 93.1903C214.124 91.6872 215.627 90.5941 217.267 90.1841C218.087 90.0475 219.044 90.0475 219.863 90.4574C220.683 90.7307 221.367 91.4139 221.776 92.0971C221.093 91.6872 220.41 91.4139 219.59 91.2773C218.907 91.1406 218.087 91.1406 217.404 91.2773C216.721 91.4139 216.037 91.6872 215.217 92.0971C214.671 92.3704 213.988 92.7803 213.304 93.1903Z" fill="black"/>
<path d="M232.025 124.071C232.025 124.071 234.485 124.755 233.938 126.941C233.391 129.127 229.702 129.537 229.702 129.537C229.702 129.537 232.435 131.04 234.348 128.717C236.261 126.394 233.118 124.071 232.025 124.071Z" fill="#808285"/>
<path d="M200.46 143.201C200.323 143.338 200.187 143.338 200.187 143.338C200.187 143.338 200.323 143.475 200.46 143.201Z" fill="black"/>
<path d="M227.379 127.624C227.379 127.487 227.379 127.214 227.242 127.078C226.559 125.984 224.509 127.351 224.509 127.351L197.317 141.152C197.454 142.382 201.553 142.791 201.416 142.928C203.876 141.425 221.777 130.767 224.236 129.537C224.646 129.4 224.919 129.127 225.193 128.991C225.466 129.264 225.876 129.537 226.286 129.537C227.106 129.537 227.652 128.991 227.652 128.171C227.516 128.034 227.379 127.761 227.379 127.624Z" fill="black"/>
<path d="M193.764 131.45C194.066 131.45 194.311 131.205 194.311 130.904C194.311 130.602 194.066 130.357 193.764 130.357C193.462 130.357 193.217 130.602 193.217 130.904C193.217 131.205 193.462 131.45 193.764 131.45Z" fill="black"/>
<path d="M198.41 132.407C198.712 132.407 198.957 132.162 198.957 131.86C198.957 131.558 198.712 131.313 198.41 131.313C198.108 131.313 197.863 131.558 197.863 131.86C197.863 132.162 198.108 132.407 198.41 132.407Z" fill="black"/>
<path d="M202.783 129.674C203.085 129.674 203.329 129.429 203.329 129.127C203.329 128.825 203.085 128.581 202.783 128.581C202.481 128.581 202.236 128.825 202.236 129.127C202.236 129.429 202.481 129.674 202.783 129.674Z" fill="black"/>
<path d="M198.547 128.034C198.848 128.034 199.093 127.789 199.093 127.487C199.093 127.186 198.848 126.941 198.547 126.941C198.245 126.941 198 127.186 198 127.487C198 127.789 198.245 128.034 198.547 128.034Z" fill="black"/>
<path d="M202.646 125.165C202.948 125.165 203.193 124.92 203.193 124.618C203.193 124.316 202.948 124.071 202.646 124.071C202.344 124.071 202.099 124.316 202.099 124.618C202.099 124.92 202.344 125.165 202.646 125.165Z" fill="black"/>
<path d="M182.969 126.804C182.969 126.804 181.603 124.345 176 127.897C168.621 132.407 174.087 135.823 178.87 134.593C183.652 133.363 184.199 128.034 182.969 126.804Z" fill="black"/>
<path d="M174.634 130.767C174.634 130.767 180.373 126.804 181.193 128.034C182.013 129.264 174.634 130.767 174.634 130.767Z" fill="white"/>
<path d="M206.882 96.743L206.745 96.4697L208.112 95.5132L208.248 95.7865L206.882 96.743Z" fill="#414042"/>
<path d="M208.795 98.3826H208.522C208.658 97.6994 209.205 97.0162 209.888 96.7429L210.025 97.0162C209.342 97.2895 208.932 97.8361 208.795 98.3826Z" fill="#414042"/>
<path d="M231.342 92.7803H228.609V93.0536H231.342V92.7803Z" fill="#414042"/>
<path d="M229.975 91.1406C228.882 90.7307 227.516 90.5941 226.422 90.8674L226.286 90.5941C227.516 90.3208 228.882 90.4574 230.112 90.8674L229.975 91.1406Z" fill="#414042"/>
<path d="M253.615 91.2773L249.652 90.7307V90.3208L253.752 91.004L253.615 91.2773Z" fill="#414042"/>
<path d="M252.385 87.7245H248.696V87.9978H252.385V87.7245Z" fill="#414042"/>
<path d="M252.932 84.9917C251.702 84.0352 249.926 83.8985 248.422 84.5817L248.286 84.3084C249.789 83.4886 251.702 83.7619 253.068 84.7184L252.932 84.9917Z" fill="#414042"/>
<path d="M259.491 97.6994C259.354 97.6994 259.354 97.6994 259.217 97.6994L255.938 96.7429L256.075 96.4696L259.354 97.4261C259.354 97.2895 259.354 97.2895 259.491 97.2895C259.627 97.1528 259.764 97.2895 259.901 97.2895C260.037 97.4261 260.037 97.5627 259.901 97.5627C259.764 97.5627 259.627 97.6994 259.491 97.6994ZM259.491 97.2895C259.491 97.2895 259.491 97.4261 259.491 97.2895C259.491 97.4261 259.491 97.4261 259.491 97.2895C259.627 97.2895 259.627 97.2895 259.491 97.2895Z" fill="#414042"/>
<path d="M260.447 94.0101L257.714 93.1903L257.851 92.917L260.584 93.6002L260.447 94.0101Z" fill="#414042"/>
<path d="M261.814 88.9544C260.994 88.5444 260.037 88.4078 259.218 88.4078V88.1345C260.174 88.1345 261.131 88.2712 261.95 88.6811L261.814 88.9544Z" fill="#414042"/>
<path d="M266.05 86.0849C264.957 85.6749 263.863 85.265 262.77 84.8551L262.907 84.5818C264 84.9917 265.093 85.4016 266.186 85.8116L266.05 86.0849Z" fill="#414042"/>
<path d="M265.093 101.935C264.137 101.935 263.18 101.662 262.36 101.252L262.497 100.979C263.317 101.389 264.137 101.662 265.093 101.662V101.935Z" fill="#414042"/>
<path d="M269.603 95.2399L266.46 94.2834L266.596 94.0101L269.739 94.9666L269.603 95.2399Z" fill="#414042"/>
<path d="M275.752 91.2773C274.522 91.2773 273.155 90.7307 272.335 89.9109L272.609 89.6376C273.429 90.4574 274.658 91.004 275.888 91.004C276.025 91.004 276.025 91.004 276.162 91.004V91.2773C275.888 91.2773 275.752 91.2773 275.752 91.2773Z" fill="#414042"/>
<path d="M280.124 89.2276C278.621 88.1345 276.845 87.178 275.068 86.768L275.205 86.4948C277.118 87.0413 278.894 87.8612 280.398 89.091L280.124 89.2276Z" fill="#414042"/>
<path d="M295.565 101.116C294.062 100.979 292.559 100.296 291.329 99.3392L291.603 99.0659C292.696 100.022 294.199 100.569 295.565 100.706V101.116Z" fill="#414042"/>
<path d="M296.932 97.2896C294.882 97.0163 292.969 96.1964 291.329 94.9666L291.603 94.6934C293.106 95.9231 295.019 96.743 296.932 97.0163V97.2896Z" fill="#414042"/>
<path d="M304.174 105.351C302.534 105.078 300.895 104.395 299.528 103.438L299.665 103.165C301.031 104.122 302.534 104.668 304.174 104.942V105.351Z" fill="#414042"/>
<path d="M303.764 98.6559C301.441 98.6559 299.118 97.6994 297.342 96.333L297.615 96.0597C299.391 97.4261 301.578 98.246 303.901 98.3826L303.764 98.6559Z" fill="#414042"/>
<path d="M309.093 103.165C307.863 102.209 306.36 101.799 304.857 101.799C304.721 101.799 304.721 101.799 304.584 101.799V101.525C304.721 101.525 304.721 101.525 304.857 101.525C306.497 101.525 308 102.072 309.23 103.028L309.093 103.165Z" fill="#414042"/>
<path d="M312.646 97.0162C311.28 97.0162 309.913 96.7429 308.82 96.0597L308.957 95.7864C310.596 96.6062 312.509 96.8795 314.286 96.6062L314.422 96.8795C313.876 97.0162 313.329 97.0162 312.646 97.0162Z" fill="#414042"/>
<path d="M319.752 105.488H315.242V105.761H319.752V105.488Z" fill="#414042"/>
<path d="M316.609 113.277C315.106 113.277 313.466 113.14 311.963 112.73L312.099 112.457C314.286 112.867 316.609 113.003 318.932 112.867V113.14C318.112 113.14 317.292 113.277 316.609 113.277Z" fill="#414042"/>
<path d="M317.975 124.481C316.882 124.481 315.789 124.345 314.696 123.935L314.832 123.661C316.336 124.208 318.112 124.345 319.752 124.071L319.888 124.345C319.205 124.481 318.522 124.481 317.975 124.481Z" fill="#414042"/>
<path d="M320.298 132.407H315.242V132.68H320.298V132.407Z" fill="#414042"/>
<path d="M316.745 120.792C315.242 120.792 313.739 120.519 312.509 119.836L312.646 119.562C314.013 120.109 315.652 120.519 317.155 120.382V120.655C316.882 120.792 316.882 120.792 316.745 120.792Z" fill="#414042"/>
<path d="M332.186 127.351L332.05 127.078C333.963 126.121 335.603 124.891 337.106 123.525L337.379 123.798C335.739 125.165 334.1 126.394 332.186 127.351Z" fill="#414042"/>
<path d="M328.497 117.786L328.36 117.513L331.503 115.6L331.64 115.873L328.497 117.786Z" fill="#414042"/>
<path d="M335.278 97.3602L330.61 100.458L330.837 100.799L335.505 97.7018L335.278 97.3602Z" fill="#414042"/>
<path d="M337.652 109.041L337.379 108.768L340.658 105.625L340.932 105.898L337.652 109.041Z" fill="#414042"/>
<path d="M342.708 94.5566L342.572 94.2834C344.211 93.6001 345.441 91.9604 345.578 90.1841H345.851C345.714 92.0971 344.348 93.7368 342.708 94.5566Z" fill="#414042"/>
<path d="M342.833 82.2476L338.851 85.5796L339.026 85.7892L343.008 82.4572L342.833 82.2476Z" fill="#414042"/>
<path d="M352.137 101.662L351.863 101.525C352.82 99.8858 353.776 98.1094 354.323 96.1964L354.596 96.3331C354.05 98.1094 353.23 99.8858 352.137 101.662Z" fill="#414042"/>
<path d="M353.093 85.265L352.957 84.9917C354.323 84.1718 355.143 82.6688 355.28 81.0291H355.553C355.416 82.8054 354.46 84.4451 353.093 85.265Z" fill="#414042"/>
<path d="M352.82 73.1038L352.547 72.8305L355.553 68.1847L355.826 68.3213L352.82 73.1038Z" fill="#414042"/>
<path d="M359.516 73.9237L359.242 73.6504C360.335 72.6939 360.745 71.0542 360.472 69.6877H360.745C361.155 71.1908 360.609 72.8305 359.516 73.9237Z" fill="#414042"/>
<path d="M364.025 53.4272L363.752 53.154C365.118 52.0608 366.348 50.5578 367.304 49.0547L367.578 49.1913C366.758 50.831 365.528 52.3341 364.025 53.4272Z" fill="#414042"/>
<path d="M319.068 95.6498C318.932 95.6498 318.932 95.6498 318.795 95.6498V95.3765C320.298 95.5132 321.938 94.6933 322.758 93.3269L323.031 93.4635C322.211 94.83 320.708 95.6498 319.068 95.6498Z" fill="#414042"/>
<path d="M327.54 17.6269L327.404 17.3536C327.404 17.3536 327.404 17.3536 327.267 17.217C327.131 17.0803 326.857 16.9437 326.584 16.9437L321.528 17.217V16.9437L326.584 16.6704C326.994 16.6704 327.54 17.0803 327.54 17.3536C327.814 17.3536 327.677 17.4903 327.54 17.6269Z" fill="#414042"/>
<path d="M344.758 20.2232L340.249 19.2667V18.9934L344.894 19.9499L344.758 20.2232Z" fill="#414042"/>
<path d="M360.335 25.4155L355.689 22.4094L355.826 22.1361L360.609 25.1422L360.335 25.4155Z" fill="#414042"/>
<path d="M367.199 29.4224L367.007 29.6166L369.726 32.3085L369.918 32.1144L367.199 29.4224Z" fill="#414042"/>
<path d="M273.565 153.586C272.199 150.99 271.106 148.257 270.422 145.251L270.696 145.114C271.379 147.984 272.336 150.717 273.839 153.313L273.565 153.586Z" fill="#414042"/>
<path d="M272.609 138.965C271.789 136.779 271.516 134.32 271.789 131.997H272.062C271.789 134.32 272.062 136.643 272.882 138.692L272.609 138.965Z" fill="#414042"/>
<path d="M279.304 143.475L278.758 138.009H279.168L279.578 143.475H279.304Z" fill="#414042"/>
<path d="M278.612 121.059L277.229 126.064L277.492 126.137L278.876 121.132L278.612 121.059Z" fill="#414042"/>
<path d="M278.673 112.947L275.953 115.637L276.145 115.832L278.865 113.141L278.673 112.947Z" fill="#414042"/>
<path d="M290.236 116.283L289.963 116.146C290.646 115.053 292.012 114.506 293.379 114.643V114.916C292.149 114.78 290.919 115.326 290.236 116.283Z" fill="#414042"/>
<path d="M285.59 133.5C285.044 131.45 286 129.264 287.776 128.171L287.913 128.444C286.273 129.401 285.453 131.587 285.863 133.363L285.59 133.5Z" fill="#414042"/>
<path d="M291.86 138.347L289.247 142.992L289.604 143.193L292.217 138.548L291.86 138.347Z" fill="#414042"/>
<path d="M297.342 128.171C297.068 128.034 297.068 127.761 297.068 127.487C297.205 127.078 297.478 126.804 297.888 126.668C298.162 126.668 298.298 126.668 298.571 126.941L298.298 127.078C298.298 126.941 298.162 126.941 298.025 126.941C297.752 126.941 297.615 127.214 297.478 127.487C297.478 127.624 297.478 127.761 297.615 127.761L297.342 128.171Z" fill="#414042"/>
<path d="M285.453 163.151C285.18 161.512 285.727 159.735 286.82 158.505L287.093 158.779C286 160.008 285.59 161.648 285.863 163.151H285.453Z" fill="#414042"/>
<path d="M249.894 157.89L248.541 159.242L248.831 159.532L250.184 158.18L249.894 157.89Z" fill="#414042"/>
<path d="M252.385 148.94C252.385 148.53 252.385 148.121 252.658 147.847C252.932 147.574 253.342 147.301 253.615 147.301V147.574C253.342 147.574 253.068 147.711 252.795 147.984C252.522 148.257 252.522 148.53 252.522 148.804L252.385 148.94Z" fill="#414042"/>
<path d="M257.441 161.785L257.168 161.511C257.988 160.555 258.671 159.735 259.491 158.779L259.764 159.052C258.944 160.008 258.261 160.828 257.441 161.785Z" fill="#414042"/>
<path d="M255.665 154.133L255.528 153.996L255.391 153.859L257.578 151.673L257.168 152.493C256.894 153.176 256.348 153.86 255.665 154.133Z" fill="#414042"/>
<path d="M229.155 94.8299L229.019 94.5567L231.752 93.0536L231.888 93.4635L229.155 94.8299Z" fill="#414042"/>
<path d="M252.522 89.091C251.839 89.091 251.155 88.9543 250.472 88.5444L250.609 88.2711C251.429 88.681 252.385 88.8177 253.205 88.681V88.9543C253.068 88.9543 252.795 89.091 252.522 89.091Z" fill="black"/>
<path d="M259.081 84.0352H255.938V84.3084H259.081V84.0352Z" fill="black"/>
<path d="M258.124 95.7864C257.168 95.3765 256.075 95.2398 254.981 95.3765V95.1032C256.075 94.9665 257.168 95.2398 258.261 95.6497L258.124 95.7864Z" fill="black"/>
<path d="M265.093 90.8674L262.36 89.9109V89.6376L265.093 90.4574V90.8674Z" fill="black"/>
<path d="M271.483 85.5209L271.425 85.7881L273.696 86.2768L273.754 86.0096L271.483 85.5209Z" fill="black"/>
<path d="M264.957 104.258L262.77 103.575L262.907 103.165L265.093 103.848L264.957 104.258Z" fill="black"/>
<path d="M274.249 95.6499C273.292 95.3766 272.336 95.2399 271.516 94.9666L271.652 94.6934C272.609 94.9666 273.565 95.1033 274.385 95.3766L274.249 95.6499Z" fill="black"/>
<path d="M287.366 92.507C287.093 91.8238 286.41 91.4138 285.59 91.2772V91.0039C286.41 91.0039 287.23 91.5505 287.64 92.3703L287.366 92.507Z" fill="black"/>
<path d="M286.484 96.8455L286.381 97.2424L288.234 97.7195L288.336 97.3226L286.484 96.8455Z" fill="black"/>
<path d="M301.145 93.9173L301.053 94.3167L305.579 95.3638L305.672 94.9644L301.145 93.9173Z" fill="black"/>
<path d="M309.23 111.91L305.95 110.954L306.087 110.544L309.23 111.5V111.91Z" fill="black"/>
<path d="M306.087 101.799L302.944 101.252V100.842L306.087 101.525V101.799Z" fill="black"/>
<path d="M316.609 140.742C316.472 140.742 316.336 140.742 316.199 140.742C315.652 140.605 315.242 140.332 315.106 139.922L315.379 139.785C315.516 140.059 315.926 140.332 316.336 140.469C316.745 140.605 317.155 140.469 317.429 140.332L317.565 140.605C317.292 140.742 317.019 140.742 316.609 140.742Z" fill="black"/>
<path d="M252.385 192.393L252.249 192.119L253.205 191.573L253.342 191.846L252.385 192.393Z" fill="black"/>
<path d="M264.41 188.567H264.137C264.273 187.747 264.82 186.927 265.64 186.517L265.776 186.79C264.957 187.2 264.41 187.884 264.41 188.567Z" fill="black"/>
<path d="M275.752 181.735C275.615 181.051 276.162 180.368 276.981 180.231V180.505C276.435 180.641 276.025 181.188 276.025 181.598L275.752 181.735Z" fill="black"/>
<path d="M274.249 169.027H273.975V170.803H274.249V169.027Z" fill="black"/>
<path d="M284.77 168.07H284.497V169.027H284.77V168.07Z" fill="black"/>
<path d="M278.895 162.195H278.621V163.561H278.895V162.195Z" fill="black"/>
<path d="M208.385 98.9292L208.112 98.7926L209.068 97.0162L209.342 97.1529L208.385 98.9292Z" fill="black"/>
<path d="M224.783 90.4574C224.373 90.4574 224.099 90.3207 223.826 90.0475L224.099 89.7742C224.373 90.0475 225.056 90.1841 225.329 89.9108L225.466 90.1841C225.193 90.3207 224.919 90.4574 224.783 90.4574Z" fill="black"/>
<path d="M380.012 102.619C379.329 101.389 379.739 99.7491 380.696 98.7926L380.969 99.0659C380.012 99.8857 379.876 101.389 380.422 102.482L380.012 102.619Z" fill="black"/>
<path d="M382.472 115.19C382.472 113.96 382.745 112.594 383.429 111.5L383.702 111.637C383.019 112.73 382.745 113.96 382.745 115.19H382.472Z" fill="black"/>
<path d="M388.211 103.029L387.938 102.892C388.348 102.345 388.485 101.525 388.348 100.706L388.621 100.569C388.895 101.389 388.621 102.345 388.211 103.029Z" fill="black"/>
<path d="M387.255 93.4635L386.981 93.1902C387.391 92.7803 387.528 92.0971 387.391 91.5505H387.665C387.938 92.2337 387.665 92.917 387.255 93.4635Z" fill="black"/>
<path d="M390.534 78.4329L390.124 78.2963L392.037 75.0168L392.311 75.2901L390.534 78.4329Z" fill="black"/>
<path d="M398.186 81.1656L398.05 80.8924C398.87 80.3458 399.416 79.3893 399.416 78.2961H399.69C399.69 79.3893 399.143 80.6191 398.186 81.1656Z" fill="black"/>
<path d="M396.547 67.5015L396.273 67.3648L396.683 65.9984L396.957 66.1351L396.547 67.5015Z" fill="black"/>
<path d="M372.634 77.8862H372.36V81.029H372.634V77.8862Z" fill="black"/>
<path d="M372.36 66.5449C372.36 65.4518 372.634 64.222 373.317 63.2655L373.59 63.4021C373.044 64.3586 372.634 65.4518 372.634 66.5449H372.36Z" fill="black"/>
<path d="M377.233 63.7699L375.864 67.3423L376.247 67.489L377.616 63.9166L377.233 63.7699Z" fill="black"/>
<path d="M379.603 53.8371L379.466 53.7005H379.329C379.603 52.8806 380.013 52.1974 380.696 51.6509L381.516 50.9677L379.603 53.8371Z" fill="black"/>
<path d="M383.975 51.241V50.9677C384.249 50.9677 384.522 50.8311 384.658 50.5578C384.795 50.2845 384.795 50.0112 384.795 49.8746L385.068 49.7379C385.205 50.0112 385.205 50.4211 384.932 50.8311C384.658 50.9677 384.385 51.241 383.975 51.241Z" fill="black"/>
<defs>
<linearGradient id="paint0_linear_251_2" x1="5.27007" y1="197.573" x2="432.523" y2="197.573" gradientUnits="userSpaceOnUse">
<stop stop-color="#26623C"/>
<stop offset="0.3381" stop-color="#4BB750"/>
<stop offset="0.9959" stop-color="#654EA0"/>
</linearGradient>
<linearGradient id="paint1_linear_251_2" x1="22.4489" y1="209.892" x2="157.143" y2="209.892" gradientUnits="userSpaceOnUse">
<stop offset="0.031851" stop-color="#603913"/>
<stop offset="0.1711" stop-color="#A97C50"/>
<stop offset="0.6011" stop-color="#A97C50"/>
<stop offset="1" stop-color="#603913"/>
</linearGradient>
<linearGradient id="paint2_linear_251_2" x1="69.9871" y1="233.027" x2="109.044" y2="165.377" gradientUnits="userSpaceOnUse">
<stop offset="0.2992" stop-color="#FDBB33"/>
<stop offset="0.9955" stop-color="#F9E932"/>
</linearGradient>
<linearGradient id="paint3_linear_251_2" x1="206.883" y1="152.151" x2="287.64" y2="152.151" gradientUnits="userSpaceOnUse">
<stop stop-color="#58595B"/>
<stop offset="0.0281486" stop-color="#4C4C4E"/>
<stop offset="0.0631611" stop-color="#414042"/>
<stop offset="0.7757"/>
</linearGradient>
<linearGradient id="paint4_linear_251_2" x1="285.688" y1="27.8489" x2="312.752" y2="27.8489" gradientUnits="userSpaceOnUse">
<stop stop-color="#A7A9AC"/>
<stop offset="0.1353" stop-color="#A7A9AC"/>
<stop offset="0.9266" stop-color="#D1D3D4"/>
</linearGradient>
<linearGradient id="paint5_linear_251_2" x1="307.316" y1="25.3352" x2="373.632" y2="25.3352" gradientUnits="userSpaceOnUse">
<stop offset="0.0714143" stop-color="#58595B"/>
<stop offset="0.2165" stop-color="#4C4C4E"/>
<stop offset="0.397" stop-color="#414042"/>
<stop offset="1"/>
</linearGradient>
<linearGradient id="paint6_linear_251_2" x1="214.486" y1="92.6475" x2="390.733" y2="92.6475" gradientUnits="userSpaceOnUse">
<stop offset="0.0714143" stop-color="#58595B"/>
<stop offset="0.2165" stop-color="#4C4C4E"/>
<stop offset="0.397" stop-color="#414042"/>
<stop offset="1"/>
</linearGradient>
<linearGradient id="paint7_linear_251_2" x1="362.503" y1="75.2636" x2="399.69" y2="75.2636" gradientUnits="userSpaceOnUse">
<stop offset="0.0714143" stop-color="#58595B"/>
<stop offset="0.2165" stop-color="#4C4C4E"/>
<stop offset="0.397" stop-color="#414042"/>
<stop offset="1"/>
</linearGradient>
<linearGradient id="paint8_linear_251_2" x1="230.524" y1="133.315" x2="362.898" y2="133.315" gradientUnits="userSpaceOnUse">
<stop offset="0.1788" stop-color="#808285"/>
<stop offset="0.2993" stop-color="#999B9E"/>
<stop offset="1" stop-color="white"/>
</linearGradient>
<linearGradient id="paint9_linear_251_2" x1="391.897" y1="141.443" x2="391.897" y2="45.2059" gradientUnits="userSpaceOnUse">
<stop offset="0.0714143" stop-color="#58595B"/>
<stop offset="0.2165" stop-color="#4C4C4E"/>
<stop offset="0.397" stop-color="#414042"/>
<stop offset="1"/>
</linearGradient>
<linearGradient id="paint10_linear_251_2" x1="273.561" y1="203.058" x2="273.561" y2="102.618" gradientUnits="userSpaceOnUse">
<stop offset="0.0714143" stop-color="#58595B"/>
<stop offset="0.2165" stop-color="#4C4C4E"/>
<stop offset="0.397" stop-color="#414042"/>
<stop offset="1"/>
</linearGradient>
<linearGradient id="paint11_linear_251_2" x1="200.95" y1="70.1697" x2="216.479" y2="97.0677" gradientUnits="userSpaceOnUse">
<stop stop-color="#9A807F"/>
<stop offset="0.2276" stop-color="#997F7E"/>
<stop offset="0.3095" stop-color="#96797A"/>
<stop offset="0.3677" stop-color="#906F74"/>
<stop offset="0.3952" stop-color="#8C686F"/>
<stop offset="0.5948" stop-color="#87606A"/>
<stop offset="0.6367" stop-color="#875966"/>
<stop offset="0.7205" stop-color="#874D60"/>
<stop offset="0.8074" stop-color="#87445C"/>
<stop offset="0.8984" stop-color="#863D5A"/>
<stop offset="1" stop-color="#863B59"/>
</linearGradient>
<linearGradient id="paint12_linear_251_2" x1="215.154" y1="62.2468" x2="234.56" y2="95.8595" gradientUnits="userSpaceOnUse">
<stop stop-color="#9A807F"/>
<stop offset="0.2276" stop-color="#997F7E"/>
<stop offset="0.3095" stop-color="#96797A"/>
<stop offset="0.3677" stop-color="#906F74"/>
<stop offset="0.3952" stop-color="#8C686F"/>
<stop offset="0.5948" stop-color="#87606A"/>
<stop offset="0.6367" stop-color="#875966"/>
<stop offset="0.7205" stop-color="#874D60"/>
<stop offset="0.8074" stop-color="#87445C"/>
<stop offset="0.8984" stop-color="#863D5A"/>
<stop offset="1" stop-color="#863B59"/>
</linearGradient>
<linearGradient id="paint13_linear_251_2" x1="196.697" y1="103.399" x2="251.86" y2="103.399" gradientUnits="userSpaceOnUse">
<stop offset="0.0714143" stop-color="#58595B"/>
<stop offset="0.2165" stop-color="#4C4C4E"/>
<stop offset="0.397" stop-color="#414042"/>
<stop offset="1"/>
</linearGradient>
<linearGradient id="paint14_linear_251_2" x1="175.009" y1="119.944" x2="256.117" y2="119.944" gradientUnits="userSpaceOnUse">
<stop stop-color="#A7A9AC"/>
<stop offset="0.1353" stop-color="#A7A9AC"/>
<stop offset="0.7039" stop-color="white"/>
<stop offset="1" stop-color="#A7A9AC"/>
</linearGradient>
</defs>
</svg>
