<svg width="440" height="246" viewBox="0 0 440 246" fill="none" xmlns="http://www.w3.org/2000/svg">
<path d="M406.522 192.017L336.832 56.7166C336.832 56.7166 306.087 71.75 276.708 54.6666C247.329 37.5833 256.894 23.2333 214.534 13.6666C190.211 8.19997 178.733 19.68 162.335 27.6066L407.342 203.633C408.161 199.533 407.888 195.57 406.522 192.017Z" fill="url(#paint0_linear_274_124)"/>
<path d="M168.484 24.8734C150.311 33.4834 135.689 37.5834 111.366 31.4334C53.9752 17.0834 15.7143 46.4667 19.1304 85.4167C22.5466 124.367 29.3789 147.6 21.8633 169.467C14.3478 191.333 10.9317 222.083 43.0435 224.133C75.1553 226.183 94.9689 200.217 132.547 208.417C170.124 216.617 155.776 226.867 186.522 230.967C217.267 235.067 214.534 211.15 256.211 215.933C297.888 220.717 297.888 237.8 347.764 235.067C386.708 232.88 404.335 217.847 413.491 200.9L168.484 24.8734Z" fill="url(#paint1_linear_274_124)"/>
<path d="M409.665 155.8L420.323 145.96C420.323 145.96 433.304 160.31 432.894 178.077C432.484 195.843 424.696 198.85 424.696 198.85L404.472 195.023L382.882 185.457L358.559 166.323C358.559 166.323 326.447 135.573 325.491 135.983C324.534 136.393 408.162 155.39 408.162 155.39" fill="url(#paint2_linear_274_124)"/>
<path d="M231.068 96.35C231.068 96.35 228.609 102.5 232.161 106.6C232.161 106.6 232.845 100.177 235.714 98.9466C235.714 98.81 231.478 98.6733 231.068 96.35Z" fill="#939598"/>
<path d="M249.516 110.017C249.516 110.017 247.056 116.167 250.609 120.267C250.609 120.267 251.292 113.843 254.161 112.613C254.161 112.477 249.925 112.34 249.516 110.017Z" fill="#939598"/>
<path d="M239.677 103.183C239.677 103.183 237.217 109.333 240.77 113.433C240.77 113.433 241.453 107.01 244.323 105.78C244.323 105.643 240.087 105.507 239.677 103.183Z" fill="#939598"/>
<path d="M258.944 105.507C258.944 105.507 259.217 103.73 270.969 104.14C280.261 104.413 281.627 105.78 281.627 105.78C281.627 105.78 282.311 68.88 248.149 74.3466C225.739 78.0366 253.068 103.867 258.944 105.507Z" fill="url(#paint3_linear_274_124)"/>
<path d="M256.894 82.2733C256.894 82.2733 248.012 71.4767 236.398 79.13C224.783 86.7833 229.019 102.09 238.584 98.81C238.584 98.81 239.267 91.02 245.689 87.74C252.112 84.46 256.894 82.2733 256.894 82.2733Z" fill="url(#paint4_linear_274_124)"/>
<path d="M265.776 88.8333C265.776 88.8333 256.348 78.1733 246.509 84.46C236.671 90.7467 235.988 102.227 240.907 105.097C245.826 108.103 248.696 106.053 248.696 106.053C248.696 106.053 253.478 91.43 265.776 88.8333Z" fill="url(#paint5_linear_274_124)"/>
<path d="M268.919 91.5667C268.919 91.5667 264.683 82.41 253.888 92.66C243.093 102.91 249.106 116.987 257.031 111.793C263.727 107.42 263.453 107.42 266.186 104.96C266.186 104.96 274.658 100.723 268.919 91.5667Z" fill="url(#paint6_linear_274_124)"/>
<path d="M368.671 30.75C354.733 8.88336 351.59 14.35 351.59 14.35L351.317 14.2134C349.814 17.0834 370.994 75.85 374.82 73.8C379.193 71.34 379.193 81.18 381.242 82.82C406.522 59.45 381.652 51.1134 368.671 30.75Z" fill="url(#paint7_linear_274_124)"/>
<path d="M322.211 16.6734C322.211 16.6734 320.161 17.0834 319.342 20.2267C320.161 19.4067 336.149 63.96 340.385 69.5634C344.621 75.3034 346.807 64.78 351.317 74.21L367.714 69.1534C367.578 69.4267 326.311 12.5734 322.211 16.6734Z" fill="black"/>
<path d="M352.273 11.2067C351.59 11.48 351.317 12.4367 351.317 14.0767L351.59 14.2133C351.59 14.2133 354.596 8.74666 368.671 30.6133C381.789 50.9767 395.863 63.14 379.329 79.8133C384.385 84.1867 390.261 84.1867 390.261 84.1867C390.261 84.1867 398.733 79.4033 402.559 64.78C406.385 50.1567 358.696 8.88333 352.273 11.2067Z" fill="black"/>
<path d="M319.205 20.3633C318.795 22.14 318.932 24.6 319.752 28.4266C324.534 54.12 333.416 76.5333 333.416 76.5333L351.18 74.3466C346.671 64.78 345.031 44.4166 329.317 28.7C324.398 23.78 320.025 19.5433 319.205 20.3633Z" fill="url(#paint8_linear_274_124)"/>
<path d="M322.758 118.9C328.907 127.783 342.161 140.767 363.478 128.74C384.795 116.713 377.826 111.657 396.957 103.867C413.354 97.17 415.54 98.1267 418.683 102.637C413.354 93.3433 405.565 84.87 396.273 78.8567C379.193 67.9234 368.261 65.8734 368.261 65.8734C368.261 65.8734 285.18 79.8133 290.373 107.557C290.373 107.557 290.646 116.44 301.578 117.123L308.683 114.117C308.82 114.117 316.745 110.017 322.758 118.9Z" fill="url(#paint9_linear_274_124)"/>
<path d="M299.255 174.933L304.721 183.817C304.721 183.817 344.348 176.71 341.342 168.51C338.335 160.31 329.317 158.943 315.379 166.05C301.441 173.157 299.255 174.933 299.255 174.933Z" fill="url(#paint10_linear_274_124)"/>
<path d="M265.776 179.033C253.478 181.083 282.857 196.8 305.404 181.767L327.267 168.783C327.267 168.783 336.832 168.1 336.149 173.567C335.466 179.033 351.18 156.483 330 159.217C308.82 161.95 265.776 179.033 265.776 179.033Z" fill="url(#paint11_linear_274_124)"/>
<path d="M292.422 198.167C292.422 198.167 286.957 194.34 291.329 188.873C291.329 188.873 294.335 183.68 315.652 176.847C332.596 171.38 333.416 170.013 334.509 165.913C335.739 160.72 339.975 164.82 341.615 169.74C343.255 174.66 306.087 193.657 306.087 193.657L292.422 198.167Z" fill="url(#paint12_linear_274_124)"/>
<path d="M349.95 119.857C359.157 119.857 366.621 113.371 366.621 105.37C366.621 97.3692 359.157 90.8833 349.95 90.8833C340.743 90.8833 333.279 97.3692 333.279 105.37C333.279 113.371 340.743 119.857 349.95 119.857Z" fill="black"/>
<path d="M346.671 119.857C354.067 119.857 360.062 113.86 360.062 106.463C360.062 99.0664 354.067 93.07 346.671 93.07C339.275 93.07 333.279 99.0664 333.279 106.463C333.279 113.86 339.275 119.857 346.671 119.857Z" fill="white"/>
<path d="M306.224 115.21C313.921 115.21 320.161 110.07 320.161 103.73C320.161 97.3898 313.921 92.25 306.224 92.25C298.526 92.25 292.286 97.3898 292.286 103.73C292.286 110.07 298.526 115.21 306.224 115.21Z" fill="black"/>
<path d="M304.447 114.253C310.032 114.253 314.559 109.725 314.559 104.14C314.559 98.5546 310.032 94.0267 304.447 94.0267C298.863 94.0267 294.335 98.5546 294.335 104.14C294.335 109.725 298.863 114.253 304.447 114.253Z" fill="white"/>
<path d="M299.801 112.477C302.971 112.477 305.54 109.907 305.54 106.737C305.54 103.567 302.971 100.997 299.801 100.997C296.632 100.997 294.062 103.567 294.062 106.737C294.062 109.907 296.632 112.477 299.801 112.477Z" fill="black"/>
<path d="M339.839 116.03C343.159 116.03 345.851 113.338 345.851 110.017C345.851 106.696 343.159 104.003 339.839 104.003C336.518 104.003 333.826 106.696 333.826 110.017C333.826 113.338 336.518 116.03 339.839 116.03Z" fill="black"/>
<path d="M418.683 102.637C415.54 98.1266 403.106 82.41 386.708 89.1066C367.578 97.0333 384.658 116.713 363.478 128.74C342.298 140.767 329.043 127.647 322.758 118.9C316.472 110.153 308.82 114.117 308.82 114.117L301.714 117.123L231.752 154.023C231.752 154.023 230.112 167.963 246.099 180.263C262.087 192.563 287.366 184.637 307.317 174.797C327.267 164.957 334.373 163.18 337.106 168.237C339.839 173.293 334.373 175.07 324.534 179.443C314.696 183.817 293.379 193.11 293.379 193.11C293.379 193.11 283.814 197.483 286.547 203.77C289.28 210.057 295.429 207.87 297.205 202.13C297.205 202.13 316.335 195.023 331.64 190.103C346.944 185.183 360.335 186.003 363.068 176.437C363.068 176.437 380.149 163.043 410.894 158.943C430.298 156.483 430.298 122.727 418.683 102.637Z" fill="url(#paint13_linear_274_124)"/>
<path d="M327.267 166.05C329.18 165.093 331.366 164.683 333.689 164.683C335.876 164.683 338.199 165.23 340.248 166.323C342.298 167.553 343.938 169.193 344.758 171.517C345.168 172.61 345.304 173.977 345.031 175.07C344.758 176.163 344.211 177.257 343.391 177.94C344.075 175.89 343.801 173.84 342.845 172.337C341.888 170.833 340.385 169.603 338.882 168.647C337.242 167.69 335.466 167.143 333.553 166.733C331.503 166.323 329.453 166.187 327.267 166.05Z" fill="#A7A9AC"/>
<path d="M353.913 159.627C354.87 158.943 356.099 158.943 357.193 159.217C358.286 159.49 359.242 160.173 360.062 160.993C360.882 161.813 361.292 162.77 361.702 163.863C361.839 164.41 361.838 164.957 361.975 165.503C361.975 166.05 361.975 166.597 361.838 167.143C361.429 166.733 361.019 166.323 360.745 166.05C360.472 165.64 360.062 165.367 359.789 164.957C359.242 164.273 358.696 163.59 358.149 162.907C357.602 162.36 357.056 161.677 356.373 161.13C355.689 160.583 354.87 160.037 353.913 159.627Z" fill="#A7A9AC"/>
<path d="M242.273 148.967C242.273 148.967 224.646 151.973 223.553 158.123C222.46 164.41 234.621 169.877 239.677 166.187C244.87 162.633 254.845 148.283 242.273 148.967Z" fill="black"/>
<path d="M334.099 89.9267C335.056 86.7834 337.242 84.05 340.112 82.1367C342.845 80.0867 346.398 79.13 349.814 78.9933C351.453 78.9933 353.23 79.13 355.006 79.54C356.646 80.0867 358.286 80.77 359.652 81.8634C362.385 84.05 364.161 87.33 364.161 90.61C362.932 87.6034 360.882 85.1433 358.422 83.64C355.826 82.1367 352.957 81.59 349.95 81.7267C346.944 81.8633 343.938 82.5467 341.342 83.9134C338.472 85.28 336.149 87.33 334.099 89.9267Z" fill="black"/>
<path d="M304.994 78.1733C306.36 77.49 308 77.49 309.503 77.9C311.006 78.31 312.373 79.2667 313.466 80.36C314.422 81.59 315.242 82.9567 315.516 84.46C315.789 85.1433 315.652 85.9633 315.789 86.6467C315.789 87.33 315.652 88.15 315.379 88.8333H315.242C315.106 88.15 314.969 87.6033 314.832 86.92C314.559 86.2367 314.422 85.69 314.149 85.0067C313.602 83.7767 312.919 82.6833 312.099 81.7267C310.323 79.8133 307.863 78.5833 305.267 78.31V78.1733H304.994Z" fill="black"/>
<path d="M272.745 161.95C273.198 161.95 273.565 161.583 273.565 161.13C273.565 160.677 273.198 160.31 272.745 160.31C272.293 160.31 271.925 160.677 271.925 161.13C271.925 161.583 272.293 161.95 272.745 161.95Z" fill="#6D6E71"/>
<path d="M272.745 162.497C272.062 162.497 271.516 161.95 271.516 161.267C271.516 160.583 272.062 159.9 272.745 159.9C273.429 159.9 274.112 160.447 274.112 161.267C273.975 161.813 273.429 162.497 272.745 162.497ZM272.745 160.857C272.609 160.857 272.472 160.993 272.472 161.13C272.472 161.403 273.019 161.403 273.019 161.13C273.019 160.993 272.882 160.857 272.745 160.857Z" fill="#6D6E71"/>
<path d="M283.95 156.073C284.403 156.073 284.77 155.706 284.77 155.253C284.77 154.8 284.403 154.433 283.95 154.433C283.498 154.433 283.13 154.8 283.13 155.253C283.13 155.706 283.498 156.073 283.95 156.073Z" fill="#6D6E71"/>
<path d="M283.95 156.483C283.267 156.483 282.72 155.937 282.72 155.117C282.72 154.433 283.267 153.887 283.95 153.887C284.634 153.887 285.18 154.433 285.18 155.117C285.18 155.937 284.634 156.483 283.95 156.483ZM283.95 154.98C283.814 154.98 283.677 155.117 283.677 155.253C283.677 155.527 284.224 155.527 284.224 155.253C284.087 155.117 284.087 154.98 283.95 154.98Z" fill="#6D6E71"/>
<path d="M282.857 165.777C283.31 165.777 283.677 165.41 283.677 164.957C283.677 164.504 283.31 164.137 282.857 164.137C282.404 164.137 282.037 164.504 282.037 164.957C282.037 165.41 282.404 165.777 282.857 165.777Z" fill="#6D6E71"/>
<path d="M282.857 166.187C282.174 166.187 281.627 165.64 281.627 164.957C281.627 164.273 282.174 163.59 282.857 163.59C283.54 163.59 284.087 164.137 284.087 164.957C284.087 165.64 283.54 166.187 282.857 166.187ZM282.857 164.683C282.72 164.683 282.584 164.82 282.584 164.957C282.584 165.23 283.13 165.23 283.13 164.957C283.13 164.82 282.994 164.683 282.857 164.683Z" fill="#6D6E71"/>
<path d="M293.652 160.72C294.105 160.72 294.472 160.353 294.472 159.9C294.472 159.447 294.105 159.08 293.652 159.08C293.199 159.08 292.832 159.447 292.832 159.9C292.832 160.353 293.199 160.72 293.652 160.72Z" fill="#6D6E71"/>
<path d="M293.652 161.13C292.969 161.13 292.286 160.583 292.286 159.9C292.286 159.217 292.832 158.67 293.652 158.67C294.335 158.67 294.882 159.217 294.882 159.9C294.882 160.583 294.335 161.13 293.652 161.13ZM293.652 159.627C293.516 159.627 293.379 159.763 293.379 159.9C293.379 160.173 293.925 160.173 293.925 159.9C293.925 159.763 293.789 159.627 293.652 159.627Z" fill="#6D6E71"/>
<path d="M295.839 149.787C296.291 149.787 296.658 149.42 296.658 148.967C296.658 148.514 296.291 148.147 295.839 148.147C295.386 148.147 295.019 148.514 295.019 148.967C295.019 149.42 295.386 149.787 295.839 149.787Z" fill="#6D6E71"/>
<path d="M295.839 150.197C295.155 150.197 294.609 149.65 294.609 148.967C294.609 148.283 295.155 147.737 295.839 147.737C296.522 147.737 297.068 148.283 297.068 148.967C297.068 149.65 296.522 150.197 295.839 150.197ZM295.839 148.693C295.702 148.693 295.565 148.83 295.565 148.967C295.565 149.24 296.112 149.24 296.112 148.967C296.112 148.83 295.975 148.693 295.839 148.693Z" fill="#6D6E71"/>
<path d="M238.447 154.433C238.447 154.433 226.149 155.117 228.199 157.85C230.248 160.583 238.447 154.433 238.447 154.433Z" fill="white"/>
<path d="M335.329 118.627C335.329 118.627 336.149 125.05 343.801 124.64L335.329 118.627Z" fill="#58595B"/>
<path d="M375.913 197.073C375.913 197.073 373.453 203.223 377.006 207.323C377.006 207.323 377.689 200.9 380.559 199.67C380.559 199.67 376.323 199.397 375.913 197.073Z" fill="#939598"/>
<path d="M394.36 210.74C394.36 210.74 391.901 216.89 395.453 220.99C395.453 220.99 396.137 214.567 399.006 213.337C399.006 213.337 394.77 213.063 394.36 210.74Z" fill="#939598"/>
<path d="M384.522 203.907C384.522 203.907 382.062 210.057 385.615 214.157C385.615 214.157 386.298 207.733 389.168 206.503C389.168 206.503 384.932 206.23 384.522 203.907Z" fill="#939598"/>
<path d="M403.789 206.367C403.789 206.367 405.838 211.15 415.814 205C425.789 198.85 425.652 198.85 425.652 198.85C425.652 198.85 421.553 175.89 399.006 175.617C376.46 175.343 397.913 204.727 403.789 206.367Z" fill="url(#paint14_linear_274_124)"/>
<path d="M401.739 183.133C401.739 183.133 392.857 172.337 381.242 179.99C369.491 187.507 373.863 202.95 383.429 199.67C383.429 199.67 383.702 191.607 390.261 188.327C396.82 185.047 401.739 183.133 401.739 183.133Z" fill="url(#paint15_linear_274_124)"/>
<path d="M410.621 189.693C410.621 189.693 401.193 179.033 391.354 185.32C381.516 191.607 380.832 203.087 385.752 205.957C390.671 208.963 393.54 206.913 393.54 206.913C393.54 206.913 398.323 192.29 410.621 189.693Z" fill="url(#paint16_linear_274_124)"/>
<path d="M413.764 192.427C413.764 192.427 409.528 183.27 398.733 193.52C387.938 203.77 393.95 217.847 401.876 212.653C408.571 208.28 411.031 204.453 411.031 205.82C411.031 205.683 419.503 201.583 413.764 192.427Z" fill="url(#paint17_linear_274_124)"/>
<path d="M329.636 79.5321L325.03 82.4754L325.398 83.0512L330.004 80.108L329.636 79.5321Z" fill="black"/>
<path d="M326.994 99.7667H326.311V102.5H326.994V99.7667Z" fill="black"/>
<path d="M354.05 75.9867L353.64 75.44C355.553 74.0734 357.876 73.39 360.062 73.5267V74.21C357.876 74.0734 355.826 74.7567 354.05 75.9867Z" fill="black"/>
<path d="M343.801 76.67L343.391 76.1233C344.211 75.3033 345.441 75.1667 346.534 75.5767L346.261 76.26C345.441 75.9867 344.484 76.1233 343.801 76.67Z" fill="black"/>
<path d="M370.311 71.34H368.261V72.0234H370.311V71.34Z" fill="black"/>
<path d="M371.95 82.41C370.857 82.41 369.764 82.1367 368.807 81.59L369.081 81.0433C370.311 81.7267 371.677 81.8633 372.907 81.59L373.043 82.2733C372.77 82.41 372.36 82.41 371.95 82.41Z" fill="black"/>
<path d="M384.522 79.4033C383.702 78.72 382.472 78.5834 381.379 78.8567L381.106 78.1734C382.335 77.7634 383.839 78.0367 384.932 78.72L384.522 79.4033Z" fill="black"/>
<path d="M383.856 83.7919L380.441 85.1896L380.7 85.8221L384.115 84.4243L383.856 83.7919Z" fill="black"/>
<path d="M126.261 78.5833C125.988 85.69 118.062 91.84 107.677 92.1133C97.2919 92.3867 89.2298 86.7833 88.5466 79.8133C87.3168 67.1033 88.6832 66.83 107.13 66.2833C119.702 65.7367 126.807 62.8667 126.261 78.5833Z" fill="url(#paint18_linear_274_124)"/>
<path d="M126.124 72.4334C126.261 79.54 117.925 85.69 107.54 85.9634C97.1553 86.2367 88.5466 80.77 88.4099 73.6634C88.2733 66.5567 96.6087 60.4067 106.994 60.1334C117.379 59.86 125.988 65.3267 126.124 72.4334Z" fill="url(#paint19_linear_274_124)"/>
<path d="M106.584 85.28C101.118 85.28 96.0621 83.5034 92.7826 80.4967C90.7329 78.5834 89.6398 76.1234 89.5031 73.6634C89.3665 66.9667 97.1553 61.2267 106.857 60.9534C112.596 60.68 118.062 62.5934 121.478 65.7367C123.528 67.65 124.621 70.11 124.758 72.57C124.894 79.2667 117.106 85.0067 107.404 85.28C107.13 85.28 106.857 85.28 106.584 85.28ZM107.814 61.3634C107.54 61.3634 107.267 61.3634 106.994 61.3634C97.5652 61.6367 89.913 67.1034 90.0497 73.6634C90.0497 75.9867 91.1429 78.31 93.1925 80.0867C96.472 83.23 101.801 84.87 107.404 84.7334C116.832 84.46 124.484 78.9934 124.348 72.4334C124.348 70.11 123.255 67.7867 121.205 66.01C118.062 63.14 113.143 61.3634 107.814 61.3634Z" fill="#D09C6C"/>
<path d="M99.6149 78.72L103.851 74.0734C101.938 72.8434 100.708 71.75 100.435 70.52C100.161 69.29 100.435 68.1967 101.528 66.9667C102.621 65.7367 104.124 64.9167 106.174 64.5067C108.224 64.0967 110.273 64.0967 112.46 64.6434L113.416 63.55L116.012 64.37L115.056 65.4634C116.832 66.2834 117.925 67.1034 118.472 68.1967C119.019 69.1534 118.882 70.3834 118.199 71.6134L113.416 70.3834C113.963 69.4267 113.826 68.6067 112.87 67.9234L108.907 72.2967C111.366 73.6634 112.733 74.8934 113.006 76.1234C113.279 77.3534 113.006 78.31 111.913 79.54C110.683 80.9067 109.043 81.8634 106.857 82.2734C104.671 82.82 102.348 82.6834 99.8882 82.1367L97.9751 84.1867L95.3789 83.3667L97.2919 81.3167C95.3789 80.4967 94.1491 79.54 93.6025 78.31C93.0559 77.08 93.1925 75.7134 94.1491 74.0734L99.0683 75.3034C98.6584 75.9867 98.6584 76.5334 98.795 77.2167C98.9317 77.7634 99.205 78.31 99.6149 78.72ZM110.273 67.1034C109.453 66.9667 108.634 67.1034 107.95 67.3767C107.267 67.65 106.584 67.9234 106.311 68.3334C105.901 68.7434 105.764 69.1534 105.901 69.5634C106.037 69.9734 106.311 70.5201 106.857 70.9301L110.273 67.1034ZM102.075 79.6767C103.031 79.8134 103.988 79.8134 104.944 79.6767C105.901 79.4034 106.584 78.9934 107.13 78.4467C107.54 77.9001 107.677 77.49 107.54 76.9434C107.404 76.3967 106.857 75.85 105.901 75.3034L102.075 79.6767Z" fill="#A97C50"/>
<path d="M57.9379 218.667C57.6646 225.773 49.7391 231.923 39.354 232.197C28.9689 232.47 20.9068 226.867 20.2236 219.897C18.9938 207.187 20.3602 206.913 38.8075 206.367C51.3789 205.82 58.4845 202.95 57.9379 218.667Z" fill="url(#paint20_linear_274_124)"/>
<path d="M57.8012 212.517C57.9379 219.623 49.6025 225.773 39.2174 226.047C28.8323 226.32 20.2236 220.853 20.087 213.747C19.9503 206.64 28.2857 200.49 38.6708 200.217C49.0559 199.943 57.6646 205.41 57.8012 212.517Z" fill="url(#paint21_linear_274_124)"/>
<path d="M38.2609 225.363C32.795 225.363 27.7391 223.587 24.4596 220.58C22.4099 218.667 21.3168 216.207 21.1801 213.747C21.0435 207.05 28.8323 201.31 38.5342 201.037C44.4099 200.9 49.7391 202.677 53.1553 205.82C55.205 207.733 56.2981 210.193 56.4348 212.653C56.5714 219.35 48.7826 225.09 39.0807 225.363C38.8074 225.363 38.5342 225.363 38.2609 225.363ZM39.4907 201.447C39.2174 201.447 38.9441 201.447 38.6708 201.447C29.2422 201.72 21.5901 207.187 21.7267 213.747C21.7267 216.07 22.8199 218.393 24.8696 220.17C28.1491 223.313 33.4783 224.953 39.0807 224.817C48.5093 224.543 56.1615 219.077 56.0248 212.517C56.0248 210.193 54.9317 207.87 52.882 206.093C49.7391 203.223 44.8199 201.447 39.4907 201.447Z" fill="#D09C6C"/>
<path d="M31.2919 218.803L35.5279 214.157C33.6149 212.927 32.3851 211.833 32.1118 210.603C31.8385 209.373 32.1118 208.28 33.205 207.05C34.2981 205.82 35.8012 205 37.8509 204.59C39.9006 204.18 41.9503 204.18 44.1366 204.727L45.0932 203.633L47.6894 204.453L46.7329 205.547C48.5093 206.367 49.6025 207.187 50.1491 208.28C50.6956 209.237 50.559 210.467 49.8758 211.697L45.0932 210.467C45.6397 209.51 45.5031 208.69 44.5466 208.007L40.5838 212.38C43.0435 213.747 44.4099 214.977 44.6832 216.207C45.0932 217.3 44.6832 218.393 43.5901 219.623C42.3602 220.99 40.7205 221.947 38.5342 222.357C36.3478 222.903 34.0248 222.767 31.5652 222.22L29.6522 224.27L27.0559 223.45L28.9689 221.4C27.0559 220.58 25.8261 219.623 25.2795 218.393C24.7329 217.163 24.8696 215.797 25.8261 214.157L30.7453 215.387C30.3354 216.07 30.3354 216.617 30.472 217.3C30.6087 217.847 30.882 218.393 31.2919 218.803ZM41.9503 207.187C41.1304 207.05 40.3106 207.187 39.6273 207.46C38.9441 207.733 38.2609 208.007 37.9876 208.417C37.5776 208.827 37.441 209.237 37.5776 209.647C37.7143 210.057 37.9876 210.603 38.5342 211.013L41.9503 207.187ZM33.7515 219.76C34.7081 219.897 35.6646 219.897 36.6211 219.76C37.5776 219.487 38.2609 219.077 38.8075 218.53C39.2174 217.983 39.354 217.573 39.2174 217.027C39.0807 216.48 38.5342 215.933 37.5776 215.387L33.7515 219.76Z" fill="#A97C50"/>
<path d="M198.273 86.3733C197.863 99.4933 183.242 110.7 164.112 111.247C144.981 111.793 130.224 101.543 128.994 88.56C126.807 65.19 129.267 64.78 163.155 63.6867C186.385 63.0033 199.23 57.6733 198.273 86.3733Z" fill="url(#paint22_linear_274_124)"/>
<path d="M198 75.3033C198.273 88.4233 182.969 99.63 163.839 100.177C144.708 100.723 128.994 90.61 128.72 77.49C128.447 64.37 143.752 53.1633 162.882 52.6167C182.012 52.07 197.727 62.1833 198 75.3033Z" fill="url(#paint23_linear_274_124)"/>
<path d="M162.335 98.81C152.224 98.81 142.932 95.53 137.056 90.0634C133.23 86.51 131.18 82.1367 131.043 77.6267C130.77 65.3267 145.118 54.8033 162.882 54.2567C173.54 53.9833 183.516 57.2633 189.665 63.0033C193.491 66.5567 195.54 70.93 195.677 75.44C195.95 87.74 181.602 98.2634 163.839 98.81C163.429 98.81 162.882 98.81 162.335 98.81ZM164.522 54.94C163.975 54.94 163.565 54.94 163.019 54.94C145.665 55.4867 131.863 65.6 132 77.3533C132.137 81.7267 134.05 85.8267 137.739 89.2434C143.752 94.9834 153.453 98.1267 163.839 97.7167C181.193 97.17 194.994 87.0567 194.857 75.3033C194.721 70.93 192.807 66.83 189.118 63.4133C183.379 58.0833 174.36 54.94 164.522 54.94Z" fill="#D09C6C"/>
<path d="M149.627 86.6467L157.416 78.1733C153.863 75.9867 151.677 73.8 151.13 71.75C150.584 69.7 151.267 67.3767 153.18 65.19C155.23 63.0033 158.099 61.5 161.652 60.68C165.342 59.86 169.168 59.9967 173.13 60.9533L174.907 58.9033L179.689 60.4067L177.913 62.4567C181.193 63.8233 183.242 65.4633 184.199 67.3767C185.155 69.29 185.019 71.34 183.652 73.5267L174.77 71.4767C175.727 69.7 175.453 68.1967 173.814 66.9667L166.571 74.8933C171.081 77.49 173.54 79.8133 174.224 81.7267C174.907 83.7767 174.224 85.8267 172.174 88.0133C169.988 90.4733 166.845 92.1133 162.882 93.07C158.919 94.0267 154.683 93.89 150.037 92.9333L146.621 96.76L141.839 95.2567L145.255 91.5667C141.702 90.0633 139.379 88.15 138.422 85.9633C137.329 83.7767 137.739 81.18 139.516 78.31L148.671 80.4967C147.988 81.7267 147.851 82.82 148.124 83.9133C148.124 85.0067 148.671 85.9633 149.627 86.6467ZM169.168 65.3267C167.665 65.19 166.161 65.3267 164.795 65.7367C163.429 66.1467 162.335 66.6933 161.652 67.5133C160.969 68.1967 160.696 69.0167 160.832 69.8367C160.969 70.6567 161.516 71.4767 162.609 72.2967L169.168 65.3267ZM154.137 88.56C155.913 88.8333 157.689 88.8333 159.466 88.4233C161.242 88.0133 162.472 87.33 163.429 86.2367C164.248 85.28 164.522 84.46 164.248 83.5033C163.975 82.5467 163.019 81.59 161.379 80.6333L154.137 88.56Z" fill="#A97C50"/>
<path d="M145.528 179.307C145.528 179.307 154.82 187.507 152.634 200.08C151.13 209.373 143.342 214.02 139.379 215.797C144.845 214.43 149.627 211.15 152.634 208.963C159.739 204.863 199.093 160.857 208.385 142.27C220.683 119.31 205.379 105.643 205.379 105.643C180.646 145.55 145.528 179.307 145.528 179.307Z" fill="url(#paint24_linear_274_124)"/>
<path d="M68.5963 74.8933L13.6646 132.293C12.0248 134.48 11.205 136.667 10.795 138.58L145.528 179.443C145.528 179.443 180.783 145.55 205.379 105.917C205.379 105.917 98.5217 70.11 87.1801 67.9233C75.8385 65.7366 68.5963 74.8933 68.5963 74.8933Z" fill="url(#paint25_linear_274_124)"/>
<path d="M145.528 179.307L10.795 138.443C10.3851 140.767 10.2484 141.04 10.2484 141.04C9.56522 143.09 9.42857 147.873 11.3416 153.613C11.8882 155.39 12.2981 156.347 13.3913 157.577C13.8012 157.85 14.3478 158.123 15.0311 158.397C20.4969 161.13 124.075 188.737 124.075 188.737C124.075 188.737 131.18 190.787 130.224 196.663C129.677 199.67 128.174 200.763 122.708 200.08C117.652 199.533 15.0311 170.56 15.0311 170.56C15.0311 170.56 11.4783 169.467 11.3416 166.46C10.6584 167.553 10.5217 168.51 10.5217 168.51C10.5217 168.51 9.83851 170.97 10.2484 176.983C10.6584 182.997 14.6211 185.183 14.6211 185.183C14.6211 185.183 110.273 211.423 127.354 215.523C131.59 217.027 135.689 216.89 139.379 215.933C143.342 214.157 151.13 209.373 152.634 200.217C154.683 187.507 145.528 179.307 145.528 179.307Z" fill="url(#paint26_linear_274_124)"/>
<path d="M22.1366 167.007C29.3789 169.467 119.975 194.067 119.975 194.067C119.975 194.067 128.994 197.483 127.217 190.513C125.714 189.42 124.075 189.01 124.075 189.01C124.075 189.01 20.4969 161.267 15.031 158.533C14.3478 158.123 13.8012 157.85 13.3913 157.713C15.441 159.9 18.1739 160.993 18.1739 160.993C18.1739 160.993 15.031 164.683 22.1366 167.007Z" fill="black"/>
<path d="M127.081 190.513C128.994 197.483 119.839 194.067 119.839 194.067C119.839 194.067 29.3789 169.467 22.1366 167.007C14.8944 164.547 18.0373 160.857 18.0373 160.857C18.0373 160.857 16.9441 161.54 13.9379 163.59C12.5714 164.547 11.7516 165.503 11.3416 166.323C11.4783 169.193 15.0311 170.423 15.0311 170.423C15.0311 170.423 117.652 199.533 122.708 200.217C128.174 200.9 129.677 199.807 130.224 196.8C130.77 193.657 128.857 191.607 127.081 190.513Z" fill="url(#paint27_linear_274_124)"/>
<path d="M27.4658 135.437H27.3292L22 133.933C21.5901 133.797 21.4534 133.387 21.5901 133.113C21.7267 132.703 22.1366 132.567 22.4099 132.703L27.6025 134.207C28.0124 134.343 28.1491 134.753 28.0124 135.027C28.0124 135.3 27.7391 135.437 27.4658 135.437Z" fill="#808285"/>
<path d="M157.28 182.997C157.006 182.997 156.733 182.86 156.596 182.587C155.23 179.033 152.907 176.027 149.764 173.567C149.491 173.293 149.491 172.883 149.627 172.61C149.901 172.337 150.311 172.337 150.584 172.473C153.863 175.07 156.186 178.35 157.689 182.04C157.826 182.45 157.689 182.723 157.28 182.997C157.416 182.997 157.553 182.997 157.28 182.997ZM139.789 168.92H139.652L128.447 165.64C128.037 165.503 127.901 165.093 128.037 164.82C128.174 164.41 128.584 164.273 128.857 164.41L140.062 167.69C140.472 167.827 140.609 168.237 140.472 168.51C140.335 168.647 140.062 168.92 139.789 168.92ZM117.379 162.223H117.242L106.037 158.943C105.627 158.807 105.491 158.397 105.627 158.123C105.764 157.713 106.174 157.577 106.447 157.713L117.652 160.993C118.062 161.13 118.199 161.54 118.062 161.813C117.925 161.95 117.652 162.223 117.379 162.223ZM94.8323 155.527H94.6957L83.4907 152.247C83.0807 152.11 82.9441 151.7 83.0807 151.427C83.2174 151.017 83.6273 150.88 83.9006 151.017L95.1056 154.297C95.5155 154.433 95.6522 154.843 95.5155 155.117C95.3789 155.39 95.1056 155.527 94.8323 155.527ZM72.4224 148.83H72.2857L61.0808 145.55C60.6708 145.413 60.5342 145.003 60.6708 144.73C60.8075 144.32 61.2174 144.183 61.4907 144.32L72.6957 147.6C73.1056 147.737 73.2422 148.147 73.1056 148.42C72.9689 148.693 72.6957 148.83 72.4224 148.83ZM49.8758 142.133H49.7391L38.5342 138.853C38.1242 138.717 37.9876 138.307 38.1242 138.033C38.2609 137.623 38.6708 137.487 38.9441 137.623L50.1491 140.903C50.559 141.04 50.6957 141.45 50.559 141.723C50.4224 141.997 50.1491 142.133 49.8758 142.133Z" fill="#808285"/>
<path d="M158.236 199.807H158.099C157.689 199.67 157.553 199.397 157.553 198.987C157.963 197.21 158.236 195.433 158.373 193.657C158.373 193.247 158.783 192.973 159.056 192.973C159.466 192.973 159.739 193.383 159.739 193.657C159.602 195.433 159.329 197.21 158.919 199.123C158.783 199.67 158.509 199.807 158.236 199.807Z" fill="#808285"/>
<path d="M207.702 140.493C207.702 140.493 207.565 140.357 207.702 140.493C207.155 140.357 207.019 140.083 207.019 139.673C207.155 138.717 207.292 137.623 207.429 136.667C207.429 136.257 207.838 135.983 208.248 136.12C208.658 136.12 208.932 136.53 208.795 136.94C208.658 137.897 208.522 138.99 208.385 140.083C208.248 140.22 207.975 140.493 207.702 140.493ZM207.839 126.553C207.565 126.553 207.292 126.28 207.155 126.007C206.472 122.317 205.242 119.037 203.329 116.03C203.193 115.757 203.193 115.347 203.602 115.073C203.876 114.937 204.286 114.937 204.559 115.347C206.472 118.49 207.839 121.907 208.522 125.733C208.522 126.007 208.248 126.417 207.839 126.553ZM195.267 110.563C195.267 110.563 195.13 110.563 194.994 110.563L184.609 107.283C184.199 107.147 184.062 106.737 184.199 106.463C184.335 106.053 184.745 105.917 185.019 106.053L195.404 109.333C195.814 109.47 195.95 109.88 195.814 110.153C195.814 110.427 195.54 110.563 195.267 110.563ZM174.36 104.003C174.36 104.003 174.224 104.003 174.087 104.003L163.702 100.723C163.292 100.587 163.155 100.177 163.292 99.9033C163.429 99.4933 163.839 99.3566 164.112 99.4933L174.497 102.773C174.907 102.91 175.043 103.32 174.907 103.593C174.907 103.73 174.634 104.003 174.36 104.003ZM153.59 97.3066C153.59 97.3066 153.453 97.3066 153.317 97.3066L142.932 94.0266C142.522 93.89 142.385 93.48 142.522 93.2066C142.658 92.7966 143.068 92.66 143.342 92.7966L153.727 96.0766C154.137 96.2133 154.273 96.6233 154.137 96.8966C154.137 97.17 153.863 97.3066 153.59 97.3066ZM132.683 90.7466C132.683 90.7466 132.547 90.7466 132.41 90.7466L122.025 87.4666C121.615 87.33 121.478 86.92 121.615 86.6466C121.752 86.3733 122.161 86.1 122.435 86.2366L132.82 89.5166C133.23 89.6533 133.366 90.0633 133.23 90.3366C133.23 90.4733 132.957 90.7466 132.683 90.7466ZM111.913 84.05C111.913 84.05 111.776 84.05 111.64 84.05L101.255 80.77C100.845 80.6333 100.708 80.2233 100.845 79.95C100.981 79.54 101.391 79.4033 101.665 79.54L112.05 82.82C112.46 82.9566 112.596 83.3666 112.46 83.64C112.46 83.9133 112.186 84.05 111.913 84.05ZM91.0062 77.49C91.0062 77.49 90.8696 77.49 90.7329 77.49L80.3478 74.21C79.9379 74.0733 79.8012 73.6633 79.9379 73.39C80.0745 72.98 80.4845 72.8433 80.7578 72.98L91.1428 76.26C91.5528 76.3966 91.6894 76.8066 91.5528 77.08C91.5528 77.2166 91.2795 77.49 91.0062 77.49Z" fill="#808285"/>
<path d="M34.1615 111.383C39.9006 113.843 86.7702 125.05 86.7702 125.05C86.7702 125.05 100.161 126.143 106.584 116.577C113.006 107.01 114.099 102.227 109.317 96.76C109.317 96.76 69.0062 85.5533 62.1739 82.41C55.3416 79.2667 52.6087 81.7267 52.6087 81.7267L29.3789 106.6C27.8758 107.693 27.1925 108.923 27.0559 110.29L27.3292 110.7C27.3292 110.7 28.4224 109.06 34.1615 111.383Z" fill="url(#paint28_linear_274_124)"/>
<path d="M109.317 96.7599C114.099 102.227 113.143 107.01 106.584 116.577C100.025 126.143 86.7702 125.05 86.7702 125.05C86.7702 125.05 40.0373 113.843 34.1615 111.383C28.2857 108.923 27.3292 110.7 27.3292 110.7L27.0559 110.29C26.646 113.16 28.4224 116.167 28.4224 116.167C28.4224 116.167 70.7826 127.373 81.7143 130.107C92.646 132.84 104.261 132.157 113.143 117.807C122.025 103.457 109.317 96.7599 109.317 96.7599Z" fill="url(#paint29_linear_274_124)"/>
<path d="M90.8696 114.117C95.3976 114.117 99.0683 111.608 99.0683 108.513C99.0683 105.419 95.3976 102.91 90.8696 102.91C86.3415 102.91 82.6708 105.419 82.6708 108.513C82.6708 111.608 86.3415 114.117 90.8696 114.117Z" fill="url(#paint30_linear_274_124)"/>
<path d="M173.13 149.787L172.857 149.513L148.534 141.723L139.789 143.5C139.106 142.953 138.012 142.543 136.919 142.543C134.596 142.543 132.82 144.047 132.82 145.823C132.82 147.6 134.596 149.103 136.919 149.103C138.696 149.103 140.062 148.283 140.745 147.053L147.578 145.687L170.671 153.203C172.311 154.843 181.602 165.093 179.553 181.22L182.969 177.393C184.472 158.26 173.677 150.197 173.13 149.787Z" fill="url(#paint31_linear_274_124)"/>
<path d="M178.323 143.363L178.05 143.09L148.534 133.523C148.124 132.157 146.484 131.063 144.571 131.063C142.248 131.063 140.472 132.567 140.472 134.343C140.472 136.12 142.248 137.623 144.571 137.623C145.391 137.623 146.075 137.487 146.621 137.213L176 146.78C177.64 148.42 186.932 158.67 184.882 174.797L188.298 170.97C189.665 151.7 178.733 143.773 178.323 143.363Z" fill="url(#paint32_linear_274_124)"/>
<path d="M183.379 137.213L183.106 136.94L159.329 129.423L159.466 129.287L157.143 124.093C157.553 123.547 157.826 123 157.826 122.317C157.826 120.54 156.05 119.037 153.727 119.037C151.404 119.037 149.627 120.54 149.627 122.317C149.627 123.957 151.267 125.323 153.317 125.597L156.186 132.703L181.056 140.767C182.696 142.407 191.988 152.657 189.938 168.783L193.354 164.957C194.72 145.55 183.925 137.623 183.379 137.213Z" fill="url(#paint33_linear_274_124)"/>
<defs>
<linearGradient id="paint0_linear_274_124" x1="285.106" y1="203.587" x2="285.106" y2="12.224" gradientUnits="userSpaceOnUse">
<stop offset="0.2378" stop-color="#DDA8CD"/>
<stop offset="0.333" stop-color="#DDA5CB"/>
<stop offset="0.4288" stop-color="#DC9CC5"/>
<stop offset="0.5248" stop-color="#DC8EBD"/>
<stop offset="0.6206" stop-color="#DA7AB1"/>
<stop offset="0.6697" stop-color="#DA6CAA"/>
<stop offset="0.7093" stop-color="#D469A8"/>
<stop offset="0.7675" stop-color="#C561A5"/>
<stop offset="0.8372" stop-color="#AD55A0"/>
<stop offset="0.9152" stop-color="#8E469B"/>
<stop offset="0.9512" stop-color="#7F3F98"/>
</linearGradient>
<linearGradient id="paint1_linear_274_124" x1="77.8953" y1="270.658" x2="280.633" y2="67.9512" gradientUnits="userSpaceOnUse">
<stop stop-color="#26623C"/>
<stop offset="0.3381" stop-color="#006838"/>
<stop offset="0.9959" stop-color="#654EA0"/>
</linearGradient>
<linearGradient id="paint2_linear_274_124" x1="325.55" y1="167.415" x2="432.833" y2="167.415" gradientUnits="userSpaceOnUse">
<stop stop-color="#58595B"/>
<stop offset="0.0174091" stop-color="#545456"/>
<stop offset="0.07754" stop-color="#49494B"/>
<stop offset="0.1621" stop-color="#424244"/>
<stop offset="0.397" stop-color="#414042"/>
<stop offset="1"/>
</linearGradient>
<linearGradient id="paint3_linear_274_124" x1="239.424" y1="89.9238" x2="281.492" y2="89.9238" gradientUnits="userSpaceOnUse">
<stop stop-color="#58595B"/>
<stop offset="0.0174091" stop-color="#545456"/>
<stop offset="0.07754" stop-color="#49494B"/>
<stop offset="0.1621" stop-color="#424244"/>
<stop offset="0.397" stop-color="#414042"/>
<stop offset="1"/>
</linearGradient>
<linearGradient id="paint4_linear_274_124" x1="229.237" y1="87.8888" x2="256.894" y2="87.8888" gradientUnits="userSpaceOnUse">
<stop/>
<stop offset="0.603" stop-color="#414042"/>
<stop offset="0.8379" stop-color="#424244"/>
<stop offset="0.9225" stop-color="#49494B"/>
<stop offset="0.9826" stop-color="#545456"/>
<stop offset="1" stop-color="#58595B"/>
</linearGradient>
<linearGradient id="paint5_linear_274_124" x1="237.939" y1="94.5912" x2="265.776" y2="94.5912" gradientUnits="userSpaceOnUse">
<stop/>
<stop offset="0.603" stop-color="#414042"/>
<stop offset="0.8379" stop-color="#424244"/>
<stop offset="0.9225" stop-color="#49494B"/>
<stop offset="0.9826" stop-color="#545456"/>
<stop offset="1" stop-color="#58595B"/>
</linearGradient>
<linearGradient id="paint6_linear_274_124" x1="247.988" y1="100.285" x2="270.901" y2="100.285" gradientUnits="userSpaceOnUse">
<stop/>
<stop offset="0.603" stop-color="#414042"/>
<stop offset="0.8379" stop-color="#424244"/>
<stop offset="0.9225" stop-color="#49494B"/>
<stop offset="0.9826" stop-color="#545456"/>
<stop offset="1" stop-color="#58595B"/>
</linearGradient>
<linearGradient id="paint7_linear_274_124" x1="371.658" y1="82.865" x2="371.658" y2="13.7427" gradientUnits="userSpaceOnUse">
<stop stop-color="#863B59"/>
<stop offset="0.1016" stop-color="#863D5A"/>
<stop offset="0.1926" stop-color="#87445C"/>
<stop offset="0.2795" stop-color="#874D60"/>
<stop offset="0.3633" stop-color="#875966"/>
<stop offset="0.4052" stop-color="#87606A"/>
<stop offset="0.6048" stop-color="#8C686F"/>
<stop offset="0.6323" stop-color="#906F74"/>
<stop offset="0.6905" stop-color="#96797A"/>
<stop offset="0.7724" stop-color="#997F7E"/>
<stop offset="1" stop-color="#9A807F"/>
</linearGradient>
<linearGradient id="paint8_linear_274_124" x1="335.107" y1="76.5333" x2="335.107" y2="20.2061" gradientUnits="userSpaceOnUse">
<stop stop-color="#863B59"/>
<stop offset="0.1016" stop-color="#863D5A"/>
<stop offset="0.1926" stop-color="#87445C"/>
<stop offset="0.2795" stop-color="#874D60"/>
<stop offset="0.3633" stop-color="#875966"/>
<stop offset="0.4052" stop-color="#87606A"/>
<stop offset="0.6048" stop-color="#8C686F"/>
<stop offset="0.6323" stop-color="#906F74"/>
<stop offset="0.6905" stop-color="#96797A"/>
<stop offset="0.7724" stop-color="#997F7E"/>
<stop offset="1" stop-color="#9A807F"/>
</linearGradient>
<linearGradient id="paint9_linear_274_124" x1="290.145" y1="99.7847" x2="418.703" y2="99.7847" gradientUnits="userSpaceOnUse">
<stop offset="0.0714143" stop-color="#58595B"/>
<stop offset="0.2165" stop-color="#4C4C4E"/>
<stop offset="0.397" stop-color="#414042"/>
<stop offset="1"/>
</linearGradient>
<linearGradient id="paint10_linear_274_124" x1="299.255" y1="172.606" x2="341.443" y2="172.606" gradientUnits="userSpaceOnUse">
<stop stop-color="#9A807F"/>
<stop offset="0.2276" stop-color="#997F7E"/>
<stop offset="0.3095" stop-color="#96797A"/>
<stop offset="0.3677" stop-color="#906F74"/>
<stop offset="0.3952" stop-color="#8C686F"/>
<stop offset="0.5948" stop-color="#87606A"/>
<stop offset="0.6367" stop-color="#875966"/>
<stop offset="0.7205" stop-color="#874D60"/>
<stop offset="0.8074" stop-color="#87445C"/>
<stop offset="0.8984" stop-color="#863D5A"/>
<stop offset="1" stop-color="#863B59"/>
</linearGradient>
<linearGradient id="paint11_linear_274_124" x1="262.874" y1="173.597" x2="341.119" y2="173.597" gradientUnits="userSpaceOnUse">
<stop stop-color="#58595B"/>
<stop offset="0.0174091" stop-color="#545456"/>
<stop offset="0.07754" stop-color="#49494B"/>
<stop offset="0.1621" stop-color="#424244"/>
<stop offset="0.397" stop-color="#414042"/>
<stop offset="1"/>
</linearGradient>
<linearGradient id="paint12_linear_274_124" x1="289.658" y1="180.918" x2="341.672" y2="180.918" gradientUnits="userSpaceOnUse">
<stop stop-color="#58595B"/>
<stop offset="0.0174091" stop-color="#545456"/>
<stop offset="0.07754" stop-color="#49494B"/>
<stop offset="0.1621" stop-color="#424244"/>
<stop offset="0.397" stop-color="#414042"/>
<stop offset="1"/>
</linearGradient>
<linearGradient id="paint13_linear_274_124" x1="329.063" y1="207.714" x2="329.063" y2="87.5115" gradientUnits="userSpaceOnUse">
<stop stop-color="#A7A9AC"/>
<stop offset="0.3407" stop-color="white"/>
<stop offset="0.8647" stop-color="#A7A9AC"/>
<stop offset="1" stop-color="#A7A9AC"/>
</linearGradient>
<linearGradient id="paint14_linear_274_124" x1="388.934" y1="191.876" x2="425.652" y2="191.876" gradientUnits="userSpaceOnUse">
<stop offset="0.00614984"/>
<stop offset="0.603" stop-color="#414042"/>
<stop offset="0.8379" stop-color="#424244"/>
<stop offset="0.9225" stop-color="#49494B"/>
<stop offset="0.9826" stop-color="#545456"/>
<stop offset="1" stop-color="#58595B"/>
</linearGradient>
<linearGradient id="paint15_linear_274_124" x1="374.082" y1="188.68" x2="401.739" y2="188.68" gradientUnits="userSpaceOnUse">
<stop/>
<stop offset="0.603" stop-color="#414042"/>
<stop offset="0.8379" stop-color="#424244"/>
<stop offset="0.9225" stop-color="#49494B"/>
<stop offset="0.9826" stop-color="#545456"/>
<stop offset="1" stop-color="#58595B"/>
</linearGradient>
<linearGradient id="paint16_linear_274_124" x1="382.783" y1="195.383" x2="410.621" y2="195.383" gradientUnits="userSpaceOnUse">
<stop/>
<stop offset="0.603" stop-color="#414042"/>
<stop offset="0.8379" stop-color="#424244"/>
<stop offset="0.9225" stop-color="#49494B"/>
<stop offset="0.9826" stop-color="#545456"/>
<stop offset="1" stop-color="#58595B"/>
</linearGradient>
<linearGradient id="paint17_linear_274_124" x1="392.833" y1="201.077" x2="415.746" y2="201.077" gradientUnits="userSpaceOnUse">
<stop/>
<stop offset="0.603" stop-color="#414042"/>
<stop offset="0.8379" stop-color="#424244"/>
<stop offset="0.9225" stop-color="#49494B"/>
<stop offset="0.9826" stop-color="#545456"/>
<stop offset="1" stop-color="#58595B"/>
</linearGradient>
<linearGradient id="paint18_linear_274_124" x1="126.29" y1="78.533" x2="88.233" y2="79.5022" gradientUnits="userSpaceOnUse">
<stop offset="0.031851" stop-color="#603913"/>
<stop offset="0.1711" stop-color="#A97C50"/>
<stop offset="0.6011" stop-color="#A97C50"/>
<stop offset="1" stop-color="#603913"/>
</linearGradient>
<linearGradient id="paint19_linear_274_124" x1="114.814" y1="85.5461" x2="99.5888" y2="60.6647" gradientUnits="userSpaceOnUse">
<stop offset="0.2992" stop-color="#FDBB33"/>
<stop offset="0.9955" stop-color="#F9E932"/>
</linearGradient>
<linearGradient id="paint20_linear_274_124" x1="57.9654" y1="218.62" x2="19.9083" y2="219.589" gradientUnits="userSpaceOnUse">
<stop offset="0.031851" stop-color="#603913"/>
<stop offset="0.1711" stop-color="#A97C50"/>
<stop offset="0.6011" stop-color="#A97C50"/>
<stop offset="1" stop-color="#603913"/>
</linearGradient>
<linearGradient id="paint21_linear_274_124" x1="46.4892" y1="225.633" x2="31.2641" y2="200.751" gradientUnits="userSpaceOnUse">
<stop offset="0.2992" stop-color="#FDBB33"/>
<stop offset="0.9955" stop-color="#F9E932"/>
</linearGradient>
<linearGradient id="paint22_linear_274_124" x1="198.415" y1="86.3731" x2="128.662" y2="88.1495" gradientUnits="userSpaceOnUse">
<stop offset="0.031851" stop-color="#603913"/>
<stop offset="0.1711" stop-color="#A97C50"/>
<stop offset="0.6011" stop-color="#A97C50"/>
<stop offset="1" stop-color="#603913"/>
</linearGradient>
<linearGradient id="paint23_linear_274_124" x1="177.381" y1="99.2269" x2="149.476" y2="53.6237" gradientUnits="userSpaceOnUse">
<stop offset="0.2992" stop-color="#FDBB33"/>
<stop offset="0.9955" stop-color="#F9E932"/>
</linearGradient>
<linearGradient id="paint24_linear_274_124" x1="139.434" y1="160.955" x2="213.154" y2="160.955" gradientUnits="userSpaceOnUse">
<stop offset="0.0897035" stop-color="#F1F2F2"/>
<stop offset="0.5771" stop-color="#BABCBE"/>
</linearGradient>
<linearGradient id="paint25_linear_274_124" x1="10.8409" y1="123.53" x2="205.311" y2="123.53" gradientUnits="userSpaceOnUse">
<stop offset="0.0897035" stop-color="#F1F2F2"/>
<stop offset="0.5771" stop-color="#BABCBE"/>
</linearGradient>
<linearGradient id="paint26_linear_274_124" x1="9.78221" y1="177.584" x2="152.999" y2="177.584" gradientUnits="userSpaceOnUse">
<stop stop-color="#808285"/>
<stop offset="1" stop-color="#752B90"/>
</linearGradient>
<linearGradient id="paint27_linear_274_124" x1="11.3603" y1="180.671" x2="130.256" y2="180.671" gradientUnits="userSpaceOnUse">
<stop stop-color="#F9CDE1"/>
<stop offset="0.1835" stop-color="#EDBAD6"/>
<stop offset="0.4418" stop-color="#E4A8CC"/>
<stop offset="0.6927" stop-color="#DE9DC6"/>
<stop offset="0.9259" stop-color="#DC99C4"/>
</linearGradient>
<linearGradient id="paint28_linear_274_124" x1="27.0276" y1="102.927" x2="112.295" y2="102.927" gradientUnits="userSpaceOnUse">
<stop offset="0.0897035" stop-color="#F1F2F2"/>
<stop offset="0.5771" stop-color="#BABCBE"/>
</linearGradient>
<linearGradient id="paint29_linear_274_124" x1="26.9525" y1="114.067" x2="116.238" y2="114.067" gradientUnits="userSpaceOnUse">
<stop stop-color="#752B90"/>
<stop offset="1" stop-color="#808285"/>
</linearGradient>
<linearGradient id="paint30_linear_274_124" x1="90.8696" y1="114.117" x2="90.8696" y2="102.842" gradientUnits="userSpaceOnUse">
<stop stop-color="#603913"/>
<stop offset="0.6624" stop-color="#A97C50"/>
<stop offset="0.8376" stop-color="#FBB040"/>
<stop offset="1" stop-color="#603913"/>
</linearGradient>
<linearGradient id="paint31_linear_274_124" x1="132.888" y1="161.481" x2="183.225" y2="161.481" gradientUnits="userSpaceOnUse">
<stop offset="0.00414664" stop-color="#654EA0"/>
<stop offset="0.6619" stop-color="#006838"/>
<stop offset="1" stop-color="#26623C"/>
</linearGradient>
<linearGradient id="paint32_linear_274_124" x1="140.404" y1="152.854" x2="188.349" y2="152.854" gradientUnits="userSpaceOnUse">
<stop offset="0.00414664" stop-color="#654EA0"/>
<stop offset="0.6619" stop-color="#006838"/>
<stop offset="1" stop-color="#26623C"/>
</linearGradient>
<linearGradient id="paint33_linear_274_124" x1="149.627" y1="143.714" x2="193.473" y2="143.714" gradientUnits="userSpaceOnUse">
<stop offset="0.00414664" stop-color="#654EA0"/>
<stop offset="0.6619" stop-color="#006838"/>
<stop offset="1" stop-color="#26623C"/>
</linearGradient>
</defs>
</svg>
