<svg width="353" height="353" viewBox="0 0 353 353" fill="none" xmlns="http://www.w3.org/2000/svg">
<path d="M167.959 277.813C220.669 277.813 263.398 235.083 263.398 182.374C263.398 129.664 220.669 86.9351 167.959 86.9351C115.25 86.9351 72.5203 129.664 72.5203 182.374C72.5203 235.083 115.25 277.813 167.959 277.813Z" fill="#FF0101"/>
<path d="M237.698 152.069C239.256 149.284 240.649 146.405 241.895 143.468C247.88 129.373 249.836 114.587 248.676 99.3959C248.154 92.5566 247.349 75.8773 237.768 75.2119C231.572 74.7812 225.419 80.2933 221.297 84.1851C210.96 93.9491 200.202 107.635 195.181 114.268C195.034 114.208 194.886 114.148 194.739 114.09C177.552 107.164 158.359 107.164 141.172 114.09C141.025 114.148 140.879 114.208 140.731 114.268C135.709 107.635 124.951 93.9491 114.614 84.1851C110.494 80.2933 104.34 74.783 98.1428 75.2119C88.5642 75.8773 87.7576 92.5566 87.2351 99.3959C86.0755 114.587 88.0311 129.374 94.0162 143.468C95.2641 146.405 96.6549 149.284 98.2134 152.069C82.3037 182.441 77.6812 214.151 110.951 238.192C146.774 264.077 167.954 262.247 167.954 262.247C167.954 262.247 189.134 264.077 224.956 238.192C258.23 214.151 253.608 182.441 237.698 152.069Z" fill="#FFA600"/>
<path d="M121.416 162.752C121.416 162.752 116.317 171.773 124.03 176.872C131.743 181.971 153.054 185.893 151.876 182.102C150.701 178.309 133.051 162.361 121.416 162.752Z" fill="black"/>
<path d="M131.362 144.606C131.357 144.606 131.351 144.606 131.344 144.608C127.071 144.834 122.246 148.392 122.855 153.082C123.771 160.142 133.575 160.926 139.98 159.356C143.447 158.507 143.985 154.822 142.688 151.951C140.79 147.755 136.147 144.363 131.362 144.606Z" fill="white"/>
<path d="M201.427 214.661C202.912 213.004 195.204 201.438 194.307 200.158C189.986 193.988 183.964 188.265 177.056 185.124C169.948 181.892 163.095 183.322 156.377 186.836C146.811 191.838 139.822 200.913 135.84 210.81C135.333 212.068 134.839 213.35 134.488 214.661C121.933 200.638 102.354 197.735 86.2009 198.25C87.4029 212.705 94.6006 226.375 110.955 238.194C146.777 264.079 167.957 262.249 167.957 262.249C167.957 262.249 189.138 264.079 224.96 238.194C241.314 226.375 248.512 212.704 249.714 198.25C233.561 197.735 213.982 200.638 201.427 214.661Z" fill="white"/>
<path d="M214.5 162.752C214.5 162.752 219.6 171.773 211.886 176.872C204.173 181.971 182.863 185.893 184.04 182.102C185.216 178.309 202.866 162.361 214.5 162.752Z" fill="black"/>
<path d="M204.556 144.606C204.562 144.606 204.567 144.606 204.574 144.608C208.847 144.834 213.673 148.392 213.064 153.082C212.148 160.142 202.343 160.926 195.938 159.356C192.471 158.507 191.933 154.822 193.23 151.951C195.126 147.755 199.772 144.363 204.556 144.606Z" fill="white"/>
<path d="M233.329 142.758C233.329 142.758 244.574 120.53 238.82 91.637C235.753 76.2303 203.898 117.916 203.898 117.916C203.898 117.916 221.823 126.416 233.329 142.758Z" fill="#FF8300"/>
<path d="M238.82 91.637C239.272 93.9103 239.62 96.1413 239.876 98.3228C234.732 98.4481 222.649 101.044 212.28 122.826C207.389 119.572 203.898 117.916 203.898 117.916C203.898 117.916 235.753 76.2303 238.82 91.637Z" fill="#FF9501"/>
<path d="M102.589 142.758C102.589 142.758 91.344 120.53 97.0979 91.637C100.165 76.2303 132.02 117.916 132.02 117.916C132.02 117.916 114.093 126.416 102.589 142.758Z" fill="#FF8300"/>
<path d="M159.417 236.049C159.417 236.049 159.417 237.502 160.055 238.024C160.694 238.547 162.496 239.071 162.902 238.257C163.308 237.444 163.6 237.364 163.6 237.364C163.6 237.364 165.677 236.805 166.206 238.082C166.736 239.36 167.144 240.523 167.957 240.523C168.771 240.523 169.177 239.362 169.708 238.082C170.239 236.803 172.315 237.364 172.315 237.364C172.315 237.364 172.606 237.444 173.012 238.257C173.418 239.071 175.22 238.548 175.859 238.024C176.498 237.502 176.498 236.049 176.498 236.049H167.957H159.417Z" fill="black"/>
<path d="M189.864 229.542C189.864 229.542 184.868 229.542 183.646 229.542C182.425 229.542 182.31 230.588 182.31 230.588C182.31 230.588 177.081 230.588 174.408 230.588C171.736 230.588 171.328 227.727 171.328 227.727H170.116V220.473C175.693 219.458 179.92 214.574 179.92 208.706V205.483C179.92 203.038 177.94 201.058 175.496 201.058H160.421C157.976 201.058 155.996 203.038 155.996 205.483V208.706C155.996 214.576 160.225 219.458 165.8 220.473V227.727H164.588C164.588 227.727 164.182 230.588 161.508 230.588C158.836 230.588 153.606 230.588 153.606 230.588C153.606 230.588 153.49 229.542 152.27 229.542C151.05 229.542 146.052 229.542 146.052 229.542C146.052 229.542 145.122 229.716 146.285 230.878C147.446 232.039 148.087 232.505 148.26 233.783C148.435 235.061 148.26 236.166 149.307 236.166C150.353 236.166 150.353 236.224 150.759 237.793C151.165 239.362 152.676 244.011 153.664 244.242C154.653 244.475 153.664 234.422 153.664 234.422C153.664 234.422 153.537 232.853 155.751 233.317C157.964 233.781 166.04 234.131 167.957 234.131C169.874 234.131 177.951 233.781 180.164 233.317C182.377 232.853 182.25 234.422 182.25 234.422C182.25 234.422 181.262 244.474 182.25 244.242C183.239 244.009 184.749 239.362 185.155 237.793C185.561 236.224 185.561 236.166 186.608 236.166C187.655 236.166 187.48 235.061 187.655 233.783C187.829 232.505 188.468 232.039 189.63 230.878C190.795 229.716 189.864 229.542 189.864 229.542Z" fill="black"/>
<path d="M97.0962 91.637C96.6444 93.9103 96.2967 96.1413 96.0408 98.3228C101.184 98.4481 113.267 101.044 123.637 122.826C128.527 119.572 132.019 117.916 132.019 117.916C132.019 117.916 100.164 76.2303 97.0962 91.637Z" fill="#FF9501"/>
</svg>
